M48
; DRILL file {KiCad 6.0.4-6f826c9f35~116~ubuntu18.04.1} date 2022年06月27日 星期一 14时44分21秒
; FORMAT={-:-/ absolute / inch / decimal}
; #@! TF.CreationDate,2022-06-27T14:44:21+00:00
; #@! TF.GenerationSoftware,Kicad,Pcbnew,6.0.4-6f826c9f35~116~ubuntu18.04.1
; #@! TF.FileFunction,Plated,1,2,PTH
FMAT,2
INCH
; #@! TA.AperFunction,Plated,PTH,ViaDrill
T1C0.0118
; #@! TA.AperFunction,Plated,PTH,ViaDrill
T2C0.0120
; #@! TA.AperFunction,Plated,PTH,ComponentDrill
T3C0.0236
; #@! TA.AperFunction,Plated,PTH,ComponentDrill
T4C0.0315
; #@! TA.AperFunction,Plated,PTH,ComponentDrill
T5C0.0394
%
G90
G05
T1
X5.4537Y-3.385
X5.4837Y-2.795
X5.4837Y-2.84
X5.4937Y-3.7
X5.5137Y-3.22
X5.5137Y-3.265
X5.5237Y-3.345
X5.5337Y-2.795
X5.5337Y-2.84
X5.5537Y-2.685
X5.5537Y-3.155
X5.5637Y-3.22
X5.5637Y-3.265
X5.6137Y-2.765
X5.6137Y-2.81
X5.6237Y-3.22
X5.6237Y-3.265
X5.6337Y-3.71
X5.6337Y-3.755
X5.6337Y-3.865
X5.6337Y-3.91
X5.6337Y-4.02
X5.6337Y-4.065
X5.6637Y-2.765
X5.6637Y-2.81
X5.6737Y-3.22
X5.6737Y-3.265
X5.6837Y-3.71
X5.6837Y-3.755
X5.6837Y-3.865
X5.6837Y-3.91
X5.6837Y-4.02
X5.6837Y-4.065
X5.7337Y-2.74
X5.7337Y-2.785
X5.7437Y-3.71
X5.7437Y-3.755
X5.7537Y-3.865
X5.7537Y-3.91
X5.7537Y-4.02
X5.7537Y-4.065
X5.7637Y-3.215
X5.7637Y-3.26
X5.7837Y-2.74
X5.7837Y-2.785
X5.7937Y-3.71
X5.7937Y-3.755
X5.8037Y-3.865
X5.8037Y-3.91
X5.8037Y-4.02
X5.8037Y-4.065
X5.8137Y-3.215
X5.8137Y-3.26
X5.8337Y-2.64
X5.8337Y-2.685
X5.8487Y-2.79
X5.8487Y-2.835
X5.8537Y-2.92
X5.8537Y-2.965
X5.8587Y-3.605
X5.8587Y-3.65
X5.8587Y-3.71
X5.8587Y-3.755
X5.8637Y-2.43
X5.8637Y-2.475
X5.8637Y-3.08
X5.8637Y-3.125
X5.8837Y-2.64
X5.8837Y-2.685
X5.8837Y-4.005
X5.8837Y-4.05
X5.8987Y-2.79
X5.8987Y-2.835
X5.9037Y-2.92
X5.9037Y-2.965
X5.9087Y-3.605
X5.9087Y-3.65
X5.9087Y-3.71
X5.9087Y-3.755
X5.9137Y-2.43
X5.9137Y-2.475
X5.9137Y-3.08
X5.9137Y-3.125
X5.9237Y-3.47
X5.9237Y-3.515
X5.9337Y-4.005
X5.9337Y-4.05
X5.9737Y-3.345
X5.9737Y-3.39
X5.9737Y-3.47
X5.9737Y-3.515
X5.9787Y-3.23
X5.9787Y-3.275
X5.9787Y-3.92
X5.9787Y-3.965
X6.0237Y-3.345
X6.0237Y-3.39
X6.0287Y-3.23
X6.0287Y-3.275
X6.0287Y-3.92
X6.0287Y-3.965
X6.0387Y-2.875
X6.0437Y-3.8
X6.0587Y-2.775
X6.0587Y-3.15
X6.0587Y-3.195
X6.0887Y-2.875
X6.0887Y-3.345
X6.0887Y-3.39
X6.1037Y-2.65
X6.1087Y-2.775
X6.1087Y-3.15
X6.1087Y-3.195
X6.1087Y-3.52
X6.1087Y-3.565
X6.1387Y-3.345
X6.1387Y-3.39
X6.1587Y-3.52
X6.1587Y-3.565
X6.1937Y-3.345
X6.1937Y-3.39
X6.2087Y-3.52
X6.2087Y-3.565
X6.2437Y-3.345
X6.2437Y-3.39
X6.2587Y-3.01
X6.2587Y-3.055
X6.2587Y-3.52
X6.2587Y-3.565
X6.2637Y-2.655
X6.2687Y-2.78
X6.2687Y-2.835
X6.2687Y-2.885
X6.2687Y-2.93
X6.3087Y-3.01
X6.3087Y-3.055
X6.3137Y-2.655
X6.3137Y-3.52
X6.3137Y-3.565
X6.3187Y-2.78
X6.3187Y-2.835
X6.3187Y-2.885
X6.3187Y-2.93
X6.3637Y-3.52
X6.3637Y-3.565
X6.4087Y-3.76
X6.4087Y-3.805
X6.4087Y-3.87
X6.4087Y-3.915
X6.4087Y-3.985
X6.4087Y-4.03
X6.4587Y-3.76
X6.4587Y-3.805
X6.4587Y-3.87
X6.4587Y-3.915
X6.4587Y-3.985
X6.4587Y-4.03
T2
X5.4937Y-4.205
X5.4937Y-4.335
X5.4987Y-4.825
X5.4987Y-4.935
X5.6237Y-4.59
X5.8237Y-4.645
X5.8287Y-4.385
X5.9137Y-4.89
X5.9237Y-4.32
X5.9237Y-4.445
X5.9337Y-4.52
X5.9587Y-4.615
X5.9837Y-4.28
X6.0012Y-4.0975
X6.0387Y-4.89
X6.0637Y-4.63
X6.0737Y-4.175
X6.1037Y-4.63
X6.1137Y-4.04
X6.1187Y-4.865
X6.1388Y-4.1726
X6.1437Y-4.605
X6.2137Y-4.725
X6.3287Y-4.875
X6.3287Y-4.95
X6.4687Y-5.005
T4
X5.2958Y-2.4385
X5.2958Y-2.5172
X5.2958Y-2.596
X5.2958Y-2.6747
X5.2958Y-2.7535
X5.2958Y-2.8322
X5.2958Y-2.9109
X5.2958Y-2.9897
X5.2958Y-3.0684
X5.2958Y-3.1472
X5.2958Y-3.3627
X5.2958Y-3.4415
X5.2958Y-3.5202
X5.2958Y-3.5989
X5.2958Y-3.6777
X5.2958Y-3.7564
X5.2958Y-3.8352
X5.2958Y-3.9139
X5.2958Y-3.9926
X5.2958Y-4.0714
X5.2958Y-4.2869
X5.2958Y-4.3657
X5.2958Y-4.4444
X5.2958Y-4.5231
X5.2958Y-4.6019
X5.2958Y-4.6806
X5.2958Y-4.7594
X5.2958Y-4.8381
X5.2958Y-4.9169
X5.2958Y-4.9956
X5.3746Y-2.4385
X5.3746Y-2.5172
X5.3746Y-2.596
X5.3746Y-2.6747
X5.3746Y-2.7535
X5.3746Y-2.8322
X5.3746Y-2.9109
X5.3746Y-2.9897
X5.3746Y-3.0684
X5.3746Y-3.1472
X5.3746Y-3.3627
X5.3746Y-3.4415
X5.3746Y-3.5202
X5.3746Y-3.5989
X5.3746Y-3.6777
X5.3746Y-3.7564
X5.3746Y-3.8352
X5.3746Y-3.9139
X5.3746Y-3.9926
X5.3746Y-4.0714
X5.3746Y-4.2869
X5.3746Y-4.3657
X5.3746Y-4.4444
X5.3746Y-4.5231
X5.3746Y-4.6019
X5.3746Y-4.6806
X5.3746Y-4.7594
X5.3746Y-4.8381
X5.3746Y-4.9169
X5.3746Y-4.9956
T5
X5.6337Y-4.1996
X5.6337Y-4.2996
X5.6337Y-4.3996
X5.6337Y-4.4996
X5.6337Y-4.7204
X5.6337Y-4.8204
X5.6337Y-4.9204
X5.6337Y-5.0204
T3
G00X5.8086Y-4.7951
M15
G01X5.8086Y-4.8384
M16
G05
G00X5.8086Y-4.9695
M15
G01X5.8086Y-4.9931
M16
G05
G00X6.1488Y-4.7951
M15
G01X6.1488Y-4.8384
M16
G05
G00X6.1488Y-4.9695
M15
G01X6.1488Y-4.9931
M16
G05
T0
M30
