%TF.GenerationSoftware,KiCad,Pcbnew,6.0.4-6f826c9f35~116~ubuntu18.04.1*%
%TF.CreationDate,2022-06-27T14:44:09+00:00*%
%TF.ProjectId,zynq-mipi,7a796e71-2d6d-4697-9069-2e6b69636164,rev?*%
%TF.SameCoordinates,Original*%
%TF.FileFunction,Legend,Top*%
%TF.FilePolarity,Positive*%
%FSLAX46Y46*%
G04 Gerber Fmt 4.6, Leading zero omitted, Abs format (unit mm)*
G04 Created by KiCad (PCBNEW 6.0.4-6f826c9f35~116~ubuntu18.04.1) date 2022-06-27 14:44:09*
%MOMM*%
%LPD*%
G01*
G04 APERTURE LIST*
%ADD10C,0.300000*%
%ADD11C,0.125000*%
%ADD12C,0.150000*%
%ADD13C,0.120000*%
%ADD14C,0.010000*%
%ADD15C,0.100000*%
G04 APERTURE END LIST*
D10*
X145968928Y-108257488D02*
X145968928Y-107209869D01*
X147302261Y-108424154D01*
X147302261Y-107376535D01*
X145968928Y-106638440D02*
X147302261Y-106328916D01*
X145968928Y-105686059D02*
X147302261Y-106328916D01*
X147778452Y-106578916D01*
X147873690Y-106686059D01*
X147968928Y-106888440D01*
X145968928Y-104924154D02*
X147302261Y-105090821D01*
X146159404Y-104947964D02*
X146064166Y-104840821D01*
X145968928Y-104638440D01*
X145968928Y-104352726D01*
X146064166Y-104174154D01*
X146254642Y-104102726D01*
X147302261Y-104233678D01*
X145968928Y-102257488D02*
X147968928Y-102507488D01*
X147207023Y-102412250D02*
X147302261Y-102614630D01*
X147302261Y-102995583D01*
X147207023Y-103174154D01*
X147111785Y-103257488D01*
X146921309Y-103328916D01*
X146349880Y-103257488D01*
X146159404Y-103138440D01*
X146064166Y-103031297D01*
X145968928Y-102828916D01*
X145968928Y-102447964D01*
X146064166Y-102269392D01*
X146540357Y-101376535D02*
X146540357Y-99852726D01*
X147302261Y-98995583D02*
X145968928Y-98828916D01*
X146159404Y-98852726D02*
X146064166Y-98745583D01*
X145968928Y-98543202D01*
X145968928Y-98257488D01*
X146064166Y-98078916D01*
X146254642Y-98007488D01*
X147302261Y-98138440D01*
X146254642Y-98007488D02*
X146064166Y-97888440D01*
X145968928Y-97686059D01*
X145968928Y-97400345D01*
X146064166Y-97221773D01*
X146254642Y-97150345D01*
X147302261Y-97281297D01*
X147302261Y-96328916D02*
X145968928Y-96162250D01*
X145302261Y-96078916D02*
X145397500Y-96186059D01*
X145492738Y-96102726D01*
X145397500Y-95995583D01*
X145302261Y-96078916D01*
X145492738Y-96102726D01*
X145968928Y-95209869D02*
X147968928Y-95459869D01*
X146064166Y-95221773D02*
X145968928Y-95019392D01*
X145968928Y-94638440D01*
X146064166Y-94459869D01*
X146159404Y-94376535D01*
X146349880Y-94305107D01*
X146921309Y-94376535D01*
X147111785Y-94495583D01*
X147207023Y-94602726D01*
X147302261Y-94805107D01*
X147302261Y-95186059D01*
X147207023Y-95364630D01*
X147302261Y-93567011D02*
X145968928Y-93400345D01*
X145302261Y-93317011D02*
X145397500Y-93424154D01*
X145492738Y-93340821D01*
X145397500Y-93233678D01*
X145302261Y-93317011D01*
X145492738Y-93340821D01*
D11*
X149548976Y-125710190D02*
X149548976Y-126067333D01*
X149525166Y-126138761D01*
X149477547Y-126186380D01*
X149406119Y-126210190D01*
X149358500Y-126210190D01*
X150025166Y-126210190D02*
X149787071Y-126210190D01*
X149787071Y-125710190D01*
X150477547Y-126162571D02*
X150453738Y-126186380D01*
X150382309Y-126210190D01*
X150334690Y-126210190D01*
X150263261Y-126186380D01*
X150215642Y-126138761D01*
X150191833Y-126091142D01*
X150168023Y-125995904D01*
X150168023Y-125924476D01*
X150191833Y-125829238D01*
X150215642Y-125781619D01*
X150263261Y-125734000D01*
X150334690Y-125710190D01*
X150382309Y-125710190D01*
X150453738Y-125734000D01*
X150477547Y-125757809D01*
X150834690Y-125710190D02*
X150834690Y-126067333D01*
X150810880Y-126138761D01*
X150763261Y-126186380D01*
X150691833Y-126210190D01*
X150644214Y-126210190D01*
X151310880Y-126210190D02*
X151072785Y-126210190D01*
X151072785Y-125710190D01*
X151763261Y-126162571D02*
X151739452Y-126186380D01*
X151668023Y-126210190D01*
X151620404Y-126210190D01*
X151548976Y-126186380D01*
X151501357Y-126138761D01*
X151477547Y-126091142D01*
X151453738Y-125995904D01*
X151453738Y-125924476D01*
X151477547Y-125829238D01*
X151501357Y-125781619D01*
X151548976Y-125734000D01*
X151620404Y-125710190D01*
X151668023Y-125710190D01*
X151739452Y-125734000D01*
X151763261Y-125757809D01*
X152120404Y-125710190D02*
X152120404Y-126067333D01*
X152096595Y-126138761D01*
X152048976Y-126186380D01*
X151977547Y-126210190D01*
X151929928Y-126210190D01*
X152596595Y-126210190D02*
X152358500Y-126210190D01*
X152358500Y-125710190D01*
X153048976Y-126162571D02*
X153025166Y-126186380D01*
X152953738Y-126210190D01*
X152906119Y-126210190D01*
X152834690Y-126186380D01*
X152787071Y-126138761D01*
X152763261Y-126091142D01*
X152739452Y-125995904D01*
X152739452Y-125924476D01*
X152763261Y-125829238D01*
X152787071Y-125781619D01*
X152834690Y-125734000D01*
X152906119Y-125710190D01*
X152953738Y-125710190D01*
X153025166Y-125734000D01*
X153048976Y-125757809D01*
X153406119Y-125710190D02*
X153406119Y-126067333D01*
X153382309Y-126138761D01*
X153334690Y-126186380D01*
X153263261Y-126210190D01*
X153215642Y-126210190D01*
X153882309Y-126210190D02*
X153644214Y-126210190D01*
X153644214Y-125710190D01*
X154334690Y-126162571D02*
X154310880Y-126186380D01*
X154239452Y-126210190D01*
X154191833Y-126210190D01*
X154120404Y-126186380D01*
X154072785Y-126138761D01*
X154048976Y-126091142D01*
X154025166Y-125995904D01*
X154025166Y-125924476D01*
X154048976Y-125829238D01*
X154072785Y-125781619D01*
X154120404Y-125734000D01*
X154191833Y-125710190D01*
X154239452Y-125710190D01*
X154310880Y-125734000D01*
X154334690Y-125757809D01*
D12*
%TO.C,C1*%
X156279642Y-89955666D02*
X156327261Y-90003285D01*
X156374880Y-90146142D01*
X156374880Y-90241380D01*
X156327261Y-90384238D01*
X156232023Y-90479476D01*
X156136785Y-90527095D01*
X155946309Y-90574714D01*
X155803452Y-90574714D01*
X155612976Y-90527095D01*
X155517738Y-90479476D01*
X155422500Y-90384238D01*
X155374880Y-90241380D01*
X155374880Y-90146142D01*
X155422500Y-90003285D01*
X155470119Y-89955666D01*
X156374880Y-89003285D02*
X156374880Y-89574714D01*
X156374880Y-89289000D02*
X155374880Y-89289000D01*
X155517738Y-89384238D01*
X155612976Y-89479476D01*
X155660595Y-89574714D01*
%TO.C,C2*%
X152960642Y-93244666D02*
X153008261Y-93292285D01*
X153055880Y-93435142D01*
X153055880Y-93530380D01*
X153008261Y-93673238D01*
X152913023Y-93768476D01*
X152817785Y-93816095D01*
X152627309Y-93863714D01*
X152484452Y-93863714D01*
X152293976Y-93816095D01*
X152198738Y-93768476D01*
X152103500Y-93673238D01*
X152055880Y-93530380D01*
X152055880Y-93435142D01*
X152103500Y-93292285D01*
X152151119Y-93244666D01*
X152151119Y-92863714D02*
X152103500Y-92816095D01*
X152055880Y-92720857D01*
X152055880Y-92482761D01*
X152103500Y-92387523D01*
X152151119Y-92339904D01*
X152246357Y-92292285D01*
X152341595Y-92292285D01*
X152484452Y-92339904D01*
X153055880Y-92911333D01*
X153055880Y-92292285D01*
%TO.C,C3*%
X158692642Y-89955666D02*
X158740261Y-90003285D01*
X158787880Y-90146142D01*
X158787880Y-90241380D01*
X158740261Y-90384238D01*
X158645023Y-90479476D01*
X158549785Y-90527095D01*
X158359309Y-90574714D01*
X158216452Y-90574714D01*
X158025976Y-90527095D01*
X157930738Y-90479476D01*
X157835500Y-90384238D01*
X157787880Y-90241380D01*
X157787880Y-90146142D01*
X157835500Y-90003285D01*
X157883119Y-89955666D01*
X157787880Y-89622333D02*
X157787880Y-89003285D01*
X158168833Y-89336619D01*
X158168833Y-89193761D01*
X158216452Y-89098523D01*
X158264071Y-89050904D01*
X158359309Y-89003285D01*
X158597404Y-89003285D01*
X158692642Y-89050904D01*
X158740261Y-89098523D01*
X158787880Y-89193761D01*
X158787880Y-89479476D01*
X158740261Y-89574714D01*
X158692642Y-89622333D01*
%TO.C,C4*%
X161613642Y-93257666D02*
X161661261Y-93305285D01*
X161708880Y-93448142D01*
X161708880Y-93543380D01*
X161661261Y-93686238D01*
X161566023Y-93781476D01*
X161470785Y-93829095D01*
X161280309Y-93876714D01*
X161137452Y-93876714D01*
X160946976Y-93829095D01*
X160851738Y-93781476D01*
X160756500Y-93686238D01*
X160708880Y-93543380D01*
X160708880Y-93448142D01*
X160756500Y-93305285D01*
X160804119Y-93257666D01*
X161042214Y-92400523D02*
X161708880Y-92400523D01*
X160661261Y-92638619D02*
X161375547Y-92876714D01*
X161375547Y-92257666D01*
%TO.C,R3*%
X140388833Y-85542380D02*
X140055500Y-85066190D01*
X139817404Y-85542380D02*
X139817404Y-84542380D01*
X140198357Y-84542380D01*
X140293595Y-84590000D01*
X140341214Y-84637619D01*
X140388833Y-84732857D01*
X140388833Y-84875714D01*
X140341214Y-84970952D01*
X140293595Y-85018571D01*
X140198357Y-85066190D01*
X139817404Y-85066190D01*
X140722166Y-84542380D02*
X141341214Y-84542380D01*
X141007880Y-84923333D01*
X141150738Y-84923333D01*
X141245976Y-84970952D01*
X141293595Y-85018571D01*
X141341214Y-85113809D01*
X141341214Y-85351904D01*
X141293595Y-85447142D01*
X141245976Y-85494761D01*
X141150738Y-85542380D01*
X140865023Y-85542380D01*
X140769785Y-85494761D01*
X140722166Y-85447142D01*
%TO.C,R4*%
X140388833Y-87447380D02*
X140055500Y-86971190D01*
X139817404Y-87447380D02*
X139817404Y-86447380D01*
X140198357Y-86447380D01*
X140293595Y-86495000D01*
X140341214Y-86542619D01*
X140388833Y-86637857D01*
X140388833Y-86780714D01*
X140341214Y-86875952D01*
X140293595Y-86923571D01*
X140198357Y-86971190D01*
X139817404Y-86971190D01*
X141245976Y-86780714D02*
X141245976Y-87447380D01*
X141007880Y-86399761D02*
X140769785Y-87114047D01*
X141388833Y-87114047D01*
%TO.C,R5*%
X148627880Y-86692166D02*
X148151690Y-87025500D01*
X148627880Y-87263595D02*
X147627880Y-87263595D01*
X147627880Y-86882642D01*
X147675500Y-86787404D01*
X147723119Y-86739785D01*
X147818357Y-86692166D01*
X147961214Y-86692166D01*
X148056452Y-86739785D01*
X148104071Y-86787404D01*
X148151690Y-86882642D01*
X148151690Y-87263595D01*
X147627880Y-85787404D02*
X147627880Y-86263595D01*
X148104071Y-86311214D01*
X148056452Y-86263595D01*
X148008833Y-86168357D01*
X148008833Y-85930261D01*
X148056452Y-85835023D01*
X148104071Y-85787404D01*
X148199309Y-85739785D01*
X148437404Y-85739785D01*
X148532642Y-85787404D01*
X148580261Y-85835023D01*
X148627880Y-85930261D01*
X148627880Y-86168357D01*
X148580261Y-86263595D01*
X148532642Y-86311214D01*
%TO.C,R6*%
X148627880Y-90590666D02*
X148151690Y-90924000D01*
X148627880Y-91162095D02*
X147627880Y-91162095D01*
X147627880Y-90781142D01*
X147675500Y-90685904D01*
X147723119Y-90638285D01*
X147818357Y-90590666D01*
X147961214Y-90590666D01*
X148056452Y-90638285D01*
X148104071Y-90685904D01*
X148151690Y-90781142D01*
X148151690Y-91162095D01*
X147627880Y-89733523D02*
X147627880Y-89924000D01*
X147675500Y-90019238D01*
X147723119Y-90066857D01*
X147865976Y-90162095D01*
X148056452Y-90209714D01*
X148437404Y-90209714D01*
X148532642Y-90162095D01*
X148580261Y-90114476D01*
X148627880Y-90019238D01*
X148627880Y-89828761D01*
X148580261Y-89733523D01*
X148532642Y-89685904D01*
X148437404Y-89638285D01*
X148199309Y-89638285D01*
X148104071Y-89685904D01*
X148056452Y-89733523D01*
X148008833Y-89828761D01*
X148008833Y-90019238D01*
X148056452Y-90114476D01*
X148104071Y-90162095D01*
X148199309Y-90209714D01*
%TO.C,R7*%
X140515833Y-90622380D02*
X140182500Y-90146190D01*
X139944404Y-90622380D02*
X139944404Y-89622380D01*
X140325357Y-89622380D01*
X140420595Y-89670000D01*
X140468214Y-89717619D01*
X140515833Y-89812857D01*
X140515833Y-89955714D01*
X140468214Y-90050952D01*
X140420595Y-90098571D01*
X140325357Y-90146190D01*
X139944404Y-90146190D01*
X140849166Y-89622380D02*
X141515833Y-89622380D01*
X141087261Y-90622380D01*
%TO.C,R8*%
X140515833Y-92273380D02*
X140182500Y-91797190D01*
X139944404Y-92273380D02*
X139944404Y-91273380D01*
X140325357Y-91273380D01*
X140420595Y-91321000D01*
X140468214Y-91368619D01*
X140515833Y-91463857D01*
X140515833Y-91606714D01*
X140468214Y-91701952D01*
X140420595Y-91749571D01*
X140325357Y-91797190D01*
X139944404Y-91797190D01*
X141087261Y-91701952D02*
X140992023Y-91654333D01*
X140944404Y-91606714D01*
X140896785Y-91511476D01*
X140896785Y-91463857D01*
X140944404Y-91368619D01*
X140992023Y-91321000D01*
X141087261Y-91273380D01*
X141277738Y-91273380D01*
X141372976Y-91321000D01*
X141420595Y-91368619D01*
X141468214Y-91463857D01*
X141468214Y-91511476D01*
X141420595Y-91606714D01*
X141372976Y-91654333D01*
X141277738Y-91701952D01*
X141087261Y-91701952D01*
X140992023Y-91749571D01*
X140944404Y-91797190D01*
X140896785Y-91892428D01*
X140896785Y-92082904D01*
X140944404Y-92178142D01*
X140992023Y-92225761D01*
X141087261Y-92273380D01*
X141277738Y-92273380D01*
X141372976Y-92225761D01*
X141420595Y-92178142D01*
X141468214Y-92082904D01*
X141468214Y-91892428D01*
X141420595Y-91797190D01*
X141372976Y-91749571D01*
X141277738Y-91701952D01*
%TO.C,R9*%
X140515833Y-61920380D02*
X140182500Y-61444190D01*
X139944404Y-61920380D02*
X139944404Y-60920380D01*
X140325357Y-60920380D01*
X140420595Y-60968000D01*
X140468214Y-61015619D01*
X140515833Y-61110857D01*
X140515833Y-61253714D01*
X140468214Y-61348952D01*
X140420595Y-61396571D01*
X140325357Y-61444190D01*
X139944404Y-61444190D01*
X140992023Y-61920380D02*
X141182500Y-61920380D01*
X141277738Y-61872761D01*
X141325357Y-61825142D01*
X141420595Y-61682285D01*
X141468214Y-61491809D01*
X141468214Y-61110857D01*
X141420595Y-61015619D01*
X141372976Y-60968000D01*
X141277738Y-60920380D01*
X141087261Y-60920380D01*
X140992023Y-60968000D01*
X140944404Y-61015619D01*
X140896785Y-61110857D01*
X140896785Y-61348952D01*
X140944404Y-61444190D01*
X140992023Y-61491809D01*
X141087261Y-61539428D01*
X141277738Y-61539428D01*
X141372976Y-61491809D01*
X141420595Y-61444190D01*
X141468214Y-61348952D01*
%TO.C,R10*%
X139658642Y-63952380D02*
X139325309Y-63476190D01*
X139087214Y-63952380D02*
X139087214Y-62952380D01*
X139468166Y-62952380D01*
X139563404Y-63000000D01*
X139611023Y-63047619D01*
X139658642Y-63142857D01*
X139658642Y-63285714D01*
X139611023Y-63380952D01*
X139563404Y-63428571D01*
X139468166Y-63476190D01*
X139087214Y-63476190D01*
X140611023Y-63952380D02*
X140039595Y-63952380D01*
X140325309Y-63952380D02*
X140325309Y-62952380D01*
X140230071Y-63095238D01*
X140134833Y-63190476D01*
X140039595Y-63238095D01*
X141230071Y-62952380D02*
X141325309Y-62952380D01*
X141420547Y-63000000D01*
X141468166Y-63047619D01*
X141515785Y-63142857D01*
X141563404Y-63333333D01*
X141563404Y-63571428D01*
X141515785Y-63761904D01*
X141468166Y-63857142D01*
X141420547Y-63904761D01*
X141325309Y-63952380D01*
X141230071Y-63952380D01*
X141134833Y-63904761D01*
X141087214Y-63857142D01*
X141039595Y-63761904D01*
X140991976Y-63571428D01*
X140991976Y-63333333D01*
X141039595Y-63142857D01*
X141087214Y-63047619D01*
X141134833Y-63000000D01*
X141230071Y-62952380D01*
%TO.C,R11*%
X148500880Y-63507857D02*
X148024690Y-63841190D01*
X148500880Y-64079285D02*
X147500880Y-64079285D01*
X147500880Y-63698333D01*
X147548500Y-63603095D01*
X147596119Y-63555476D01*
X147691357Y-63507857D01*
X147834214Y-63507857D01*
X147929452Y-63555476D01*
X147977071Y-63603095D01*
X148024690Y-63698333D01*
X148024690Y-64079285D01*
X148500880Y-62555476D02*
X148500880Y-63126904D01*
X148500880Y-62841190D02*
X147500880Y-62841190D01*
X147643738Y-62936428D01*
X147738976Y-63031666D01*
X147786595Y-63126904D01*
X148500880Y-61603095D02*
X148500880Y-62174523D01*
X148500880Y-61888809D02*
X147500880Y-61888809D01*
X147643738Y-61984047D01*
X147738976Y-62079285D01*
X147786595Y-62174523D01*
%TO.C,R12*%
X148500880Y-67317857D02*
X148024690Y-67651190D01*
X148500880Y-67889285D02*
X147500880Y-67889285D01*
X147500880Y-67508333D01*
X147548500Y-67413095D01*
X147596119Y-67365476D01*
X147691357Y-67317857D01*
X147834214Y-67317857D01*
X147929452Y-67365476D01*
X147977071Y-67413095D01*
X148024690Y-67508333D01*
X148024690Y-67889285D01*
X148500880Y-66365476D02*
X148500880Y-66936904D01*
X148500880Y-66651190D02*
X147500880Y-66651190D01*
X147643738Y-66746428D01*
X147738976Y-66841666D01*
X147786595Y-66936904D01*
X147596119Y-65984523D02*
X147548500Y-65936904D01*
X147500880Y-65841666D01*
X147500880Y-65603571D01*
X147548500Y-65508333D01*
X147596119Y-65460714D01*
X147691357Y-65413095D01*
X147786595Y-65413095D01*
X147929452Y-65460714D01*
X148500880Y-66032142D01*
X148500880Y-65413095D01*
%TO.C,R13*%
X139658642Y-66873380D02*
X139325309Y-66397190D01*
X139087214Y-66873380D02*
X139087214Y-65873380D01*
X139468166Y-65873380D01*
X139563404Y-65921000D01*
X139611023Y-65968619D01*
X139658642Y-66063857D01*
X139658642Y-66206714D01*
X139611023Y-66301952D01*
X139563404Y-66349571D01*
X139468166Y-66397190D01*
X139087214Y-66397190D01*
X140611023Y-66873380D02*
X140039595Y-66873380D01*
X140325309Y-66873380D02*
X140325309Y-65873380D01*
X140230071Y-66016238D01*
X140134833Y-66111476D01*
X140039595Y-66159095D01*
X140944357Y-65873380D02*
X141563404Y-65873380D01*
X141230071Y-66254333D01*
X141372928Y-66254333D01*
X141468166Y-66301952D01*
X141515785Y-66349571D01*
X141563404Y-66444809D01*
X141563404Y-66682904D01*
X141515785Y-66778142D01*
X141468166Y-66825761D01*
X141372928Y-66873380D01*
X141087214Y-66873380D01*
X140991976Y-66825761D01*
X140944357Y-66778142D01*
%TO.C,R14*%
X139658642Y-68778380D02*
X139325309Y-68302190D01*
X139087214Y-68778380D02*
X139087214Y-67778380D01*
X139468166Y-67778380D01*
X139563404Y-67826000D01*
X139611023Y-67873619D01*
X139658642Y-67968857D01*
X139658642Y-68111714D01*
X139611023Y-68206952D01*
X139563404Y-68254571D01*
X139468166Y-68302190D01*
X139087214Y-68302190D01*
X140611023Y-68778380D02*
X140039595Y-68778380D01*
X140325309Y-68778380D02*
X140325309Y-67778380D01*
X140230071Y-67921238D01*
X140134833Y-68016476D01*
X140039595Y-68064095D01*
X141468166Y-68111714D02*
X141468166Y-68778380D01*
X141230071Y-67730761D02*
X140991976Y-68445047D01*
X141611023Y-68445047D01*
%TO.C,R15*%
X139531642Y-73731380D02*
X139198309Y-73255190D01*
X138960214Y-73731380D02*
X138960214Y-72731380D01*
X139341166Y-72731380D01*
X139436404Y-72779000D01*
X139484023Y-72826619D01*
X139531642Y-72921857D01*
X139531642Y-73064714D01*
X139484023Y-73159952D01*
X139436404Y-73207571D01*
X139341166Y-73255190D01*
X138960214Y-73255190D01*
X140484023Y-73731380D02*
X139912595Y-73731380D01*
X140198309Y-73731380D02*
X140198309Y-72731380D01*
X140103071Y-72874238D01*
X140007833Y-72969476D01*
X139912595Y-73017095D01*
X141388785Y-72731380D02*
X140912595Y-72731380D01*
X140864976Y-73207571D01*
X140912595Y-73159952D01*
X141007833Y-73112333D01*
X141245928Y-73112333D01*
X141341166Y-73159952D01*
X141388785Y-73207571D01*
X141436404Y-73302809D01*
X141436404Y-73540904D01*
X141388785Y-73636142D01*
X141341166Y-73683761D01*
X141245928Y-73731380D01*
X141007833Y-73731380D01*
X140912595Y-73683761D01*
X140864976Y-73636142D01*
%TO.C,R16*%
X139658642Y-75509380D02*
X139325309Y-75033190D01*
X139087214Y-75509380D02*
X139087214Y-74509380D01*
X139468166Y-74509380D01*
X139563404Y-74557000D01*
X139611023Y-74604619D01*
X139658642Y-74699857D01*
X139658642Y-74842714D01*
X139611023Y-74937952D01*
X139563404Y-74985571D01*
X139468166Y-75033190D01*
X139087214Y-75033190D01*
X140611023Y-75509380D02*
X140039595Y-75509380D01*
X140325309Y-75509380D02*
X140325309Y-74509380D01*
X140230071Y-74652238D01*
X140134833Y-74747476D01*
X140039595Y-74795095D01*
X141468166Y-74509380D02*
X141277690Y-74509380D01*
X141182452Y-74557000D01*
X141134833Y-74604619D01*
X141039595Y-74747476D01*
X140991976Y-74937952D01*
X140991976Y-75318904D01*
X141039595Y-75414142D01*
X141087214Y-75461761D01*
X141182452Y-75509380D01*
X141372928Y-75509380D01*
X141468166Y-75461761D01*
X141515785Y-75414142D01*
X141563404Y-75318904D01*
X141563404Y-75080809D01*
X141515785Y-74985571D01*
X141468166Y-74937952D01*
X141372928Y-74890333D01*
X141182452Y-74890333D01*
X141087214Y-74937952D01*
X141039595Y-74985571D01*
X140991976Y-75080809D01*
%TO.C,R17*%
X148500880Y-75191857D02*
X148024690Y-75525190D01*
X148500880Y-75763285D02*
X147500880Y-75763285D01*
X147500880Y-75382333D01*
X147548500Y-75287095D01*
X147596119Y-75239476D01*
X147691357Y-75191857D01*
X147834214Y-75191857D01*
X147929452Y-75239476D01*
X147977071Y-75287095D01*
X148024690Y-75382333D01*
X148024690Y-75763285D01*
X148500880Y-74239476D02*
X148500880Y-74810904D01*
X148500880Y-74525190D02*
X147500880Y-74525190D01*
X147643738Y-74620428D01*
X147738976Y-74715666D01*
X147786595Y-74810904D01*
X147500880Y-73906142D02*
X147500880Y-73239476D01*
X148500880Y-73668047D01*
%TO.C,R18*%
X148500880Y-79183856D02*
X148024690Y-79517189D01*
X148500880Y-79755284D02*
X147500880Y-79755284D01*
X147500880Y-79374332D01*
X147548500Y-79279094D01*
X147596119Y-79231475D01*
X147691357Y-79183856D01*
X147834214Y-79183856D01*
X147929452Y-79231475D01*
X147977071Y-79279094D01*
X148024690Y-79374332D01*
X148024690Y-79755284D01*
X148500880Y-78231475D02*
X148500880Y-78802903D01*
X148500880Y-78517189D02*
X147500880Y-78517189D01*
X147643738Y-78612427D01*
X147738976Y-78707665D01*
X147786595Y-78802903D01*
X147929452Y-77660046D02*
X147881833Y-77755284D01*
X147834214Y-77802903D01*
X147738976Y-77850522D01*
X147691357Y-77850522D01*
X147596119Y-77802903D01*
X147548500Y-77755284D01*
X147500880Y-77660046D01*
X147500880Y-77469570D01*
X147548500Y-77374332D01*
X147596119Y-77326713D01*
X147691357Y-77279094D01*
X147738976Y-77279094D01*
X147834214Y-77326713D01*
X147881833Y-77374332D01*
X147929452Y-77469570D01*
X147929452Y-77660046D01*
X147977071Y-77755284D01*
X148024690Y-77802903D01*
X148119928Y-77850522D01*
X148310404Y-77850522D01*
X148405642Y-77802903D01*
X148453261Y-77755284D01*
X148500880Y-77660046D01*
X148500880Y-77469570D01*
X148453261Y-77374332D01*
X148405642Y-77326713D01*
X148310404Y-77279094D01*
X148119928Y-77279094D01*
X148024690Y-77326713D01*
X147977071Y-77374332D01*
X147929452Y-77469570D01*
%TO.C,R19*%
X139531642Y-78557380D02*
X139198309Y-78081190D01*
X138960214Y-78557380D02*
X138960214Y-77557380D01*
X139341166Y-77557380D01*
X139436404Y-77605000D01*
X139484023Y-77652619D01*
X139531642Y-77747857D01*
X139531642Y-77890714D01*
X139484023Y-77985952D01*
X139436404Y-78033571D01*
X139341166Y-78081190D01*
X138960214Y-78081190D01*
X140484023Y-78557380D02*
X139912595Y-78557380D01*
X140198309Y-78557380D02*
X140198309Y-77557380D01*
X140103071Y-77700238D01*
X140007833Y-77795476D01*
X139912595Y-77843095D01*
X140960214Y-78557380D02*
X141150690Y-78557380D01*
X141245928Y-78509761D01*
X141293547Y-78462142D01*
X141388785Y-78319285D01*
X141436404Y-78128809D01*
X141436404Y-77747857D01*
X141388785Y-77652619D01*
X141341166Y-77605000D01*
X141245928Y-77557380D01*
X141055452Y-77557380D01*
X140960214Y-77605000D01*
X140912595Y-77652619D01*
X140864976Y-77747857D01*
X140864976Y-77985952D01*
X140912595Y-78081190D01*
X140960214Y-78128809D01*
X141055452Y-78176428D01*
X141245928Y-78176428D01*
X141341166Y-78128809D01*
X141388785Y-78081190D01*
X141436404Y-77985952D01*
%TO.C,R20*%
X139658642Y-80589380D02*
X139325309Y-80113190D01*
X139087214Y-80589380D02*
X139087214Y-79589380D01*
X139468166Y-79589380D01*
X139563404Y-79637000D01*
X139611023Y-79684619D01*
X139658642Y-79779857D01*
X139658642Y-79922714D01*
X139611023Y-80017952D01*
X139563404Y-80065571D01*
X139468166Y-80113190D01*
X139087214Y-80113190D01*
X140039595Y-79684619D02*
X140087214Y-79637000D01*
X140182452Y-79589380D01*
X140420547Y-79589380D01*
X140515785Y-79637000D01*
X140563404Y-79684619D01*
X140611023Y-79779857D01*
X140611023Y-79875095D01*
X140563404Y-80017952D01*
X139991976Y-80589380D01*
X140611023Y-80589380D01*
X141230071Y-79589380D02*
X141325309Y-79589380D01*
X141420547Y-79637000D01*
X141468166Y-79684619D01*
X141515785Y-79779857D01*
X141563404Y-79970333D01*
X141563404Y-80208428D01*
X141515785Y-80398904D01*
X141468166Y-80494142D01*
X141420547Y-80541761D01*
X141325309Y-80589380D01*
X141230071Y-80589380D01*
X141134833Y-80541761D01*
X141087214Y-80494142D01*
X141039595Y-80398904D01*
X140991976Y-80208428D01*
X140991976Y-79970333D01*
X141039595Y-79779857D01*
X141087214Y-79684619D01*
X141134833Y-79637000D01*
X141230071Y-79589380D01*
%TO.C,U1*%
X162033880Y-100329904D02*
X162843404Y-100329904D01*
X162938642Y-100282285D01*
X162986261Y-100234666D01*
X163033880Y-100139428D01*
X163033880Y-99948952D01*
X162986261Y-99853714D01*
X162938642Y-99806095D01*
X162843404Y-99758476D01*
X162033880Y-99758476D01*
X163033880Y-98758476D02*
X163033880Y-99329904D01*
X163033880Y-99044190D02*
X162033880Y-99044190D01*
X162176738Y-99139428D01*
X162271976Y-99234666D01*
X162319595Y-99329904D01*
%TO.C,J4*%
X138356880Y-61547333D02*
X139071166Y-61547333D01*
X139214023Y-61594952D01*
X139309261Y-61690190D01*
X139356880Y-61833047D01*
X139356880Y-61928285D01*
X138690214Y-60642571D02*
X139356880Y-60642571D01*
X138309261Y-60880666D02*
X139023547Y-61118761D01*
X139023547Y-60499714D01*
%TO.C,U2*%
X164010880Y-105917904D02*
X164820404Y-105917904D01*
X164915642Y-105870285D01*
X164963261Y-105822666D01*
X165010880Y-105727428D01*
X165010880Y-105536952D01*
X164963261Y-105441714D01*
X164915642Y-105394095D01*
X164820404Y-105346476D01*
X164010880Y-105346476D01*
X164106119Y-104917904D02*
X164058500Y-104870285D01*
X164010880Y-104775047D01*
X164010880Y-104536952D01*
X164058500Y-104441714D01*
X164106119Y-104394095D01*
X164201357Y-104346476D01*
X164296595Y-104346476D01*
X164439452Y-104394095D01*
X165010880Y-104965523D01*
X165010880Y-104346476D01*
X162988166Y-117664904D02*
X162988166Y-117188714D01*
X163273880Y-117760142D02*
X162273880Y-117426809D01*
X163273880Y-117093476D01*
X162607214Y-116760142D02*
X163273880Y-116760142D01*
X162702452Y-116760142D02*
X162654833Y-116712523D01*
X162607214Y-116617285D01*
X162607214Y-116474428D01*
X162654833Y-116379190D01*
X162750071Y-116331571D01*
X163273880Y-116331571D01*
X162607214Y-115998238D02*
X162607214Y-115617285D01*
X162273880Y-115855380D02*
X163131023Y-115855380D01*
X163226261Y-115807761D01*
X163273880Y-115712523D01*
X163273880Y-115617285D01*
X163226261Y-114903000D02*
X163273880Y-114998238D01*
X163273880Y-115188714D01*
X163226261Y-115283952D01*
X163131023Y-115331571D01*
X162750071Y-115331571D01*
X162654833Y-115283952D01*
X162607214Y-115188714D01*
X162607214Y-114998238D01*
X162654833Y-114903000D01*
X162750071Y-114855380D01*
X162845309Y-114855380D01*
X162940547Y-115331571D01*
X162607214Y-114426809D02*
X163273880Y-114426809D01*
X162702452Y-114426809D02*
X162654833Y-114379190D01*
X162607214Y-114283952D01*
X162607214Y-114141095D01*
X162654833Y-114045857D01*
X162750071Y-113998238D01*
X163273880Y-113998238D01*
X162607214Y-113522047D02*
X163273880Y-113522047D01*
X162702452Y-113522047D02*
X162654833Y-113474428D01*
X162607214Y-113379190D01*
X162607214Y-113236333D01*
X162654833Y-113141095D01*
X162750071Y-113093476D01*
X163273880Y-113093476D01*
X163273880Y-112188714D02*
X162750071Y-112188714D01*
X162654833Y-112236333D01*
X162607214Y-112331571D01*
X162607214Y-112522047D01*
X162654833Y-112617285D01*
X163226261Y-112188714D02*
X163273880Y-112283952D01*
X163273880Y-112522047D01*
X163226261Y-112617285D01*
X163131023Y-112664904D01*
X163035785Y-112664904D01*
X162940547Y-112617285D01*
X162892928Y-112522047D01*
X162892928Y-112283952D01*
X162845309Y-112188714D01*
X162988166Y-110998238D02*
X162988166Y-110522047D01*
X163273880Y-111093476D02*
X162273880Y-110760142D01*
X163273880Y-110426809D01*
X163273880Y-110093476D02*
X162607214Y-110093476D01*
X162797690Y-110093476D02*
X162702452Y-110045857D01*
X162654833Y-109998238D01*
X162607214Y-109903000D01*
X162607214Y-109807761D01*
X163226261Y-109093476D02*
X163273880Y-109188714D01*
X163273880Y-109379190D01*
X163226261Y-109474428D01*
X163131023Y-109522047D01*
X162750071Y-109522047D01*
X162654833Y-109474428D01*
X162607214Y-109379190D01*
X162607214Y-109188714D01*
X162654833Y-109093476D01*
X162750071Y-109045857D01*
X162845309Y-109045857D01*
X162940547Y-109522047D01*
X163273880Y-108188714D02*
X162750071Y-108188714D01*
X162654833Y-108236333D01*
X162607214Y-108331571D01*
X162607214Y-108522047D01*
X162654833Y-108617285D01*
X163226261Y-108188714D02*
X163273880Y-108283952D01*
X163273880Y-108522047D01*
X163226261Y-108617285D01*
X163131023Y-108664904D01*
X163035785Y-108664904D01*
X162940547Y-108617285D01*
X162892928Y-108522047D01*
X162892928Y-108283952D01*
X162845309Y-108188714D01*
%TO.C,J2*%
X145214880Y-110950333D02*
X145929166Y-110950333D01*
X146072023Y-110997952D01*
X146167261Y-111093190D01*
X146214880Y-111236047D01*
X146214880Y-111331285D01*
X145310119Y-110521761D02*
X145262500Y-110474142D01*
X145214880Y-110378904D01*
X145214880Y-110140809D01*
X145262500Y-110045571D01*
X145310119Y-109997952D01*
X145405357Y-109950333D01*
X145500595Y-109950333D01*
X145643452Y-109997952D01*
X146214880Y-110569380D01*
X146214880Y-109950333D01*
%TO.C,J5*%
X138356880Y-85042333D02*
X139071166Y-85042333D01*
X139214023Y-85089952D01*
X139309261Y-85185190D01*
X139356880Y-85328047D01*
X139356880Y-85423285D01*
X138356880Y-84089952D02*
X138356880Y-84566142D01*
X138833071Y-84613761D01*
X138785452Y-84566142D01*
X138737833Y-84470904D01*
X138737833Y-84232809D01*
X138785452Y-84137571D01*
X138833071Y-84089952D01*
X138928309Y-84042333D01*
X139166404Y-84042333D01*
X139261642Y-84089952D01*
X139309261Y-84137571D01*
X139356880Y-84232809D01*
X139356880Y-84470904D01*
X139309261Y-84566142D01*
X139261642Y-84613761D01*
%TO.C,D1*%
X161327880Y-129516095D02*
X160327880Y-129516095D01*
X160327880Y-129278000D01*
X160375500Y-129135142D01*
X160470738Y-129039904D01*
X160565976Y-128992285D01*
X160756452Y-128944666D01*
X160899309Y-128944666D01*
X161089785Y-128992285D01*
X161185023Y-129039904D01*
X161280261Y-129135142D01*
X161327880Y-129278000D01*
X161327880Y-129516095D01*
X161327880Y-127992285D02*
X161327880Y-128563714D01*
X161327880Y-128278000D02*
X160327880Y-128278000D01*
X160470738Y-128373238D01*
X160565976Y-128468476D01*
X160613595Y-128563714D01*
%TO.C,R2*%
X153607880Y-62523666D02*
X153131690Y-62857000D01*
X153607880Y-63095095D02*
X152607880Y-63095095D01*
X152607880Y-62714142D01*
X152655500Y-62618904D01*
X152703119Y-62571285D01*
X152798357Y-62523666D01*
X152941214Y-62523666D01*
X153036452Y-62571285D01*
X153084071Y-62618904D01*
X153131690Y-62714142D01*
X153131690Y-63095095D01*
X152703119Y-62142714D02*
X152655500Y-62095095D01*
X152607880Y-61999857D01*
X152607880Y-61761761D01*
X152655500Y-61666523D01*
X152703119Y-61618904D01*
X152798357Y-61571285D01*
X152893595Y-61571285D01*
X153036452Y-61618904D01*
X153607880Y-62190333D01*
X153607880Y-61571285D01*
%TO.C,J1*%
X154466880Y-72761333D02*
X155181166Y-72761333D01*
X155324023Y-72808952D01*
X155419261Y-72904190D01*
X155466880Y-73047047D01*
X155466880Y-73142285D01*
X155466880Y-71761333D02*
X155466880Y-72332761D01*
X155466880Y-72047047D02*
X154466880Y-72047047D01*
X154609738Y-72142285D01*
X154704976Y-72237523D01*
X154752595Y-72332761D01*
%TO.C,J3*%
X157533880Y-129111333D02*
X158248166Y-129111333D01*
X158391023Y-129158952D01*
X158486261Y-129254190D01*
X158533880Y-129397047D01*
X158533880Y-129492285D01*
X157533880Y-128730380D02*
X157533880Y-128111333D01*
X157914833Y-128444666D01*
X157914833Y-128301809D01*
X157962452Y-128206571D01*
X158010071Y-128158952D01*
X158105309Y-128111333D01*
X158343404Y-128111333D01*
X158438642Y-128158952D01*
X158486261Y-128206571D01*
X158533880Y-128301809D01*
X158533880Y-128587523D01*
X158486261Y-128682761D01*
X158438642Y-128730380D01*
%TO.C,C7*%
X155390642Y-103798666D02*
X155438261Y-103846285D01*
X155485880Y-103989142D01*
X155485880Y-104084380D01*
X155438261Y-104227238D01*
X155343023Y-104322476D01*
X155247785Y-104370095D01*
X155057309Y-104417714D01*
X154914452Y-104417714D01*
X154723976Y-104370095D01*
X154628738Y-104322476D01*
X154533500Y-104227238D01*
X154485880Y-104084380D01*
X154485880Y-103989142D01*
X154533500Y-103846285D01*
X154581119Y-103798666D01*
X154485880Y-103465333D02*
X154485880Y-102798666D01*
X155485880Y-103227238D01*
%TO.C,C6*%
X149421642Y-105322666D02*
X149469261Y-105370285D01*
X149516880Y-105513142D01*
X149516880Y-105608380D01*
X149469261Y-105751238D01*
X149374023Y-105846476D01*
X149278785Y-105894095D01*
X149088309Y-105941714D01*
X148945452Y-105941714D01*
X148754976Y-105894095D01*
X148659738Y-105846476D01*
X148564500Y-105751238D01*
X148516880Y-105608380D01*
X148516880Y-105513142D01*
X148564500Y-105370285D01*
X148612119Y-105322666D01*
X148516880Y-104465523D02*
X148516880Y-104656000D01*
X148564500Y-104751238D01*
X148612119Y-104798857D01*
X148754976Y-104894095D01*
X148945452Y-104941714D01*
X149326404Y-104941714D01*
X149421642Y-104894095D01*
X149469261Y-104846476D01*
X149516880Y-104751238D01*
X149516880Y-104560761D01*
X149469261Y-104465523D01*
X149421642Y-104417904D01*
X149326404Y-104370285D01*
X149088309Y-104370285D01*
X148993071Y-104417904D01*
X148945452Y-104465523D01*
X148897833Y-104560761D01*
X148897833Y-104751238D01*
X148945452Y-104846476D01*
X148993071Y-104894095D01*
X149088309Y-104941714D01*
%TO.C,R24*%
X160057880Y-122435857D02*
X159581690Y-122769190D01*
X160057880Y-123007285D02*
X159057880Y-123007285D01*
X159057880Y-122626333D01*
X159105500Y-122531095D01*
X159153119Y-122483476D01*
X159248357Y-122435857D01*
X159391214Y-122435857D01*
X159486452Y-122483476D01*
X159534071Y-122531095D01*
X159581690Y-122626333D01*
X159581690Y-123007285D01*
X159153119Y-122054904D02*
X159105500Y-122007285D01*
X159057880Y-121912047D01*
X159057880Y-121673952D01*
X159105500Y-121578714D01*
X159153119Y-121531095D01*
X159248357Y-121483476D01*
X159343595Y-121483476D01*
X159486452Y-121531095D01*
X160057880Y-122102523D01*
X160057880Y-121483476D01*
X159391214Y-120626333D02*
X160057880Y-120626333D01*
X159010261Y-120864428D02*
X159724547Y-121102523D01*
X159724547Y-120483476D01*
%TO.C,R23*%
X146087880Y-120022857D02*
X145611690Y-120356190D01*
X146087880Y-120594285D02*
X145087880Y-120594285D01*
X145087880Y-120213333D01*
X145135500Y-120118095D01*
X145183119Y-120070476D01*
X145278357Y-120022857D01*
X145421214Y-120022857D01*
X145516452Y-120070476D01*
X145564071Y-120118095D01*
X145611690Y-120213333D01*
X145611690Y-120594285D01*
X145183119Y-119641904D02*
X145135500Y-119594285D01*
X145087880Y-119499047D01*
X145087880Y-119260952D01*
X145135500Y-119165714D01*
X145183119Y-119118095D01*
X145278357Y-119070476D01*
X145373595Y-119070476D01*
X145516452Y-119118095D01*
X146087880Y-119689523D01*
X146087880Y-119070476D01*
X145087880Y-118737142D02*
X145087880Y-118118095D01*
X145468833Y-118451428D01*
X145468833Y-118308571D01*
X145516452Y-118213333D01*
X145564071Y-118165714D01*
X145659309Y-118118095D01*
X145897404Y-118118095D01*
X145992642Y-118165714D01*
X146040261Y-118213333D01*
X146087880Y-118308571D01*
X146087880Y-118594285D01*
X146040261Y-118689523D01*
X145992642Y-118737142D01*
%TO.C,J7*%
X145214880Y-124539333D02*
X145929166Y-124539333D01*
X146072023Y-124586952D01*
X146167261Y-124682190D01*
X146214880Y-124825047D01*
X146214880Y-124920285D01*
X145214880Y-124158380D02*
X145214880Y-123491714D01*
X146214880Y-123920285D01*
%TO.C,R22*%
X153961880Y-103893857D02*
X153485690Y-104227190D01*
X153961880Y-104465285D02*
X152961880Y-104465285D01*
X152961880Y-104084333D01*
X153009500Y-103989095D01*
X153057119Y-103941476D01*
X153152357Y-103893857D01*
X153295214Y-103893857D01*
X153390452Y-103941476D01*
X153438071Y-103989095D01*
X153485690Y-104084333D01*
X153485690Y-104465285D01*
X153057119Y-103512904D02*
X153009500Y-103465285D01*
X152961880Y-103370047D01*
X152961880Y-103131952D01*
X153009500Y-103036714D01*
X153057119Y-102989095D01*
X153152357Y-102941476D01*
X153247595Y-102941476D01*
X153390452Y-102989095D01*
X153961880Y-103560523D01*
X153961880Y-102941476D01*
X153057119Y-102560523D02*
X153009500Y-102512904D01*
X152961880Y-102417666D01*
X152961880Y-102179571D01*
X153009500Y-102084333D01*
X153057119Y-102036714D01*
X153152357Y-101989095D01*
X153247595Y-101989095D01*
X153390452Y-102036714D01*
X153961880Y-102608142D01*
X153961880Y-101989095D01*
%TO.C,R21*%
X161327880Y-126753857D02*
X160851690Y-127087190D01*
X161327880Y-127325285D02*
X160327880Y-127325285D01*
X160327880Y-126944333D01*
X160375500Y-126849095D01*
X160423119Y-126801476D01*
X160518357Y-126753857D01*
X160661214Y-126753857D01*
X160756452Y-126801476D01*
X160804071Y-126849095D01*
X160851690Y-126944333D01*
X160851690Y-127325285D01*
X160423119Y-126372904D02*
X160375500Y-126325285D01*
X160327880Y-126230047D01*
X160327880Y-125991952D01*
X160375500Y-125896714D01*
X160423119Y-125849095D01*
X160518357Y-125801476D01*
X160613595Y-125801476D01*
X160756452Y-125849095D01*
X161327880Y-126420523D01*
X161327880Y-125801476D01*
X161327880Y-124849095D02*
X161327880Y-125420523D01*
X161327880Y-125134809D02*
X160327880Y-125134809D01*
X160470738Y-125230047D01*
X160565976Y-125325285D01*
X160613595Y-125420523D01*
%TO.C,J6*%
X138483880Y-108537333D02*
X139198166Y-108537333D01*
X139341023Y-108584952D01*
X139436261Y-108680190D01*
X139483880Y-108823047D01*
X139483880Y-108918285D01*
X138483880Y-107632571D02*
X138483880Y-107823047D01*
X138531500Y-107918285D01*
X138579119Y-107965904D01*
X138721976Y-108061142D01*
X138912452Y-108108761D01*
X139293404Y-108108761D01*
X139388642Y-108061142D01*
X139436261Y-108013523D01*
X139483880Y-107918285D01*
X139483880Y-107727809D01*
X139436261Y-107632571D01*
X139388642Y-107584952D01*
X139293404Y-107537333D01*
X139055309Y-107537333D01*
X138960071Y-107584952D01*
X138912452Y-107632571D01*
X138864833Y-107727809D01*
X138864833Y-107918285D01*
X138912452Y-108013523D01*
X138960071Y-108061142D01*
X139055309Y-108108761D01*
%TO.C,C5*%
X159327642Y-105322666D02*
X159375261Y-105370285D01*
X159422880Y-105513142D01*
X159422880Y-105608380D01*
X159375261Y-105751238D01*
X159280023Y-105846476D01*
X159184785Y-105894095D01*
X158994309Y-105941714D01*
X158851452Y-105941714D01*
X158660976Y-105894095D01*
X158565738Y-105846476D01*
X158470500Y-105751238D01*
X158422880Y-105608380D01*
X158422880Y-105513142D01*
X158470500Y-105370285D01*
X158518119Y-105322666D01*
X158422880Y-104417904D02*
X158422880Y-104894095D01*
X158899071Y-104941714D01*
X158851452Y-104894095D01*
X158803833Y-104798857D01*
X158803833Y-104560761D01*
X158851452Y-104465523D01*
X158899071Y-104417904D01*
X158994309Y-104370285D01*
X159232404Y-104370285D01*
X159327642Y-104417904D01*
X159375261Y-104465523D01*
X159422880Y-104560761D01*
X159422880Y-104798857D01*
X159375261Y-104894095D01*
X159327642Y-104941714D01*
%TO.C,R1*%
X155893880Y-62523666D02*
X155417690Y-62857000D01*
X155893880Y-63095095D02*
X154893880Y-63095095D01*
X154893880Y-62714142D01*
X154941500Y-62618904D01*
X154989119Y-62571285D01*
X155084357Y-62523666D01*
X155227214Y-62523666D01*
X155322452Y-62571285D01*
X155370071Y-62618904D01*
X155417690Y-62714142D01*
X155417690Y-63095095D01*
X155893880Y-61571285D02*
X155893880Y-62142714D01*
X155893880Y-61857000D02*
X154893880Y-61857000D01*
X155036738Y-61952238D01*
X155131976Y-62047476D01*
X155179595Y-62142714D01*
D13*
%TO.C,C1*%
X155060500Y-93164252D02*
X155060500Y-92641748D01*
X156530500Y-93164252D02*
X156530500Y-92641748D01*
%TO.C,C2*%
X154123500Y-93185836D02*
X154123500Y-92970164D01*
X153403500Y-93185836D02*
X153403500Y-92970164D01*
%TO.C,C3*%
X157346500Y-93164252D02*
X157346500Y-92641748D01*
X158816500Y-93164252D02*
X158816500Y-92641748D01*
%TO.C,C4*%
X160346500Y-93185836D02*
X160346500Y-92970164D01*
X159626500Y-93185836D02*
X159626500Y-92970164D01*
%TO.C,R3*%
X143287436Y-85673000D02*
X143741564Y-85673000D01*
X143287436Y-84203000D02*
X143741564Y-84203000D01*
%TO.C,R4*%
X143741564Y-87673000D02*
X143287436Y-87673000D01*
X143741564Y-86203000D02*
X143287436Y-86203000D01*
%TO.C,R5*%
X147249500Y-86752564D02*
X147249500Y-86298436D01*
X145779500Y-86752564D02*
X145779500Y-86298436D01*
%TO.C,R6*%
X147249500Y-90577564D02*
X147249500Y-90123436D01*
X145779500Y-90577564D02*
X145779500Y-90123436D01*
%TO.C,R7*%
X143741564Y-89203000D02*
X143287436Y-89203000D01*
X143741564Y-90673000D02*
X143287436Y-90673000D01*
%TO.C,R8*%
X143741564Y-92673000D02*
X143287436Y-92673000D01*
X143741564Y-91203000D02*
X143287436Y-91203000D01*
%TO.C,R9*%
X143138437Y-62165499D02*
X143592565Y-62165499D01*
X143138437Y-60695499D02*
X143592565Y-60695499D01*
%TO.C,R10*%
X143592565Y-64165499D02*
X143138437Y-64165499D01*
X143592565Y-62695499D02*
X143138437Y-62695499D01*
%TO.C,R11*%
X147100501Y-63245063D02*
X147100501Y-62790935D01*
X145630501Y-63245063D02*
X145630501Y-62790935D01*
%TO.C,R12*%
X147100501Y-67070063D02*
X147100501Y-66615935D01*
X145630501Y-67070063D02*
X145630501Y-66615935D01*
%TO.C,R13*%
X143592565Y-65695499D02*
X143138437Y-65695499D01*
X143592565Y-67165499D02*
X143138437Y-67165499D01*
%TO.C,R14*%
X143592565Y-67695499D02*
X143138437Y-67695499D01*
X143592565Y-69165499D02*
X143138437Y-69165499D01*
%TO.C,R15*%
X143165437Y-73863499D02*
X143619565Y-73863499D01*
X143165437Y-72393499D02*
X143619565Y-72393499D01*
%TO.C,R16*%
X143619565Y-74393499D02*
X143165437Y-74393499D01*
X143619565Y-75863499D02*
X143165437Y-75863499D01*
%TO.C,R17*%
X145657501Y-74943063D02*
X145657501Y-74488935D01*
X147127501Y-74943063D02*
X147127501Y-74488935D01*
%TO.C,R18*%
X145657501Y-78768063D02*
X145657501Y-78313935D01*
X147127501Y-78768063D02*
X147127501Y-78313935D01*
%TO.C,R19*%
X143619565Y-77393499D02*
X143165437Y-77393499D01*
X143619565Y-78863499D02*
X143165437Y-78863499D01*
%TO.C,R20*%
X143619565Y-80863499D02*
X143165437Y-80863499D01*
X143619565Y-79393499D02*
X143165437Y-79393499D01*
%TO.C,U1*%
X154671500Y-97718000D02*
X154671500Y-101478000D01*
X161491500Y-101478000D02*
X160231500Y-101478000D01*
X161491500Y-95468000D02*
X161491500Y-101478000D01*
X154671500Y-101478000D02*
X155931500Y-101478000D01*
%TO.C,J4*%
X133304500Y-67578000D02*
X133651583Y-67578000D01*
X126834500Y-74938000D02*
X133304500Y-74938000D01*
X126834500Y-76938000D02*
X133304500Y-76938000D01*
X126834500Y-64938000D02*
X133304500Y-64938000D01*
X133304500Y-71578000D02*
X133651583Y-71578000D01*
X133304500Y-70298000D02*
X133651583Y-70298000D01*
X135377417Y-78298000D02*
X135651583Y-78298000D01*
X126834500Y-60878000D02*
X126834500Y-80998000D01*
X135377417Y-77578000D02*
X135651583Y-77578000D01*
X135377417Y-74298000D02*
X135651583Y-74298000D01*
X137449500Y-60878000D02*
X137449500Y-61938000D01*
X133304500Y-73578000D02*
X133651583Y-73578000D01*
X126834500Y-62481534D02*
X133304500Y-62481534D01*
X126834500Y-62595652D02*
X133304500Y-62595652D01*
X135377417Y-62298000D02*
X135579500Y-62298000D01*
X135377417Y-71578000D02*
X135651583Y-71578000D01*
X136514500Y-60878000D02*
X137449500Y-60878000D01*
X126834500Y-68938000D02*
X133304500Y-68938000D01*
X135377417Y-79578000D02*
X135651583Y-79578000D01*
X126834500Y-61910944D02*
X133304500Y-61910944D01*
X135377417Y-68298000D02*
X135651583Y-68298000D01*
X126834500Y-62823888D02*
X133304500Y-62823888D01*
X133304500Y-78298000D02*
X133651583Y-78298000D01*
X126834500Y-61112118D02*
X133304500Y-61112118D01*
X133304500Y-60878000D02*
X133304500Y-80998000D01*
X135377417Y-69578000D02*
X135651583Y-69578000D01*
X135377417Y-66298000D02*
X135651583Y-66298000D01*
X133304500Y-65578000D02*
X133651583Y-65578000D01*
X126834500Y-80998000D02*
X133304500Y-80998000D01*
X126834500Y-62253298D02*
X133304500Y-62253298D01*
X135377417Y-67578000D02*
X135651583Y-67578000D01*
X133304500Y-69578000D02*
X133651583Y-69578000D01*
X126834500Y-61796826D02*
X133304500Y-61796826D01*
X126834500Y-62938000D02*
X133304500Y-62938000D01*
X135377417Y-76298000D02*
X135651583Y-76298000D01*
X126834500Y-62025062D02*
X133304500Y-62025062D01*
X133304500Y-63578000D02*
X133651583Y-63578000D01*
X135377417Y-64298000D02*
X135651583Y-64298000D01*
X126834500Y-60878000D02*
X133304500Y-60878000D01*
X135377417Y-80298000D02*
X135651583Y-80298000D01*
X126834500Y-60998000D02*
X133304500Y-60998000D01*
X126834500Y-78938000D02*
X133304500Y-78938000D01*
X126834500Y-61340354D02*
X133304500Y-61340354D01*
X135377417Y-63578000D02*
X135651583Y-63578000D01*
X133304500Y-76298000D02*
X133651583Y-76298000D01*
X135377417Y-65578000D02*
X135651583Y-65578000D01*
X135377417Y-70298000D02*
X135651583Y-70298000D01*
X126834500Y-61682708D02*
X133304500Y-61682708D01*
X135377417Y-61578000D02*
X135579500Y-61578000D01*
X133304500Y-80298000D02*
X133651583Y-80298000D01*
X133304500Y-74298000D02*
X133651583Y-74298000D01*
X126834500Y-62367416D02*
X133304500Y-62367416D01*
X126834500Y-62139180D02*
X133304500Y-62139180D01*
X133304500Y-62298000D02*
X133651583Y-62298000D01*
X126834500Y-61454472D02*
X133304500Y-61454472D01*
X126834500Y-61226236D02*
X133304500Y-61226236D01*
X126834500Y-70938000D02*
X133304500Y-70938000D01*
X126834500Y-62709770D02*
X133304500Y-62709770D01*
X126834500Y-61568590D02*
X133304500Y-61568590D01*
X133304500Y-77578000D02*
X133651583Y-77578000D01*
X126834500Y-72938000D02*
X133304500Y-72938000D01*
X135377417Y-73578000D02*
X135651583Y-73578000D01*
X135377417Y-72298000D02*
X135651583Y-72298000D01*
X133304500Y-61578000D02*
X133651583Y-61578000D01*
X133304500Y-79578000D02*
X133651583Y-79578000D01*
X126834500Y-66938000D02*
X133304500Y-66938000D01*
X133304500Y-72298000D02*
X133651583Y-72298000D01*
X133304500Y-64298000D02*
X133651583Y-64298000D01*
X133304500Y-66298000D02*
X133651583Y-66298000D01*
X133304500Y-68298000D02*
X133651583Y-68298000D01*
X133304500Y-75578000D02*
X133651583Y-75578000D01*
X135377417Y-75578000D02*
X135651583Y-75578000D01*
%TO.C,REF\u002A\u002A*%
G36*
X151922635Y-79611673D02*
G01*
X152026368Y-79614410D01*
X152115741Y-79618669D01*
X152184326Y-79624445D01*
X152225697Y-79631733D01*
X152234310Y-79636105D01*
X152244633Y-79662236D01*
X152259392Y-79717607D01*
X152276852Y-79794893D01*
X152295280Y-79886770D01*
X152301241Y-79918842D01*
X152329566Y-80073476D01*
X152352376Y-80195625D01*
X152370580Y-80289327D01*
X152385083Y-80358616D01*
X152396792Y-80407529D01*
X152406615Y-80440103D01*
X152415456Y-80460372D01*
X152424224Y-80472374D01*
X152425957Y-80474053D01*
X152453871Y-80490816D01*
X152508195Y-80516386D01*
X152582277Y-80548212D01*
X152669465Y-80583740D01*
X152763108Y-80620417D01*
X152856552Y-80655689D01*
X152943147Y-80687004D01*
X153016240Y-80711807D01*
X153069178Y-80727546D01*
X153095311Y-80731668D01*
X153096226Y-80731324D01*
X153117586Y-80717359D01*
X153164584Y-80685678D01*
X153232327Y-80639609D01*
X153315923Y-80582482D01*
X153410482Y-80517627D01*
X153437354Y-80499157D01*
X153534775Y-80433301D01*
X153623663Y-80375350D01*
X153698912Y-80328462D01*
X153755420Y-80295793D01*
X153788081Y-80280500D01*
X153792093Y-80279759D01*
X153813184Y-80292608D01*
X153854964Y-80328112D01*
X153912945Y-80381707D01*
X153982635Y-80448829D01*
X154059545Y-80524913D01*
X154139183Y-80605396D01*
X154217061Y-80685713D01*
X154288686Y-80761301D01*
X154349570Y-80827595D01*
X154395221Y-80880031D01*
X154421150Y-80914045D01*
X154425383Y-80923455D01*
X154415412Y-80945357D01*
X154388520Y-80990200D01*
X154349236Y-81050679D01*
X154317617Y-81097211D01*
X154259598Y-81181525D01*
X154191284Y-81281374D01*
X154123079Y-81381527D01*
X154086575Y-81435373D01*
X153963300Y-81617629D01*
X154046020Y-81770619D01*
X154082259Y-81840318D01*
X154110426Y-81899586D01*
X154126491Y-81939689D01*
X154128726Y-81949897D01*
X154112222Y-81962171D01*
X154065582Y-81986387D01*
X153993109Y-82020737D01*
X153899106Y-82063412D01*
X153787874Y-82112606D01*
X153663715Y-82166510D01*
X153530932Y-82223316D01*
X153393827Y-82281218D01*
X153256702Y-82338407D01*
X153123858Y-82393076D01*
X152999598Y-82443416D01*
X152888225Y-82487620D01*
X152794039Y-82523881D01*
X152721344Y-82550391D01*
X152674441Y-82565342D01*
X152658333Y-82567746D01*
X152637786Y-82548689D01*
X152604433Y-82506964D01*
X152565202Y-82451294D01*
X152562099Y-82446622D01*
X152446923Y-82302736D01*
X152312553Y-82186717D01*
X152163284Y-82099570D01*
X152003413Y-82042301D01*
X151837237Y-82015914D01*
X151669052Y-82021415D01*
X151503155Y-82059810D01*
X151343842Y-82132105D01*
X151308987Y-82153374D01*
X151168237Y-82264004D01*
X151055214Y-82394698D01*
X150970503Y-82540936D01*
X150914694Y-82698192D01*
X150888374Y-82861943D01*
X150892130Y-83027667D01*
X150926550Y-83190838D01*
X150992223Y-83346935D01*
X151089735Y-83491433D01*
X151129313Y-83536131D01*
X151253203Y-83649888D01*
X151383624Y-83732782D01*
X151529815Y-83789644D01*
X151674588Y-83821313D01*
X151837360Y-83829131D01*
X152000940Y-83803062D01*
X152159798Y-83745755D01*
X152308406Y-83659856D01*
X152441235Y-83548014D01*
X152552756Y-83412877D01*
X152564511Y-83395117D01*
X152603008Y-83338850D01*
X152636363Y-83296077D01*
X152657660Y-83275628D01*
X152658333Y-83275331D01*
X152681371Y-83279721D01*
X152733657Y-83297124D01*
X152810890Y-83325732D01*
X152908768Y-83363735D01*
X153022991Y-83409326D01*
X153149258Y-83460697D01*
X153283267Y-83516038D01*
X153420718Y-83573542D01*
X153557308Y-83631399D01*
X153688737Y-83687802D01*
X153810705Y-83740942D01*
X153918909Y-83789010D01*
X154009049Y-83830199D01*
X154076823Y-83862699D01*
X154117930Y-83884703D01*
X154128726Y-83893564D01*
X154120319Y-83920640D01*
X154097772Y-83971303D01*
X154065113Y-84036817D01*
X154046020Y-84072841D01*
X153963300Y-84225832D01*
X154086575Y-84408088D01*
X154149728Y-84501125D01*
X154219227Y-84602985D01*
X154284665Y-84698438D01*
X154317617Y-84746250D01*
X154362773Y-84813495D01*
X154398557Y-84870436D01*
X154420438Y-84909646D01*
X154425063Y-84922381D01*
X154412585Y-84940917D01*
X154377752Y-84981941D01*
X154324178Y-85041475D01*
X154255483Y-85115542D01*
X154175281Y-85200165D01*
X154123786Y-85253685D01*
X154031786Y-85347319D01*
X153949499Y-85428241D01*
X153880445Y-85493177D01*
X153828144Y-85538858D01*
X153796116Y-85562011D01*
X153789616Y-85564232D01*
X153764894Y-85553924D01*
X153714905Y-85525439D01*
X153644712Y-85481937D01*
X153559375Y-85426577D01*
X153463956Y-85362520D01*
X153437354Y-85344303D01*
X153340667Y-85277927D01*
X153253617Y-85218378D01*
X153181095Y-85168984D01*
X153127993Y-85133075D01*
X153099203Y-85113981D01*
X153096226Y-85112136D01*
X153073282Y-85114895D01*
X153022836Y-85129538D01*
X152951541Y-85153513D01*
X152866047Y-85184266D01*
X152773007Y-85219244D01*
X152679074Y-85255893D01*
X152590899Y-85291661D01*
X152515134Y-85323994D01*
X152458431Y-85350338D01*
X152427443Y-85368142D01*
X152425957Y-85369407D01*
X152417101Y-85380294D01*
X152408343Y-85398682D01*
X152398777Y-85428606D01*
X152387496Y-85474103D01*
X152373593Y-85539209D01*
X152356163Y-85627961D01*
X152334298Y-85744393D01*
X152307091Y-85892542D01*
X152301241Y-85924618D01*
X152282874Y-86019686D01*
X152264905Y-86102565D01*
X152249069Y-86165930D01*
X152237100Y-86202458D01*
X152234310Y-86207356D01*
X152209572Y-86215427D01*
X152154290Y-86221987D01*
X152074889Y-86227033D01*
X151977796Y-86230559D01*
X151869438Y-86232561D01*
X151756240Y-86233036D01*
X151644628Y-86231977D01*
X151541029Y-86229382D01*
X151451868Y-86225246D01*
X151383572Y-86219563D01*
X151342566Y-86212331D01*
X151334174Y-86207971D01*
X151325708Y-86183698D01*
X151311935Y-86128426D01*
X151294050Y-86047662D01*
X151273248Y-85946912D01*
X151250723Y-85831683D01*
X151238918Y-85768902D01*
X151216651Y-85649787D01*
X151196479Y-85543565D01*
X151179415Y-85455427D01*
X151166469Y-85390566D01*
X151158655Y-85354174D01*
X151156922Y-85348184D01*
X151137390Y-85338061D01*
X151090343Y-85316662D01*
X151022503Y-85286839D01*
X150940591Y-85251445D01*
X150851328Y-85213332D01*
X150761435Y-85175353D01*
X150677635Y-85140360D01*
X150606647Y-85111206D01*
X150555194Y-85090743D01*
X150529997Y-85081823D01*
X150528896Y-85081657D01*
X150509019Y-85091769D01*
X150463277Y-85120117D01*
X150396217Y-85163723D01*
X150312384Y-85219606D01*
X150216326Y-85284787D01*
X150161150Y-85322679D01*
X150059981Y-85391725D01*
X149968130Y-85453050D01*
X149890244Y-85503663D01*
X149830969Y-85540571D01*
X149794951Y-85560782D01*
X149786877Y-85563701D01*
X149768084Y-85551153D01*
X149727957Y-85516463D01*
X149670993Y-85464063D01*
X149601685Y-85398384D01*
X149524531Y-85323856D01*
X149444025Y-85244913D01*
X149364663Y-85165983D01*
X149290940Y-85091500D01*
X149227352Y-85025894D01*
X149178394Y-84973596D01*
X149148561Y-84939039D01*
X149141442Y-84927478D01*
X149151453Y-84908654D01*
X149179578Y-84863631D01*
X149222954Y-84796787D01*
X149278718Y-84712499D01*
X149344006Y-84615144D01*
X149393746Y-84541707D01*
X149646051Y-84170667D01*
X149391055Y-83552095D01*
X148946431Y-83468275D01*
X148501807Y-83384454D01*
X148501807Y-82459006D01*
X148946431Y-82375186D01*
X149391055Y-82291365D01*
X149518553Y-81982080D01*
X149646051Y-81672794D01*
X149393746Y-81301754D01*
X149323496Y-81197843D01*
X149260772Y-81103913D01*
X149208438Y-81024348D01*
X149169357Y-80963530D01*
X149146393Y-80925843D01*
X149141442Y-80915579D01*
X149154176Y-80897090D01*
X149189382Y-80857580D01*
X149242562Y-80801478D01*
X149309218Y-80733213D01*
X149384854Y-80657214D01*
X149464972Y-80577908D01*
X149545074Y-80499725D01*
X149620664Y-80427093D01*
X149687245Y-80364441D01*
X149740318Y-80316197D01*
X149775387Y-80286790D01*
X149787123Y-80279759D01*
X149808760Y-80289877D01*
X149856162Y-80318241D01*
X149924693Y-80361871D01*
X150009715Y-80417782D01*
X150106593Y-80482994D01*
X150161850Y-80520781D01*
X150262748Y-80589657D01*
X150353799Y-80650860D01*
X150430470Y-80701422D01*
X150488228Y-80738372D01*
X150522543Y-80758742D01*
X150529754Y-80761803D01*
X150550248Y-80754864D01*
X150598013Y-80735949D01*
X150666332Y-80707913D01*
X150748489Y-80673609D01*
X150837770Y-80635891D01*
X150927458Y-80597613D01*
X151010838Y-80561630D01*
X151081194Y-80530794D01*
X151131810Y-80507961D01*
X151155971Y-80495983D01*
X151156922Y-80495276D01*
X151161536Y-80476469D01*
X151171828Y-80426382D01*
X151186787Y-80350207D01*
X151205401Y-80253135D01*
X151226659Y-80140357D01*
X151238918Y-80074558D01*
X151261862Y-79954050D01*
X151283695Y-79845203D01*
X151303222Y-79753524D01*
X151319248Y-79684519D01*
X151330579Y-79643696D01*
X151334174Y-79635489D01*
X151358506Y-79627452D01*
X151413459Y-79620967D01*
X151492608Y-79616030D01*
X151589526Y-79612636D01*
X151697787Y-79610782D01*
X151810965Y-79610462D01*
X151922635Y-79611673D01*
G37*
D14*
X151922635Y-79611673D02*
X152026368Y-79614410D01*
X152115741Y-79618669D01*
X152184326Y-79624445D01*
X152225697Y-79631733D01*
X152234310Y-79636105D01*
X152244633Y-79662236D01*
X152259392Y-79717607D01*
X152276852Y-79794893D01*
X152295280Y-79886770D01*
X152301241Y-79918842D01*
X152329566Y-80073476D01*
X152352376Y-80195625D01*
X152370580Y-80289327D01*
X152385083Y-80358616D01*
X152396792Y-80407529D01*
X152406615Y-80440103D01*
X152415456Y-80460372D01*
X152424224Y-80472374D01*
X152425957Y-80474053D01*
X152453871Y-80490816D01*
X152508195Y-80516386D01*
X152582277Y-80548212D01*
X152669465Y-80583740D01*
X152763108Y-80620417D01*
X152856552Y-80655689D01*
X152943147Y-80687004D01*
X153016240Y-80711807D01*
X153069178Y-80727546D01*
X153095311Y-80731668D01*
X153096226Y-80731324D01*
X153117586Y-80717359D01*
X153164584Y-80685678D01*
X153232327Y-80639609D01*
X153315923Y-80582482D01*
X153410482Y-80517627D01*
X153437354Y-80499157D01*
X153534775Y-80433301D01*
X153623663Y-80375350D01*
X153698912Y-80328462D01*
X153755420Y-80295793D01*
X153788081Y-80280500D01*
X153792093Y-80279759D01*
X153813184Y-80292608D01*
X153854964Y-80328112D01*
X153912945Y-80381707D01*
X153982635Y-80448829D01*
X154059545Y-80524913D01*
X154139183Y-80605396D01*
X154217061Y-80685713D01*
X154288686Y-80761301D01*
X154349570Y-80827595D01*
X154395221Y-80880031D01*
X154421150Y-80914045D01*
X154425383Y-80923455D01*
X154415412Y-80945357D01*
X154388520Y-80990200D01*
X154349236Y-81050679D01*
X154317617Y-81097211D01*
X154259598Y-81181525D01*
X154191284Y-81281374D01*
X154123079Y-81381527D01*
X154086575Y-81435373D01*
X153963300Y-81617629D01*
X154046020Y-81770619D01*
X154082259Y-81840318D01*
X154110426Y-81899586D01*
X154126491Y-81939689D01*
X154128726Y-81949897D01*
X154112222Y-81962171D01*
X154065582Y-81986387D01*
X153993109Y-82020737D01*
X153899106Y-82063412D01*
X153787874Y-82112606D01*
X153663715Y-82166510D01*
X153530932Y-82223316D01*
X153393827Y-82281218D01*
X153256702Y-82338407D01*
X153123858Y-82393076D01*
X152999598Y-82443416D01*
X152888225Y-82487620D01*
X152794039Y-82523881D01*
X152721344Y-82550391D01*
X152674441Y-82565342D01*
X152658333Y-82567746D01*
X152637786Y-82548689D01*
X152604433Y-82506964D01*
X152565202Y-82451294D01*
X152562099Y-82446622D01*
X152446923Y-82302736D01*
X152312553Y-82186717D01*
X152163284Y-82099570D01*
X152003413Y-82042301D01*
X151837237Y-82015914D01*
X151669052Y-82021415D01*
X151503155Y-82059810D01*
X151343842Y-82132105D01*
X151308987Y-82153374D01*
X151168237Y-82264004D01*
X151055214Y-82394698D01*
X150970503Y-82540936D01*
X150914694Y-82698192D01*
X150888374Y-82861943D01*
X150892130Y-83027667D01*
X150926550Y-83190838D01*
X150992223Y-83346935D01*
X151089735Y-83491433D01*
X151129313Y-83536131D01*
X151253203Y-83649888D01*
X151383624Y-83732782D01*
X151529815Y-83789644D01*
X151674588Y-83821313D01*
X151837360Y-83829131D01*
X152000940Y-83803062D01*
X152159798Y-83745755D01*
X152308406Y-83659856D01*
X152441235Y-83548014D01*
X152552756Y-83412877D01*
X152564511Y-83395117D01*
X152603008Y-83338850D01*
X152636363Y-83296077D01*
X152657660Y-83275628D01*
X152658333Y-83275331D01*
X152681371Y-83279721D01*
X152733657Y-83297124D01*
X152810890Y-83325732D01*
X152908768Y-83363735D01*
X153022991Y-83409326D01*
X153149258Y-83460697D01*
X153283267Y-83516038D01*
X153420718Y-83573542D01*
X153557308Y-83631399D01*
X153688737Y-83687802D01*
X153810705Y-83740942D01*
X153918909Y-83789010D01*
X154009049Y-83830199D01*
X154076823Y-83862699D01*
X154117930Y-83884703D01*
X154128726Y-83893564D01*
X154120319Y-83920640D01*
X154097772Y-83971303D01*
X154065113Y-84036817D01*
X154046020Y-84072841D01*
X153963300Y-84225832D01*
X154086575Y-84408088D01*
X154149728Y-84501125D01*
X154219227Y-84602985D01*
X154284665Y-84698438D01*
X154317617Y-84746250D01*
X154362773Y-84813495D01*
X154398557Y-84870436D01*
X154420438Y-84909646D01*
X154425063Y-84922381D01*
X154412585Y-84940917D01*
X154377752Y-84981941D01*
X154324178Y-85041475D01*
X154255483Y-85115542D01*
X154175281Y-85200165D01*
X154123786Y-85253685D01*
X154031786Y-85347319D01*
X153949499Y-85428241D01*
X153880445Y-85493177D01*
X153828144Y-85538858D01*
X153796116Y-85562011D01*
X153789616Y-85564232D01*
X153764894Y-85553924D01*
X153714905Y-85525439D01*
X153644712Y-85481937D01*
X153559375Y-85426577D01*
X153463956Y-85362520D01*
X153437354Y-85344303D01*
X153340667Y-85277927D01*
X153253617Y-85218378D01*
X153181095Y-85168984D01*
X153127993Y-85133075D01*
X153099203Y-85113981D01*
X153096226Y-85112136D01*
X153073282Y-85114895D01*
X153022836Y-85129538D01*
X152951541Y-85153513D01*
X152866047Y-85184266D01*
X152773007Y-85219244D01*
X152679074Y-85255893D01*
X152590899Y-85291661D01*
X152515134Y-85323994D01*
X152458431Y-85350338D01*
X152427443Y-85368142D01*
X152425957Y-85369407D01*
X152417101Y-85380294D01*
X152408343Y-85398682D01*
X152398777Y-85428606D01*
X152387496Y-85474103D01*
X152373593Y-85539209D01*
X152356163Y-85627961D01*
X152334298Y-85744393D01*
X152307091Y-85892542D01*
X152301241Y-85924618D01*
X152282874Y-86019686D01*
X152264905Y-86102565D01*
X152249069Y-86165930D01*
X152237100Y-86202458D01*
X152234310Y-86207356D01*
X152209572Y-86215427D01*
X152154290Y-86221987D01*
X152074889Y-86227033D01*
X151977796Y-86230559D01*
X151869438Y-86232561D01*
X151756240Y-86233036D01*
X151644628Y-86231977D01*
X151541029Y-86229382D01*
X151451868Y-86225246D01*
X151383572Y-86219563D01*
X151342566Y-86212331D01*
X151334174Y-86207971D01*
X151325708Y-86183698D01*
X151311935Y-86128426D01*
X151294050Y-86047662D01*
X151273248Y-85946912D01*
X151250723Y-85831683D01*
X151238918Y-85768902D01*
X151216651Y-85649787D01*
X151196479Y-85543565D01*
X151179415Y-85455427D01*
X151166469Y-85390566D01*
X151158655Y-85354174D01*
X151156922Y-85348184D01*
X151137390Y-85338061D01*
X151090343Y-85316662D01*
X151022503Y-85286839D01*
X150940591Y-85251445D01*
X150851328Y-85213332D01*
X150761435Y-85175353D01*
X150677635Y-85140360D01*
X150606647Y-85111206D01*
X150555194Y-85090743D01*
X150529997Y-85081823D01*
X150528896Y-85081657D01*
X150509019Y-85091769D01*
X150463277Y-85120117D01*
X150396217Y-85163723D01*
X150312384Y-85219606D01*
X150216326Y-85284787D01*
X150161150Y-85322679D01*
X150059981Y-85391725D01*
X149968130Y-85453050D01*
X149890244Y-85503663D01*
X149830969Y-85540571D01*
X149794951Y-85560782D01*
X149786877Y-85563701D01*
X149768084Y-85551153D01*
X149727957Y-85516463D01*
X149670993Y-85464063D01*
X149601685Y-85398384D01*
X149524531Y-85323856D01*
X149444025Y-85244913D01*
X149364663Y-85165983D01*
X149290940Y-85091500D01*
X149227352Y-85025894D01*
X149178394Y-84973596D01*
X149148561Y-84939039D01*
X149141442Y-84927478D01*
X149151453Y-84908654D01*
X149179578Y-84863631D01*
X149222954Y-84796787D01*
X149278718Y-84712499D01*
X149344006Y-84615144D01*
X149393746Y-84541707D01*
X149646051Y-84170667D01*
X149391055Y-83552095D01*
X148946431Y-83468275D01*
X148501807Y-83384454D01*
X148501807Y-82459006D01*
X148946431Y-82375186D01*
X149391055Y-82291365D01*
X149518553Y-81982080D01*
X149646051Y-81672794D01*
X149393746Y-81301754D01*
X149323496Y-81197843D01*
X149260772Y-81103913D01*
X149208438Y-81024348D01*
X149169357Y-80963530D01*
X149146393Y-80925843D01*
X149141442Y-80915579D01*
X149154176Y-80897090D01*
X149189382Y-80857580D01*
X149242562Y-80801478D01*
X149309218Y-80733213D01*
X149384854Y-80657214D01*
X149464972Y-80577908D01*
X149545074Y-80499725D01*
X149620664Y-80427093D01*
X149687245Y-80364441D01*
X149740318Y-80316197D01*
X149775387Y-80286790D01*
X149787123Y-80279759D01*
X149808760Y-80289877D01*
X149856162Y-80318241D01*
X149924693Y-80361871D01*
X150009715Y-80417782D01*
X150106593Y-80482994D01*
X150161850Y-80520781D01*
X150262748Y-80589657D01*
X150353799Y-80650860D01*
X150430470Y-80701422D01*
X150488228Y-80738372D01*
X150522543Y-80758742D01*
X150529754Y-80761803D01*
X150550248Y-80754864D01*
X150598013Y-80735949D01*
X150666332Y-80707913D01*
X150748489Y-80673609D01*
X150837770Y-80635891D01*
X150927458Y-80597613D01*
X151010838Y-80561630D01*
X151081194Y-80530794D01*
X151131810Y-80507961D01*
X151155971Y-80495983D01*
X151156922Y-80495276D01*
X151161536Y-80476469D01*
X151171828Y-80426382D01*
X151186787Y-80350207D01*
X151205401Y-80253135D01*
X151226659Y-80140357D01*
X151238918Y-80074558D01*
X151261862Y-79954050D01*
X151283695Y-79845203D01*
X151303222Y-79753524D01*
X151319248Y-79684519D01*
X151330579Y-79643696D01*
X151334174Y-79635489D01*
X151358506Y-79627452D01*
X151413459Y-79620967D01*
X151492608Y-79616030D01*
X151589526Y-79612636D01*
X151697787Y-79610782D01*
X151810965Y-79610462D01*
X151922635Y-79611673D01*
D13*
%TO.C,U2*%
X165171500Y-106303000D02*
X165171500Y-119503000D01*
X165371500Y-119703000D02*
X164721500Y-119703000D01*
X159871500Y-106303000D02*
X159871500Y-119503000D01*
X149271500Y-106103000D02*
X148471500Y-106103000D01*
X148471500Y-119703000D02*
X148471500Y-118903000D01*
X165371500Y-118953000D02*
X165371500Y-119703000D01*
X148671500Y-106303000D02*
X165171500Y-106303000D01*
X165371500Y-106978000D02*
X165371500Y-106128000D01*
X165171500Y-119503000D02*
X148671500Y-119503000D01*
X148471500Y-106103000D02*
X148471500Y-106903000D01*
X149271500Y-119703000D02*
X148471500Y-119703000D01*
X148671500Y-119503000D02*
X148671500Y-106303000D01*
%TO.C,J2*%
X144425500Y-105340000D02*
X141765500Y-105340000D01*
X141765500Y-113020000D02*
X141765500Y-105340000D01*
X144425500Y-115620000D02*
X143095500Y-115620000D01*
X144425500Y-113020000D02*
X141765500Y-113020000D01*
X144425500Y-113020000D02*
X144425500Y-105340000D01*
X144425500Y-114290000D02*
X144425500Y-115620000D01*
%TO.C,J5*%
X135377417Y-91053000D02*
X135651583Y-91053000D01*
X126834500Y-85500062D02*
X133304500Y-85500062D01*
X126834500Y-85614180D02*
X133304500Y-85614180D01*
X135377417Y-101773000D02*
X135651583Y-101773000D01*
X126834500Y-84473000D02*
X133304500Y-84473000D01*
X126834500Y-85157708D02*
X133304500Y-85157708D01*
X135377417Y-91773000D02*
X135651583Y-91773000D01*
X135377417Y-93053000D02*
X135651583Y-93053000D01*
X133304500Y-85773000D02*
X133651583Y-85773000D01*
X135377417Y-99053000D02*
X135651583Y-99053000D01*
X135377417Y-87053000D02*
X135651583Y-87053000D01*
X126834500Y-102413000D02*
X133304500Y-102413000D01*
X135377417Y-97773000D02*
X135651583Y-97773000D01*
X126834500Y-85728298D02*
X133304500Y-85728298D01*
X135377417Y-97053000D02*
X135651583Y-97053000D01*
X135377417Y-87773000D02*
X135651583Y-87773000D01*
X133304500Y-84353000D02*
X133304500Y-104473000D01*
X135377417Y-95053000D02*
X135651583Y-95053000D01*
X126834500Y-85842416D02*
X133304500Y-85842416D01*
X135377417Y-93773000D02*
X135651583Y-93773000D01*
X133304500Y-97773000D02*
X133651583Y-97773000D01*
X126834500Y-84929472D02*
X133304500Y-84929472D01*
X133304500Y-99773000D02*
X133651583Y-99773000D01*
X135377417Y-103773000D02*
X135651583Y-103773000D01*
X135377417Y-89053000D02*
X135651583Y-89053000D01*
X126834500Y-104473000D02*
X133304500Y-104473000D01*
X133304500Y-91053000D02*
X133651583Y-91053000D01*
X126834500Y-88413000D02*
X133304500Y-88413000D01*
X133304500Y-85053000D02*
X133651583Y-85053000D01*
X133304500Y-93053000D02*
X133651583Y-93053000D01*
X126834500Y-98413000D02*
X133304500Y-98413000D01*
X135377417Y-99773000D02*
X135651583Y-99773000D01*
X133304500Y-95053000D02*
X133651583Y-95053000D01*
X133304500Y-99053000D02*
X133651583Y-99053000D01*
X136514500Y-84353000D02*
X137449500Y-84353000D01*
X135377417Y-95773000D02*
X135651583Y-95773000D01*
X126834500Y-86184770D02*
X133304500Y-86184770D01*
X133304500Y-89053000D02*
X133651583Y-89053000D01*
X126834500Y-86413000D02*
X133304500Y-86413000D01*
X133304500Y-101053000D02*
X133651583Y-101053000D01*
X137449500Y-84353000D02*
X137449500Y-85413000D01*
X126834500Y-96413000D02*
X133304500Y-96413000D01*
X126834500Y-90413000D02*
X133304500Y-90413000D01*
X126834500Y-85043590D02*
X133304500Y-85043590D01*
X135377417Y-85053000D02*
X135579500Y-85053000D01*
X135377417Y-103053000D02*
X135651583Y-103053000D01*
X126834500Y-84353000D02*
X126834500Y-104473000D01*
X133304500Y-91773000D02*
X133651583Y-91773000D01*
X133304500Y-97053000D02*
X133651583Y-97053000D01*
X133304500Y-87773000D02*
X133651583Y-87773000D01*
X126834500Y-86298888D02*
X133304500Y-86298888D01*
X133304500Y-87053000D02*
X133651583Y-87053000D01*
X126834500Y-94413000D02*
X133304500Y-94413000D01*
X126834500Y-100413000D02*
X133304500Y-100413000D01*
X133304500Y-89773000D02*
X133651583Y-89773000D01*
X133304500Y-93773000D02*
X133651583Y-93773000D01*
X126834500Y-84353000D02*
X133304500Y-84353000D01*
X126834500Y-84587118D02*
X133304500Y-84587118D01*
X135377417Y-89773000D02*
X135651583Y-89773000D01*
X126834500Y-85385944D02*
X133304500Y-85385944D01*
X126834500Y-92413000D02*
X133304500Y-92413000D01*
X126834500Y-86070652D02*
X133304500Y-86070652D01*
X133304500Y-95773000D02*
X133651583Y-95773000D01*
X126834500Y-85271826D02*
X133304500Y-85271826D01*
X135377417Y-85773000D02*
X135579500Y-85773000D01*
X133304500Y-103773000D02*
X133651583Y-103773000D01*
X133304500Y-103053000D02*
X133651583Y-103053000D01*
X133304500Y-101773000D02*
X133651583Y-101773000D01*
X126834500Y-84701236D02*
X133304500Y-84701236D01*
X126834500Y-84815354D02*
X133304500Y-84815354D01*
X135377417Y-101053000D02*
X135651583Y-101053000D01*
X126834500Y-85956534D02*
X133304500Y-85956534D01*
D12*
%TO.C,D1*%
X162466500Y-127297000D02*
X162466500Y-129497000D01*
X163266500Y-129497000D02*
X162466500Y-129497000D01*
D15*
X163656500Y-128637000D02*
X163656500Y-128137000D01*
D12*
X165166500Y-127297000D02*
X165166500Y-129497000D01*
D15*
X163656500Y-128137000D02*
X164096500Y-128387000D01*
X164096500Y-128387000D02*
X163656500Y-128637000D01*
D13*
%TO.C,R2*%
X151605500Y-62203359D02*
X151605500Y-62510641D01*
X152365500Y-62203359D02*
X152365500Y-62510641D01*
%TO.C,J1*%
X162074500Y-61883000D02*
X162614500Y-61883000D01*
X162614500Y-60858000D02*
X163724500Y-60858000D01*
X163724500Y-83998000D02*
X162614500Y-83998000D01*
X163724500Y-60858000D02*
X163724500Y-83998000D01*
X158104500Y-64863000D02*
X158104500Y-64038000D01*
X162614500Y-82973000D02*
X162074500Y-82973000D01*
X162614500Y-61883000D02*
X162614500Y-60858000D01*
X158104500Y-79993000D02*
X156304500Y-79993000D01*
X158104500Y-80818000D02*
X158104500Y-79993000D01*
X162614500Y-83998000D02*
X162614500Y-82973000D01*
%TO.C,J3*%
X147158500Y-129376000D02*
X156558500Y-129376000D01*
X156558500Y-123576000D02*
X156558500Y-125576000D01*
X156558500Y-127476000D02*
X156558500Y-129376000D01*
X147158500Y-123576000D02*
X147158500Y-125576000D01*
X147158500Y-127476000D02*
X147158500Y-129376000D01*
%TO.C,C7*%
X155141336Y-104923000D02*
X154925664Y-104923000D01*
X155141336Y-105643000D02*
X154925664Y-105643000D01*
%TO.C,C6*%
X150861664Y-105643000D02*
X151077336Y-105643000D01*
X150861664Y-104923000D02*
X151077336Y-104923000D01*
%TO.C,R24*%
X157701500Y-121639359D02*
X157701500Y-121946641D01*
X158461500Y-121639359D02*
X158461500Y-121946641D01*
%TO.C,R23*%
X145255500Y-121768359D02*
X145255500Y-122075641D01*
X146015500Y-121768359D02*
X146015500Y-122075641D01*
%TO.C,J7*%
X141765500Y-119898000D02*
X141765500Y-118568000D01*
X141765500Y-121168000D02*
X144425500Y-121168000D01*
X144425500Y-121168000D02*
X144425500Y-128848000D01*
X141765500Y-121168000D02*
X141765500Y-128848000D01*
X141765500Y-118568000D02*
X143095500Y-118568000D01*
X141765500Y-128848000D02*
X144425500Y-128848000D01*
%TO.C,R22*%
X153155141Y-104903000D02*
X152847859Y-104903000D01*
X153155141Y-105663000D02*
X152847859Y-105663000D01*
%TO.C,R21*%
X163950141Y-125858000D02*
X163642859Y-125858000D01*
X163950141Y-126618000D02*
X163642859Y-126618000D01*
%TO.C,J6*%
X133304500Y-111248000D02*
X133651583Y-111248000D01*
X126834500Y-123888000D02*
X133304500Y-123888000D01*
X133304500Y-118528000D02*
X133651583Y-118528000D01*
X133304500Y-125248000D02*
X133651583Y-125248000D01*
X126834500Y-108975062D02*
X133304500Y-108975062D01*
X135377417Y-117248000D02*
X135651583Y-117248000D01*
X133304500Y-110528000D02*
X133651583Y-110528000D01*
X133304500Y-108528000D02*
X133651583Y-108528000D01*
X135377417Y-116528000D02*
X135651583Y-116528000D01*
X126834500Y-109431534D02*
X133304500Y-109431534D01*
X126834500Y-109773888D02*
X133304500Y-109773888D01*
X126834500Y-113888000D02*
X133304500Y-113888000D01*
X133304500Y-120528000D02*
X133651583Y-120528000D01*
X133304500Y-114528000D02*
X133651583Y-114528000D01*
X126834500Y-117888000D02*
X133304500Y-117888000D01*
X135377417Y-110528000D02*
X135651583Y-110528000D01*
X135377417Y-122528000D02*
X135651583Y-122528000D01*
X126834500Y-115888000D02*
X133304500Y-115888000D01*
X133304500Y-113248000D02*
X133651583Y-113248000D01*
X133304500Y-119248000D02*
X133651583Y-119248000D01*
X126834500Y-108404472D02*
X133304500Y-108404472D01*
X126834500Y-107828000D02*
X133304500Y-107828000D01*
X135377417Y-124528000D02*
X135651583Y-124528000D01*
X137449500Y-107828000D02*
X137449500Y-108888000D01*
X135377417Y-115248000D02*
X135651583Y-115248000D01*
X135377417Y-113248000D02*
X135651583Y-113248000D01*
X135377417Y-121248000D02*
X135651583Y-121248000D01*
X126834500Y-109203298D02*
X133304500Y-109203298D01*
X133304500Y-116528000D02*
X133651583Y-116528000D01*
X126834500Y-108290354D02*
X133304500Y-108290354D01*
X126834500Y-108632708D02*
X133304500Y-108632708D01*
X133304500Y-122528000D02*
X133651583Y-122528000D01*
X126834500Y-109089180D02*
X133304500Y-109089180D01*
X126834500Y-109317416D02*
X133304500Y-109317416D01*
X135377417Y-118528000D02*
X135651583Y-118528000D01*
X135377417Y-114528000D02*
X135651583Y-114528000D01*
X126834500Y-127948000D02*
X133304500Y-127948000D01*
X126834500Y-109545652D02*
X133304500Y-109545652D01*
X133304500Y-115248000D02*
X133651583Y-115248000D01*
X135377417Y-109248000D02*
X135579500Y-109248000D01*
X126834500Y-108518590D02*
X133304500Y-108518590D01*
X135377417Y-119248000D02*
X135651583Y-119248000D01*
X126834500Y-107948000D02*
X133304500Y-107948000D01*
X126834500Y-111888000D02*
X133304500Y-111888000D01*
X133304500Y-127248000D02*
X133651583Y-127248000D01*
X126834500Y-109659770D02*
X133304500Y-109659770D01*
X133304500Y-123248000D02*
X133651583Y-123248000D01*
X135377417Y-126528000D02*
X135651583Y-126528000D01*
X133304500Y-107828000D02*
X133304500Y-127948000D01*
X133304500Y-109248000D02*
X133651583Y-109248000D01*
X126834500Y-108746826D02*
X133304500Y-108746826D01*
X126834500Y-119888000D02*
X133304500Y-119888000D01*
X135377417Y-120528000D02*
X135651583Y-120528000D01*
X135377417Y-123248000D02*
X135651583Y-123248000D01*
X135377417Y-111248000D02*
X135651583Y-111248000D01*
X133304500Y-126528000D02*
X133651583Y-126528000D01*
X126834500Y-125888000D02*
X133304500Y-125888000D01*
X135377417Y-108528000D02*
X135579500Y-108528000D01*
X133304500Y-112528000D02*
X133651583Y-112528000D01*
X136514500Y-107828000D02*
X137449500Y-107828000D01*
X126834500Y-121888000D02*
X133304500Y-121888000D01*
X133304500Y-117248000D02*
X133651583Y-117248000D01*
X126834500Y-108176236D02*
X133304500Y-108176236D01*
X133304500Y-124528000D02*
X133651583Y-124528000D01*
X133304500Y-121248000D02*
X133651583Y-121248000D01*
X135377417Y-125248000D02*
X135651583Y-125248000D01*
X126834500Y-107828000D02*
X126834500Y-127948000D01*
X126834500Y-108860944D02*
X133304500Y-108860944D01*
X126834500Y-109888000D02*
X133304500Y-109888000D01*
X126834500Y-108062118D02*
X133304500Y-108062118D01*
X135377417Y-127248000D02*
X135651583Y-127248000D01*
X135377417Y-112528000D02*
X135651583Y-112528000D01*
%TO.C,C5*%
X156957664Y-104923000D02*
X157173336Y-104923000D01*
X156957664Y-105643000D02*
X157173336Y-105643000D01*
%TO.C,R1*%
X154651500Y-62203359D02*
X154651500Y-62510641D01*
X153891500Y-62203359D02*
X153891500Y-62510641D01*
%TD*%
M02*
