%TF.GenerationSoftware,KiCad,Pcbnew,6.0.4-6f826c9f35~116~ubuntu18.04.1*%
%TF.CreationDate,2022-06-27T14:44:09+00:00*%
%TF.ProjectId,zynq-mipi,7a796e71-2d6d-4697-9069-2e6b69636164,rev?*%
%TF.SameCoordinates,Original*%
%TF.FileFunction,Copper,L2,Bot*%
%TF.FilePolarity,Positive*%
%FSLAX46Y46*%
G04 Gerber Fmt 4.6, Leading zero omitted, Abs format (unit mm)*
G04 Created by KiCad (PCBNEW 6.0.4-6f826c9f35~116~ubuntu18.04.1) date 2022-06-27 14:44:09*
%MOMM*%
%LPD*%
G01*
G04 APERTURE LIST*
%TA.AperFunction,ComponentPad*%
%ADD10R,1.350000X1.350000*%
%TD*%
%TA.AperFunction,ComponentPad*%
%ADD11O,1.350000X1.350000*%
%TD*%
%TA.AperFunction,ComponentPad*%
%ADD12R,1.700000X1.700000*%
%TD*%
%TA.AperFunction,ComponentPad*%
%ADD13O,1.700000X1.700000*%
%TD*%
%TA.AperFunction,ComponentPad*%
%ADD14O,1.000000X1.600000*%
%TD*%
%TA.AperFunction,ComponentPad*%
%ADD15O,1.000000X2.100000*%
%TD*%
%TA.AperFunction,ViaPad*%
%ADD16C,0.600000*%
%TD*%
%TA.AperFunction,ViaPad*%
%ADD17C,0.609600*%
%TD*%
%TA.AperFunction,Conductor*%
%ADD18C,0.406400*%
%TD*%
%TA.AperFunction,Conductor*%
%ADD19C,0.304800*%
%TD*%
%TA.AperFunction,Conductor*%
%ADD20C,0.203200*%
%TD*%
G04 APERTURE END LIST*
D10*
%TO.P,J4,1,Pin_1*%
%TO.N,+5V*%
X136514500Y-61938000D03*
D11*
%TO.P,J4,2,Pin_2*%
X134514500Y-61938000D03*
%TO.P,J4,3,Pin_3*%
%TO.N,GNDD*%
X136514500Y-63938000D03*
%TO.P,J4,4,Pin_4*%
X134514500Y-63938000D03*
%TO.P,J4,5,Pin_5*%
%TO.N,/D0_LP_N*%
X136514500Y-65938000D03*
%TO.P,J4,6,Pin_6*%
%TO.N,/ebaz4205/DATA1-6*%
X134514500Y-65938000D03*
%TO.P,J4,7,Pin_7*%
%TO.N,/D0_LP_P*%
X136514500Y-67938000D03*
%TO.P,J4,8,Pin_8*%
%TO.N,/D0_HS_N*%
X134514500Y-67938000D03*
%TO.P,J4,9,Pin_9*%
%TO.N,/D0_HS_P*%
X136514500Y-69938000D03*
%TO.P,J4,10,Pin_10*%
%TO.N,unconnected-(J4-Pad10)*%
X134514500Y-69938000D03*
%TO.P,J4,11,Pin_11*%
%TO.N,/ebaz4205/DATA1-11*%
X136514500Y-71938000D03*
%TO.P,J4,12,Pin_12*%
%TO.N,GNDD*%
X134514500Y-71938000D03*
%TO.P,J4,13,Pin_13*%
%TO.N,/CLK_LP_N*%
X136514500Y-73938000D03*
%TO.P,J4,14,Pin_14*%
%TO.N,/ebaz4205/DATA1-14*%
X134514500Y-73938000D03*
%TO.P,J4,15,Pin_15*%
%TO.N,/ebaz4205/DATA1-15*%
X136514500Y-75938000D03*
%TO.P,J4,16,Pin_16*%
%TO.N,/CLK_LP_P*%
X134514500Y-75938000D03*
%TO.P,J4,17,Pin_17*%
%TO.N,/CLK_HS_N*%
X136514500Y-77938000D03*
%TO.P,J4,18,Pin_18*%
%TO.N,/ebaz4205/DATA1-18*%
X134514500Y-77938000D03*
%TO.P,J4,19,Pin_19*%
%TO.N,/CLK_HS_P*%
X136514500Y-79938000D03*
%TO.P,J4,20,Pin_20*%
%TO.N,/ebaz4205/DATA1-20*%
X134514500Y-79938000D03*
%TD*%
D12*
%TO.P,J2,1,Pin_1*%
%TO.N,+3V3*%
X143095500Y-114290000D03*
D13*
%TO.P,J2,2,Pin_2*%
%TO.N,/I2C_SCL*%
X143095500Y-111750000D03*
%TO.P,J2,3,Pin_3*%
%TO.N,/I2C_SDA*%
X143095500Y-109210000D03*
%TO.P,J2,4,Pin_4*%
%TO.N,GNDD*%
X143095500Y-106670000D03*
%TD*%
D10*
%TO.P,J5,1,Pin_1*%
%TO.N,+5V*%
X136514500Y-85413000D03*
D11*
%TO.P,J5,2,Pin_2*%
X134514500Y-85413000D03*
%TO.P,J5,3,Pin_3*%
%TO.N,GNDD*%
X136514500Y-87413000D03*
%TO.P,J5,4,Pin_4*%
X134514500Y-87413000D03*
%TO.P,J5,5,Pin_5*%
%TO.N,/D1_HS_N*%
X136514500Y-89413000D03*
%TO.P,J5,6,Pin_6*%
%TO.N,/ebaz4205/DATA2-6*%
X134514500Y-89413000D03*
%TO.P,J5,7,Pin_7*%
%TO.N,/D1_HS_P*%
X136514500Y-91413000D03*
%TO.P,J5,8,Pin_8*%
%TO.N,/ebaz4205/DATA2-8*%
X134514500Y-91413000D03*
%TO.P,J5,9,Pin_9*%
%TO.N,/D1_LP_N*%
X136514500Y-93413000D03*
%TO.P,J5,10,Pin_10*%
%TO.N,unconnected-(J5-Pad10)*%
X134514500Y-93413000D03*
%TO.P,J5,11,Pin_11*%
%TO.N,/ebaz4205/DATA2-11*%
X136514500Y-95413000D03*
%TO.P,J5,12,Pin_12*%
%TO.N,GNDD*%
X134514500Y-95413000D03*
%TO.P,J5,13,Pin_13*%
%TO.N,/D1_LP_P*%
X136514500Y-97413000D03*
%TO.P,J5,14,Pin_14*%
%TO.N,/ebaz4205/DATA2-14*%
X134514500Y-97413000D03*
%TO.P,J5,15,Pin_15*%
%TO.N,/ebaz4205/DATA2-15*%
X136514500Y-99413000D03*
%TO.P,J5,16,Pin_16*%
%TO.N,/ebaz4205/DATA2-16*%
X134514500Y-99413000D03*
%TO.P,J5,17,Pin_17*%
%TO.N,/ebaz4205/DATA2-17*%
X136514500Y-101413000D03*
%TO.P,J5,18,Pin_18*%
%TO.N,/I2C_SDA*%
X134514500Y-101413000D03*
%TO.P,J5,19,Pin_19*%
%TO.N,/ebaz4205/DATA2-19*%
X136514500Y-103413000D03*
%TO.P,J5,20,Pin_20*%
%TO.N,/I2C_SCL*%
X134514500Y-103413000D03*
%TD*%
D14*
%TO.P,J3,S1,SHIELD*%
%TO.N,GNDD*%
X147538500Y-126526000D03*
X156178500Y-126526000D03*
D15*
X147538500Y-122346000D03*
X156178500Y-122346000D03*
%TD*%
D12*
%TO.P,J7,1,Pin_1*%
%TO.N,/esp_hosted/RXD*%
X143095500Y-119898000D03*
D13*
%TO.P,J7,2,Pin_2*%
%TO.N,/esp_hosted/TXD*%
X143095500Y-122438000D03*
%TO.P,J7,3,Pin_3*%
%TO.N,/esp_hosted/BOOT*%
X143095500Y-124978000D03*
%TO.P,J7,4,Pin_4*%
%TO.N,GNDD*%
X143095500Y-127518000D03*
%TD*%
D10*
%TO.P,J6,1,Pin_1*%
%TO.N,+5V*%
X136514500Y-108888000D03*
D11*
%TO.P,J6,2,Pin_2*%
X134514500Y-108888000D03*
%TO.P,J6,3,Pin_3*%
%TO.N,GNDD*%
X136514500Y-110888000D03*
%TO.P,J6,4,Pin_4*%
X134514500Y-110888000D03*
%TO.P,J6,5,Pin_5*%
%TO.N,/SCLK*%
X136514500Y-112888000D03*
%TO.P,J6,6,Pin_6*%
%TO.N,/MISO*%
X134514500Y-112888000D03*
%TO.P,J6,7,Pin_7*%
%TO.N,/MOSI*%
X136514500Y-114888000D03*
%TO.P,J6,8,Pin_8*%
%TO.N,/CS*%
X134514500Y-114888000D03*
%TO.P,J6,9,Pin_9*%
%TO.N,/HANDSHAKE*%
X136514500Y-116888000D03*
%TO.P,J6,10,Pin_10*%
%TO.N,unconnected-(J6-Pad10)*%
X134514500Y-116888000D03*
%TO.P,J6,11,Pin_11*%
%TO.N,/DATAREADY*%
X136514500Y-118888000D03*
%TO.P,J6,12,Pin_12*%
%TO.N,GNDD*%
X134514500Y-118888000D03*
%TO.P,J6,13,Pin_13*%
%TO.N,/RST*%
X136514500Y-120888000D03*
%TO.P,J6,14,Pin_14*%
%TO.N,/ebaz4205/DATA3-14*%
X134514500Y-120888000D03*
%TO.P,J6,15,Pin_15*%
%TO.N,/ebaz4205/DATA3-15*%
X136514500Y-122888000D03*
%TO.P,J6,16,Pin_16*%
%TO.N,/ebaz4205/DATA3-16*%
X134514500Y-122888000D03*
%TO.P,J6,17,Pin_17*%
%TO.N,/ebaz4205/DATA3-17*%
X136514500Y-124888000D03*
%TO.P,J6,18,Pin_18*%
%TO.N,/ebaz4205/DATA3-18*%
X134514500Y-124888000D03*
%TO.P,J6,19,Pin_19*%
%TO.N,/ebaz4205/DATA3-19*%
X136514500Y-126888000D03*
%TO.P,J6,20,Pin_20*%
%TO.N,/ebaz4205/DATA3-20*%
X134514500Y-126888000D03*
%TD*%
D16*
%TO.N,GNDD*%
X145635500Y-69596000D03*
X145635500Y-70739000D03*
X146905500Y-69596000D03*
X146905500Y-70739000D03*
X148556500Y-70866000D03*
X149826500Y-72009000D03*
X148556500Y-72009000D03*
X149826500Y-70866000D03*
X149953500Y-74168000D03*
X149953500Y-75311000D03*
X148683500Y-75311000D03*
X148683500Y-74168000D03*
X150207500Y-79375000D03*
X150207500Y-78232000D03*
X148937500Y-79375000D03*
X148937500Y-78232000D03*
X147667500Y-81661000D03*
X146397500Y-81661000D03*
X147667500Y-82804000D03*
X146397500Y-82804000D03*
X144111500Y-82931000D03*
X142841500Y-81788000D03*
X144111500Y-81788000D03*
X142841500Y-82931000D03*
X140047500Y-82931000D03*
X141317500Y-81788000D03*
X140047500Y-81788000D03*
X141317500Y-82931000D03*
X142587500Y-71374000D03*
X143857500Y-71374000D03*
X142587500Y-70231000D03*
X143857500Y-70231000D03*
X140555500Y-72136000D03*
X139285500Y-72136000D03*
X139285500Y-70993000D03*
X140555500Y-70993000D03*
X150207500Y-62865000D03*
X148937500Y-61722000D03*
X150207500Y-61722000D03*
X148937500Y-62865000D03*
X153382500Y-73025000D03*
X154652500Y-73025000D03*
X159224500Y-74422000D03*
X159224500Y-73279000D03*
X160494500Y-74422000D03*
X160494500Y-73279000D03*
X160240500Y-76454000D03*
X160240500Y-77597000D03*
X158970500Y-77597000D03*
X158970500Y-76454000D03*
X155160500Y-81153000D03*
X153890500Y-81153000D03*
X153890500Y-80010000D03*
X155160500Y-80010000D03*
X151858500Y-82042000D03*
X153128500Y-83185000D03*
X151858500Y-83185000D03*
X153128500Y-82042000D03*
X151731500Y-84963000D03*
X153001500Y-86106000D03*
X153001500Y-84963000D03*
X151731500Y-86106000D03*
X151731500Y-88138000D03*
X151731500Y-89281000D03*
X150461500Y-89281000D03*
X150461500Y-88138000D03*
X154652500Y-86106000D03*
X155922500Y-84963000D03*
X154652500Y-84963000D03*
X155922500Y-86106000D03*
X157319500Y-84963000D03*
X157319500Y-86106000D03*
X158589500Y-86106000D03*
X158589500Y-84963000D03*
X148810500Y-92710000D03*
X150080500Y-91567000D03*
X150080500Y-92710000D03*
X148810500Y-91567000D03*
X150080500Y-94234000D03*
X150080500Y-95377000D03*
X148810500Y-95377000D03*
X148810500Y-94234000D03*
X145889500Y-94234000D03*
X147159500Y-95377000D03*
X147159500Y-94234000D03*
X145889500Y-95377000D03*
X143095500Y-95377000D03*
X144365500Y-94234000D03*
X144365500Y-95377000D03*
X143095500Y-94234000D03*
X144365500Y-99314000D03*
X144365500Y-98171000D03*
X143095500Y-98171000D03*
X143095500Y-99314000D03*
X146143500Y-99314000D03*
X146143500Y-98171000D03*
X147413500Y-98171000D03*
X147413500Y-99314000D03*
X143095500Y-103251000D03*
X143095500Y-102108000D03*
X144365500Y-102108000D03*
X144365500Y-103251000D03*
X147413500Y-102108000D03*
X146143500Y-103251000D03*
X147413500Y-103251000D03*
X146143500Y-102108000D03*
X149445500Y-102870000D03*
X150715500Y-101727000D03*
X149445500Y-101727000D03*
X150715500Y-102870000D03*
X153128500Y-99568000D03*
X151858500Y-100711000D03*
X153128500Y-100711000D03*
X151858500Y-99568000D03*
X156430500Y-89408000D03*
X155160500Y-90551000D03*
X155160500Y-89408000D03*
X156430500Y-90551000D03*
X157700500Y-90551000D03*
X157700500Y-89408000D03*
X158970500Y-90551000D03*
X158970500Y-89408000D03*
X160367500Y-90551000D03*
X161637500Y-90551000D03*
X161637500Y-89408000D03*
X160367500Y-89408000D03*
X164050500Y-96647000D03*
X162780500Y-96647000D03*
X162780500Y-95504000D03*
X164050500Y-95504000D03*
X164050500Y-98298000D03*
X162780500Y-99441000D03*
X162780500Y-98298000D03*
X164050500Y-99441000D03*
X162780500Y-101219000D03*
X164050500Y-102362000D03*
X162780500Y-102362000D03*
X164050500Y-101219000D03*
X160367500Y-67437000D03*
X159097500Y-67437000D03*
X160494500Y-72009000D03*
X159224500Y-72009000D03*
X159224500Y-70612000D03*
X160494500Y-70612000D03*
X155033500Y-67310000D03*
X155160500Y-70485000D03*
X153890500Y-70485000D03*
D17*
X139539500Y-110109000D03*
D16*
X148175500Y-67056000D03*
D17*
X139666500Y-125349000D03*
X153382500Y-124206000D03*
X160748500Y-125730000D03*
X164304500Y-127127000D03*
X160748500Y-123825000D03*
X139539500Y-106807000D03*
X151350500Y-117221000D03*
D16*
X149445500Y-67056000D03*
D17*
X150207500Y-124206000D03*
X151985500Y-108712000D03*
X150715500Y-114808000D03*
D16*
X148175500Y-68199000D03*
D17*
X139666500Y-122555000D03*
X147921500Y-117983000D03*
D16*
X149445500Y-68199000D03*
D17*
X155925600Y-105984049D03*
X150461500Y-109728000D03*
X155414500Y-123571000D03*
D16*
%TO.N,+5V*%
X138523500Y-85979000D03*
X153509500Y-96520000D03*
D17*
%TO.N,+3V3*%
X142841500Y-116586000D03*
X155287500Y-102616000D03*
D16*
%TO.N,/D1_LP_P*%
X140301500Y-84963000D03*
X139539500Y-93980000D03*
%TO.N,/D0_LP_N*%
X141063500Y-68199000D03*
%TO.N,/CLK_LP_N*%
X141063500Y-80137000D03*
D17*
%TO.N,/RST*%
X152430000Y-104076500D03*
%TO.N,/CS*%
X148048500Y-111379000D03*
%TO.N,/HANDSHAKE*%
X154271500Y-106045000D03*
%TO.N,/DATAREADY*%
X150461500Y-112903000D03*
%TO.N,Net-(R21-Pad2)*%
X157827500Y-120015000D03*
X156049500Y-116967000D03*
%TO.N,/esp_hosted/RXD*%
X154017500Y-117602000D03*
%TO.N,/esp_hosted/TXD*%
X155033500Y-117602000D03*
%TD*%
D18*
%TO.N,+5V*%
X138523500Y-85979000D02*
X138883899Y-86339399D01*
X138396500Y-96139000D02*
X139412500Y-97155000D01*
X138396500Y-93853000D02*
X138396500Y-96012000D01*
X139412500Y-97155000D02*
X139412500Y-105990000D01*
X152874500Y-97155000D02*
X153509500Y-96520000D01*
X138396500Y-96012000D02*
X138396500Y-96139000D01*
X139412500Y-97155000D02*
X152874500Y-97155000D01*
X136514500Y-108888000D02*
X134514500Y-108888000D01*
X139412500Y-105990000D02*
X136514500Y-108888000D01*
X138883899Y-86339399D02*
X138883899Y-93365601D01*
X138883899Y-93365601D02*
X138396500Y-93853000D01*
%TO.N,+3V3*%
X152747500Y-102616000D02*
X155287500Y-102616000D01*
X142841500Y-114544000D02*
X143095500Y-114290000D01*
X152620500Y-102743000D02*
X152747500Y-102616000D01*
X144300611Y-113084889D02*
X144300611Y-111062889D01*
X143095500Y-114290000D02*
X144300611Y-113084889D01*
X144300611Y-111062889D02*
X152620500Y-102743000D01*
X142841500Y-116586000D02*
X142841500Y-114544000D01*
D19*
%TO.N,/D1_LP_P*%
X139539500Y-93980000D02*
X139539500Y-85725000D01*
X139539500Y-85725000D02*
X140301500Y-84963000D01*
%TO.N,/D0_LP_N*%
X140936500Y-68199000D02*
X141063500Y-68199000D01*
X136514500Y-65938000D02*
X138675500Y-65938000D01*
X138675500Y-65938000D02*
X140936500Y-68199000D01*
%TO.N,/CLK_LP_N*%
X136514500Y-73938000D02*
X137912500Y-73938000D01*
X139920500Y-75946000D02*
X139920500Y-78994000D01*
X137912500Y-73938000D02*
X139920500Y-75946000D01*
X139920500Y-78994000D02*
X141063500Y-80137000D01*
D20*
%TO.N,/RST*%
X158081500Y-110617000D02*
X158081500Y-109065428D01*
X158081500Y-114808000D02*
X158081500Y-110617000D01*
X138608011Y-118794489D02*
X152035439Y-118794489D01*
X154497928Y-116332000D02*
X156557500Y-116332000D01*
X152493500Y-104140000D02*
X152430000Y-104076500D01*
X156557500Y-116332000D02*
X158081500Y-114808000D01*
X152035439Y-118794489D02*
X154497928Y-116332000D01*
X158081500Y-109065428D02*
X153156072Y-104140000D01*
X153001500Y-104140000D02*
X152493500Y-104140000D01*
X136514500Y-120888000D02*
X138608011Y-118794489D01*
X153156072Y-104140000D02*
X153001500Y-104140000D01*
%TO.N,/CS*%
X135585989Y-115959489D02*
X137109109Y-115959489D01*
X134514500Y-114888000D02*
X135585989Y-115959489D01*
X148048500Y-113797784D02*
X148048500Y-111379000D01*
X137109109Y-115959489D02*
X138523500Y-117373880D01*
X144472404Y-117373880D02*
X148048500Y-113797784D01*
X138523500Y-117373880D02*
X144472404Y-117373880D01*
%TO.N,/HANDSHAKE*%
X154271500Y-108077000D02*
X154271500Y-106045000D01*
X136514500Y-116888000D02*
X137355500Y-117729000D01*
X144619500Y-117729000D02*
X154271500Y-108077000D01*
X137355500Y-117729000D02*
X144619500Y-117729000D01*
%TO.N,/DATAREADY*%
X137189500Y-118213000D02*
X145151500Y-118213000D01*
X145151500Y-118213000D02*
X150461500Y-112903000D01*
X136514500Y-118888000D02*
X137189500Y-118213000D01*
%TO.N,Net-(R21-Pad2)*%
X156049500Y-118237000D02*
X156049500Y-116967000D01*
X157827500Y-120015000D02*
X156049500Y-118237000D01*
%TO.N,/esp_hosted/RXD*%
X154017500Y-117856000D02*
X154017500Y-117602000D01*
X151975500Y-119898000D02*
X154017500Y-117856000D01*
X143095500Y-119898000D02*
X151975500Y-119898000D01*
%TO.N,/esp_hosted/TXD*%
X151593020Y-121042480D02*
X155033500Y-117602000D01*
X144491020Y-121042480D02*
X151593020Y-121042480D01*
X143095500Y-122438000D02*
X144491020Y-121042480D01*
%TD*%
%TA.AperFunction,Conductor*%
%TO.N,GNDD*%
G36*
X164948121Y-59966502D02*
G01*
X164994614Y-60020158D01*
X165006000Y-60072500D01*
X165006000Y-105410500D01*
X164985998Y-105478621D01*
X164932342Y-105525114D01*
X164880000Y-105536500D01*
X159868123Y-105536500D01*
X159867353Y-105536498D01*
X159866537Y-105536493D01*
X159789779Y-105536024D01*
X159767418Y-105542415D01*
X159761347Y-105544150D01*
X159744585Y-105547728D01*
X159715313Y-105551920D01*
X159707145Y-105555634D01*
X159707144Y-105555634D01*
X159691938Y-105562548D01*
X159674414Y-105568996D01*
X159649729Y-105576051D01*
X159642135Y-105580843D01*
X159642132Y-105580844D01*
X159624720Y-105591830D01*
X159609637Y-105599969D01*
X159582718Y-105612208D01*
X159575916Y-105618069D01*
X159563265Y-105628970D01*
X159548261Y-105640073D01*
X159526542Y-105653776D01*
X159520603Y-105660501D01*
X159520599Y-105660504D01*
X159506968Y-105675938D01*
X159494776Y-105687982D01*
X159479173Y-105701427D01*
X159479171Y-105701430D01*
X159472373Y-105707287D01*
X159467493Y-105714816D01*
X159467492Y-105714817D01*
X159458406Y-105728835D01*
X159447115Y-105743709D01*
X159436069Y-105756217D01*
X159430122Y-105762951D01*
X159417558Y-105789711D01*
X159409237Y-105804691D01*
X159398029Y-105821983D01*
X159398027Y-105821988D01*
X159393148Y-105829515D01*
X159390578Y-105838108D01*
X159390576Y-105838113D01*
X159385789Y-105854120D01*
X159379128Y-105871564D01*
X159368219Y-105894800D01*
X159366838Y-105903667D01*
X159366838Y-105903668D01*
X159363670Y-105924015D01*
X159359887Y-105940732D01*
X159353985Y-105960466D01*
X159353984Y-105960472D01*
X159351414Y-105969066D01*
X159351359Y-105978037D01*
X159351359Y-105978038D01*
X159351204Y-106003497D01*
X159351171Y-106004289D01*
X159351000Y-106005386D01*
X159351000Y-106036377D01*
X159350998Y-106037147D01*
X159350524Y-106114721D01*
X159350908Y-106116065D01*
X159351000Y-106117410D01*
X159351000Y-119752377D01*
X159350998Y-119753147D01*
X159350524Y-119830721D01*
X159352991Y-119839352D01*
X159358650Y-119859153D01*
X159362228Y-119875915D01*
X159366420Y-119905187D01*
X159370134Y-119913355D01*
X159370134Y-119913356D01*
X159377048Y-119928562D01*
X159383496Y-119946086D01*
X159390551Y-119970771D01*
X159395343Y-119978365D01*
X159395344Y-119978368D01*
X159406330Y-119995780D01*
X159414469Y-120010863D01*
X159426708Y-120037782D01*
X159432569Y-120044584D01*
X159443470Y-120057235D01*
X159454573Y-120072239D01*
X159468276Y-120093958D01*
X159475001Y-120099897D01*
X159475004Y-120099901D01*
X159490438Y-120113532D01*
X159502482Y-120125724D01*
X159515927Y-120141327D01*
X159515930Y-120141329D01*
X159521787Y-120148127D01*
X159529316Y-120153007D01*
X159529317Y-120153008D01*
X159543335Y-120162094D01*
X159558209Y-120173385D01*
X159570717Y-120184431D01*
X159577451Y-120190378D01*
X159604211Y-120202942D01*
X159619191Y-120211263D01*
X159636483Y-120222471D01*
X159636488Y-120222473D01*
X159644015Y-120227352D01*
X159652608Y-120229922D01*
X159652613Y-120229924D01*
X159668620Y-120234711D01*
X159686064Y-120241372D01*
X159701176Y-120248467D01*
X159701178Y-120248468D01*
X159709300Y-120252281D01*
X159718167Y-120253662D01*
X159718168Y-120253662D01*
X159727810Y-120255163D01*
X159738517Y-120256830D01*
X159755232Y-120260613D01*
X159774966Y-120266515D01*
X159774972Y-120266516D01*
X159783566Y-120269086D01*
X159792537Y-120269141D01*
X159792538Y-120269141D01*
X159802597Y-120269202D01*
X159818006Y-120269296D01*
X159818789Y-120269329D01*
X159819886Y-120269500D01*
X159850877Y-120269500D01*
X159851647Y-120269502D01*
X159925285Y-120269952D01*
X159925286Y-120269952D01*
X159929221Y-120269976D01*
X159930565Y-120269592D01*
X159931910Y-120269500D01*
X164880000Y-120269500D01*
X164948121Y-120289502D01*
X164994614Y-120343158D01*
X165006000Y-120395500D01*
X165006000Y-129303500D01*
X164985998Y-129371621D01*
X164932342Y-129418114D01*
X164880000Y-129429500D01*
X133149000Y-129429500D01*
X133080879Y-129409498D01*
X133034386Y-129355842D01*
X133023000Y-129303500D01*
X133023000Y-126856887D01*
X133326337Y-126856887D01*
X133340563Y-127073933D01*
X133341984Y-127079529D01*
X133341985Y-127079534D01*
X133374123Y-127206076D01*
X133394105Y-127284753D01*
X133485168Y-127482285D01*
X133610704Y-127659914D01*
X133766509Y-127811692D01*
X133947363Y-127932536D01*
X133952671Y-127934817D01*
X133952672Y-127934817D01*
X134141909Y-128016119D01*
X134141912Y-128016120D01*
X134147212Y-128018397D01*
X134152842Y-128019671D01*
X134250964Y-128041874D01*
X134359360Y-128066402D01*
X134365131Y-128066629D01*
X134365133Y-128066629D01*
X134438120Y-128069496D01*
X134576705Y-128074941D01*
X134791966Y-128043730D01*
X134797430Y-128041875D01*
X134797435Y-128041874D01*
X134992463Y-127975671D01*
X134992468Y-127975669D01*
X134997935Y-127973813D01*
X135187713Y-127867532D01*
X135354946Y-127728446D01*
X135414752Y-127656537D01*
X135473689Y-127616953D01*
X135544671Y-127615517D01*
X135607413Y-127655258D01*
X135610704Y-127659914D01*
X135614846Y-127663949D01*
X135614848Y-127663951D01*
X135681054Y-127728446D01*
X135766509Y-127811692D01*
X135947363Y-127932536D01*
X135952671Y-127934817D01*
X135952672Y-127934817D01*
X136141909Y-128016119D01*
X136141912Y-128016120D01*
X136147212Y-128018397D01*
X136152842Y-128019671D01*
X136250964Y-128041874D01*
X136359360Y-128066402D01*
X136365131Y-128066629D01*
X136365133Y-128066629D01*
X136438120Y-128069496D01*
X136576705Y-128074941D01*
X136791966Y-128043730D01*
X136797430Y-128041875D01*
X136797435Y-128041874D01*
X136992463Y-127975671D01*
X136992468Y-127975669D01*
X136997935Y-127973813D01*
X137187713Y-127867532D01*
X137285786Y-127785966D01*
X141763757Y-127785966D01*
X141794065Y-127920446D01*
X141797145Y-127930275D01*
X141877270Y-128127603D01*
X141881913Y-128136794D01*
X141993194Y-128318388D01*
X141999277Y-128326699D01*
X142138713Y-128487667D01*
X142146080Y-128494883D01*
X142309934Y-128630916D01*
X142318381Y-128636831D01*
X142502256Y-128744279D01*
X142511542Y-128748729D01*
X142710501Y-128824703D01*
X142720399Y-128827579D01*
X142823750Y-128848606D01*
X142837799Y-128847410D01*
X142841500Y-128837065D01*
X142841500Y-128836517D01*
X143349500Y-128836517D01*
X143353564Y-128850359D01*
X143366978Y-128852393D01*
X143373684Y-128851534D01*
X143383762Y-128849392D01*
X143587755Y-128788191D01*
X143597342Y-128784433D01*
X143788595Y-128690739D01*
X143797445Y-128685464D01*
X143970828Y-128561792D01*
X143978700Y-128555139D01*
X144129552Y-128404812D01*
X144136230Y-128396965D01*
X144260503Y-128224020D01*
X144265813Y-128215183D01*
X144360170Y-128024267D01*
X144363969Y-128014672D01*
X144425877Y-127810910D01*
X144428055Y-127800837D01*
X144429486Y-127789962D01*
X144427275Y-127775778D01*
X144414117Y-127772000D01*
X143367615Y-127772000D01*
X143352376Y-127776475D01*
X143351171Y-127777865D01*
X143349500Y-127785548D01*
X143349500Y-128836517D01*
X142841500Y-128836517D01*
X142841500Y-127790115D01*
X142837025Y-127774876D01*
X142835635Y-127773671D01*
X142827952Y-127772000D01*
X141778725Y-127772000D01*
X141765194Y-127775973D01*
X141763757Y-127785966D01*
X137285786Y-127785966D01*
X137354946Y-127728446D01*
X137494032Y-127561213D01*
X137588325Y-127392841D01*
X137597489Y-127376478D01*
X137597490Y-127376476D01*
X137600313Y-127371435D01*
X137602169Y-127365968D01*
X137602171Y-127365963D01*
X137668374Y-127170935D01*
X137668375Y-127170930D01*
X137670230Y-127165466D01*
X137701441Y-126950205D01*
X137703070Y-126888000D01*
X137683167Y-126671400D01*
X137624126Y-126462055D01*
X137548987Y-126309687D01*
X137530478Y-126272155D01*
X137527923Y-126266974D01*
X137414600Y-126115215D01*
X137401233Y-126097315D01*
X137401232Y-126097314D01*
X137397780Y-126092691D01*
X137318249Y-126019173D01*
X137275578Y-125979729D01*
X137239133Y-125918800D01*
X137241414Y-125847840D01*
X137280538Y-125790330D01*
X137350508Y-125732137D01*
X137354946Y-125728446D01*
X137494032Y-125561213D01*
X137589795Y-125390216D01*
X137597489Y-125376478D01*
X137597490Y-125376476D01*
X137600313Y-125371435D01*
X137602169Y-125365968D01*
X137602171Y-125365963D01*
X137668374Y-125170935D01*
X137668375Y-125170930D01*
X137670230Y-125165466D01*
X137701441Y-124950205D01*
X137703070Y-124888000D01*
X137683167Y-124671400D01*
X137624126Y-124462055D01*
X137527923Y-124266974D01*
X137437795Y-124146277D01*
X137401233Y-124097315D01*
X137401232Y-124097314D01*
X137397780Y-124092691D01*
X137275578Y-123979729D01*
X137239133Y-123918800D01*
X137241414Y-123847840D01*
X137280538Y-123790330D01*
X137350508Y-123732137D01*
X137354946Y-123728446D01*
X137494032Y-123561213D01*
X137600313Y-123371435D01*
X137602169Y-123365968D01*
X137602171Y-123365963D01*
X137668374Y-123170935D01*
X137668375Y-123170930D01*
X137670230Y-123165466D01*
X137701441Y-122950205D01*
X137703070Y-122888000D01*
X137683167Y-122671400D01*
X137672272Y-122632767D01*
X137625695Y-122467619D01*
X137624126Y-122462055D01*
X137527923Y-122266974D01*
X137491353Y-122218000D01*
X137401233Y-122097315D01*
X137401232Y-122097314D01*
X137397780Y-122092691D01*
X137392192Y-122087525D01*
X137275578Y-121979729D01*
X137239133Y-121918800D01*
X137241414Y-121847840D01*
X137280538Y-121790330D01*
X137350508Y-121732137D01*
X137354946Y-121728446D01*
X137494032Y-121561213D01*
X137564866Y-121434730D01*
X137597489Y-121376478D01*
X137597490Y-121376476D01*
X137600313Y-121371435D01*
X137602169Y-121365968D01*
X137602171Y-121365963D01*
X137668374Y-121170935D01*
X137668375Y-121170930D01*
X137670230Y-121165466D01*
X137701441Y-120950205D01*
X137703070Y-120888000D01*
X137689979Y-120745533D01*
X137683696Y-120677152D01*
X137683695Y-120677147D01*
X137683167Y-120671400D01*
X137681600Y-120665843D01*
X137680838Y-120661733D01*
X137688092Y-120591108D01*
X137715633Y-120549678D01*
X138262270Y-120003042D01*
X138823818Y-119441494D01*
X138886130Y-119407468D01*
X138912913Y-119404589D01*
X141611000Y-119404589D01*
X141679121Y-119424591D01*
X141725614Y-119478247D01*
X141737000Y-119530589D01*
X141737000Y-120796134D01*
X141743755Y-120858316D01*
X141794885Y-120994705D01*
X141882239Y-121111261D01*
X141998795Y-121198615D01*
X142007204Y-121201767D01*
X142007205Y-121201768D01*
X142115951Y-121242535D01*
X142172716Y-121285176D01*
X142197416Y-121351738D01*
X142182209Y-121421087D01*
X142162816Y-121447568D01*
X142081727Y-121532423D01*
X142036129Y-121580138D01*
X142033215Y-121584410D01*
X142033214Y-121584411D01*
X141978957Y-121663949D01*
X141910243Y-121764680D01*
X141863215Y-121865993D01*
X141820728Y-121957525D01*
X141816188Y-121967305D01*
X141756489Y-122182570D01*
X141732751Y-122404695D01*
X141733048Y-122409848D01*
X141733048Y-122409851D01*
X141738511Y-122504590D01*
X141745610Y-122627715D01*
X141746747Y-122632761D01*
X141746748Y-122632767D01*
X141754201Y-122665836D01*
X141794722Y-122845639D01*
X141878766Y-123052616D01*
X141995487Y-123243088D01*
X142141750Y-123411938D01*
X142227534Y-123483157D01*
X142304842Y-123547339D01*
X142313626Y-123554632D01*
X142379542Y-123593150D01*
X142386945Y-123597476D01*
X142435669Y-123649114D01*
X142448740Y-123718897D01*
X142422009Y-123784669D01*
X142381555Y-123818027D01*
X142369107Y-123824507D01*
X142364974Y-123827610D01*
X142364971Y-123827612D01*
X142194600Y-123955530D01*
X142190465Y-123958635D01*
X142186893Y-123962373D01*
X142040834Y-124115215D01*
X142036129Y-124120138D01*
X141910243Y-124304680D01*
X141894503Y-124338590D01*
X141834610Y-124467619D01*
X141816188Y-124507305D01*
X141756489Y-124722570D01*
X141732751Y-124944695D01*
X141733048Y-124949848D01*
X141733048Y-124949851D01*
X141745151Y-125159752D01*
X141745610Y-125167715D01*
X141746747Y-125172761D01*
X141746748Y-125172767D01*
X141764926Y-125253425D01*
X141794722Y-125385639D01*
X141878766Y-125592616D01*
X141995487Y-125783088D01*
X142141750Y-125951938D01*
X142313626Y-126094632D01*
X142348850Y-126115215D01*
X142387455Y-126137774D01*
X142436179Y-126189412D01*
X142449250Y-126259195D01*
X142422519Y-126324967D01*
X142382062Y-126358327D01*
X142373957Y-126362546D01*
X142365238Y-126368036D01*
X142194933Y-126495905D01*
X142187226Y-126502748D01*
X142040090Y-126656717D01*
X142033604Y-126664727D01*
X141913598Y-126840649D01*
X141908500Y-126849623D01*
X141818838Y-127042783D01*
X141815275Y-127052470D01*
X141759889Y-127252183D01*
X141761412Y-127260607D01*
X141773792Y-127264000D01*
X144413844Y-127264000D01*
X144427375Y-127260027D01*
X144428680Y-127250947D01*
X144386714Y-127083875D01*
X144383394Y-127074124D01*
X144298472Y-126878814D01*
X144295170Y-126872657D01*
X146530500Y-126872657D01*
X146530801Y-126878805D01*
X146544312Y-127016603D01*
X146546695Y-127028638D01*
X146600267Y-127206076D01*
X146604941Y-127217416D01*
X146691960Y-127381077D01*
X146698749Y-127391294D01*
X146815897Y-127534933D01*
X146824541Y-127543637D01*
X146967356Y-127661784D01*
X146977527Y-127668644D01*
X147140576Y-127756804D01*
X147151881Y-127761556D01*
X147267192Y-127797250D01*
X147281295Y-127797456D01*
X147284500Y-127790701D01*
X147284500Y-127783924D01*
X147792500Y-127783924D01*
X147796473Y-127797455D01*
X147804268Y-127798575D01*
X147912021Y-127766862D01*
X147923389Y-127762269D01*
X148087654Y-127676393D01*
X148097915Y-127669679D01*
X148242373Y-127553532D01*
X148251132Y-127544954D01*
X148370278Y-127402961D01*
X148377208Y-127392841D01*
X148466502Y-127230415D01*
X148471334Y-127219142D01*
X148527380Y-127042462D01*
X148529930Y-127030468D01*
X148546107Y-126886239D01*
X148546500Y-126879215D01*
X148546500Y-126872657D01*
X155170500Y-126872657D01*
X155170801Y-126878805D01*
X155184312Y-127016603D01*
X155186695Y-127028638D01*
X155240267Y-127206076D01*
X155244941Y-127217416D01*
X155331960Y-127381077D01*
X155338749Y-127391294D01*
X155455897Y-127534933D01*
X155464541Y-127543637D01*
X155607356Y-127661784D01*
X155617527Y-127668644D01*
X155780576Y-127756804D01*
X155791881Y-127761556D01*
X155907192Y-127797250D01*
X155921295Y-127797456D01*
X155924500Y-127790701D01*
X155924500Y-127783924D01*
X156432500Y-127783924D01*
X156436473Y-127797455D01*
X156444268Y-127798575D01*
X156552021Y-127766862D01*
X156563389Y-127762269D01*
X156727654Y-127676393D01*
X156737915Y-127669679D01*
X156882373Y-127553532D01*
X156891132Y-127544954D01*
X157010278Y-127402961D01*
X157017208Y-127392841D01*
X157106502Y-127230415D01*
X157111334Y-127219142D01*
X157167380Y-127042462D01*
X157169930Y-127030468D01*
X157186107Y-126886239D01*
X157186500Y-126879215D01*
X157186500Y-126798115D01*
X157182025Y-126782876D01*
X157180635Y-126781671D01*
X157172952Y-126780000D01*
X156450615Y-126780000D01*
X156435376Y-126784475D01*
X156434171Y-126785865D01*
X156432500Y-126793548D01*
X156432500Y-127783924D01*
X155924500Y-127783924D01*
X155924500Y-126798115D01*
X155920025Y-126782876D01*
X155918635Y-126781671D01*
X155910952Y-126780000D01*
X155188615Y-126780000D01*
X155173376Y-126784475D01*
X155172171Y-126785865D01*
X155170500Y-126793548D01*
X155170500Y-126872657D01*
X148546500Y-126872657D01*
X148546500Y-126798115D01*
X148542025Y-126782876D01*
X148540635Y-126781671D01*
X148532952Y-126780000D01*
X147810615Y-126780000D01*
X147795376Y-126784475D01*
X147794171Y-126785865D01*
X147792500Y-126793548D01*
X147792500Y-127783924D01*
X147284500Y-127783924D01*
X147284500Y-126798115D01*
X147280025Y-126782876D01*
X147278635Y-126781671D01*
X147270952Y-126780000D01*
X146548615Y-126780000D01*
X146533376Y-126784475D01*
X146532171Y-126785865D01*
X146530500Y-126793548D01*
X146530500Y-126872657D01*
X144295170Y-126872657D01*
X144293605Y-126869739D01*
X144177926Y-126690926D01*
X144171636Y-126682757D01*
X144028306Y-126525240D01*
X144020773Y-126518215D01*
X143853639Y-126386222D01*
X143845056Y-126380520D01*
X143808102Y-126360120D01*
X143758131Y-126309687D01*
X143746261Y-126253885D01*
X146530500Y-126253885D01*
X146534975Y-126269124D01*
X146536365Y-126270329D01*
X146544048Y-126272000D01*
X147266385Y-126272000D01*
X147281624Y-126267525D01*
X147282829Y-126266135D01*
X147284500Y-126258452D01*
X147284500Y-126253885D01*
X147792500Y-126253885D01*
X147796975Y-126269124D01*
X147798365Y-126270329D01*
X147806048Y-126272000D01*
X148528385Y-126272000D01*
X148543624Y-126267525D01*
X148544829Y-126266135D01*
X148546500Y-126258452D01*
X148546500Y-126253885D01*
X155170500Y-126253885D01*
X155174975Y-126269124D01*
X155176365Y-126270329D01*
X155184048Y-126272000D01*
X155906385Y-126272000D01*
X155921624Y-126267525D01*
X155922829Y-126266135D01*
X155924500Y-126258452D01*
X155924500Y-126253885D01*
X156432500Y-126253885D01*
X156436975Y-126269124D01*
X156438365Y-126270329D01*
X156446048Y-126272000D01*
X157168385Y-126272000D01*
X157183624Y-126267525D01*
X157184829Y-126266135D01*
X157186500Y-126258452D01*
X157186500Y-126179343D01*
X157186199Y-126173195D01*
X157172688Y-126035397D01*
X157170305Y-126023362D01*
X157116733Y-125845924D01*
X157112059Y-125834584D01*
X157025040Y-125670923D01*
X157018251Y-125660706D01*
X156901103Y-125517067D01*
X156892459Y-125508363D01*
X156749644Y-125390216D01*
X156739473Y-125383356D01*
X156576424Y-125295196D01*
X156565119Y-125290444D01*
X156449808Y-125254750D01*
X156435705Y-125254544D01*
X156432500Y-125261299D01*
X156432500Y-126253885D01*
X155924500Y-126253885D01*
X155924500Y-125268076D01*
X155920527Y-125254545D01*
X155912732Y-125253425D01*
X155804979Y-125285138D01*
X155793611Y-125289731D01*
X155629346Y-125375607D01*
X155619085Y-125382321D01*
X155474627Y-125498468D01*
X155465868Y-125507046D01*
X155346722Y-125649039D01*
X155339792Y-125659159D01*
X155250498Y-125821585D01*
X155245666Y-125832858D01*
X155189620Y-126009538D01*
X155187070Y-126021532D01*
X155170893Y-126165761D01*
X155170500Y-126172785D01*
X155170500Y-126253885D01*
X148546500Y-126253885D01*
X148546500Y-126179343D01*
X148546199Y-126173195D01*
X148532688Y-126035397D01*
X148530305Y-126023362D01*
X148476733Y-125845924D01*
X148472059Y-125834584D01*
X148385040Y-125670923D01*
X148378251Y-125660706D01*
X148261103Y-125517067D01*
X148252459Y-125508363D01*
X148109644Y-125390216D01*
X148099473Y-125383356D01*
X147936424Y-125295196D01*
X147925119Y-125290444D01*
X147809808Y-125254750D01*
X147795705Y-125254544D01*
X147792500Y-125261299D01*
X147792500Y-126253885D01*
X147284500Y-126253885D01*
X147284500Y-125268076D01*
X147280527Y-125254545D01*
X147272732Y-125253425D01*
X147164979Y-125285138D01*
X147153611Y-125289731D01*
X146989346Y-125375607D01*
X146979085Y-125382321D01*
X146834627Y-125498468D01*
X146825868Y-125507046D01*
X146706722Y-125649039D01*
X146699792Y-125659159D01*
X146610498Y-125821585D01*
X146605666Y-125832858D01*
X146549620Y-126009538D01*
X146547070Y-126021532D01*
X146530893Y-126165761D01*
X146530500Y-126172785D01*
X146530500Y-126253885D01*
X143746261Y-126253885D01*
X143743359Y-126240245D01*
X143768475Y-126173839D01*
X143795827Y-126147232D01*
X143824658Y-126126667D01*
X143975360Y-126019173D01*
X144133596Y-125861489D01*
X144193094Y-125778689D01*
X144260935Y-125684277D01*
X144263953Y-125680077D01*
X144274292Y-125659159D01*
X144360636Y-125484453D01*
X144360637Y-125484451D01*
X144362930Y-125479811D01*
X144420464Y-125290444D01*
X144426365Y-125271023D01*
X144426365Y-125271021D01*
X144427870Y-125266069D01*
X144457029Y-125044590D01*
X144458656Y-124978000D01*
X144440352Y-124755361D01*
X144385931Y-124538702D01*
X144296854Y-124333840D01*
X144233639Y-124236124D01*
X144178322Y-124150617D01*
X144178320Y-124150614D01*
X144175514Y-124146277D01*
X144025170Y-123981051D01*
X144021119Y-123977852D01*
X144021115Y-123977848D01*
X143853914Y-123845800D01*
X143853910Y-123845798D01*
X143849859Y-123842598D01*
X143808553Y-123819796D01*
X143758584Y-123769364D01*
X143743812Y-123699921D01*
X143768928Y-123633516D01*
X143796280Y-123606909D01*
X143840103Y-123575650D01*
X143975360Y-123479173D01*
X144003555Y-123451077D01*
X144056709Y-123398107D01*
X144133596Y-123321489D01*
X144193094Y-123238689D01*
X144260935Y-123144277D01*
X144263953Y-123140077D01*
X144284434Y-123098638D01*
X144360636Y-122944453D01*
X144360637Y-122944451D01*
X144361524Y-122942657D01*
X146530500Y-122942657D01*
X146530801Y-122948805D01*
X146544312Y-123086603D01*
X146546695Y-123098638D01*
X146600267Y-123276076D01*
X146604941Y-123287416D01*
X146691960Y-123451077D01*
X146698749Y-123461294D01*
X146815897Y-123604933D01*
X146824541Y-123613637D01*
X146967356Y-123731784D01*
X146977527Y-123738644D01*
X147140576Y-123826804D01*
X147151881Y-123831556D01*
X147267192Y-123867250D01*
X147281295Y-123867456D01*
X147284500Y-123860701D01*
X147284500Y-122618115D01*
X147280025Y-122602876D01*
X147278635Y-122601671D01*
X147270952Y-122600000D01*
X146548615Y-122600000D01*
X146533376Y-122604475D01*
X146532171Y-122605865D01*
X146530500Y-122613548D01*
X146530500Y-122942657D01*
X144361524Y-122942657D01*
X144362930Y-122939811D01*
X144427870Y-122726069D01*
X144457029Y-122504590D01*
X144457417Y-122488725D01*
X144458574Y-122441365D01*
X144458574Y-122441361D01*
X144458656Y-122438000D01*
X144440352Y-122215361D01*
X144418074Y-122126667D01*
X144405678Y-122077315D01*
X144408483Y-122006374D01*
X144438787Y-121957525D01*
X144706827Y-121689485D01*
X144769139Y-121655459D01*
X144795922Y-121652580D01*
X146404500Y-121652580D01*
X146472621Y-121672582D01*
X146519114Y-121726238D01*
X146530500Y-121778580D01*
X146530500Y-122073885D01*
X146534975Y-122089124D01*
X146536365Y-122090329D01*
X146544048Y-122092000D01*
X147666500Y-122092000D01*
X147734621Y-122112002D01*
X147781114Y-122165658D01*
X147792500Y-122218000D01*
X147792500Y-123853924D01*
X147796473Y-123867455D01*
X147804268Y-123868575D01*
X147912021Y-123836862D01*
X147923389Y-123832269D01*
X148087654Y-123746393D01*
X148097915Y-123739679D01*
X148242373Y-123623532D01*
X148251132Y-123614954D01*
X148295500Y-123562079D01*
X148354610Y-123522752D01*
X148425598Y-123521626D01*
X148468548Y-123542972D01*
X148534178Y-123593150D01*
X148620872Y-123633576D01*
X148692131Y-123666805D01*
X148692134Y-123666806D01*
X148698308Y-123669685D01*
X148704956Y-123671171D01*
X148704959Y-123671172D01*
X148810921Y-123694857D01*
X148875043Y-123709190D01*
X148880588Y-123709500D01*
X149013744Y-123709500D01*
X149035156Y-123707174D01*
X149101921Y-123699921D01*
X149148537Y-123694857D01*
X149284459Y-123649114D01*
X149313704Y-123639272D01*
X149313706Y-123639271D01*
X149320175Y-123637094D01*
X149475405Y-123543823D01*
X149480362Y-123539135D01*
X149480365Y-123539133D01*
X149602027Y-123424082D01*
X149602029Y-123424080D01*
X149606985Y-123419393D01*
X149610817Y-123413755D01*
X149610820Y-123413751D01*
X149704942Y-123275255D01*
X149708777Y-123269612D01*
X149776030Y-123101466D01*
X149777144Y-123094738D01*
X149777145Y-123094734D01*
X149804493Y-122929539D01*
X149804493Y-122929536D01*
X149805608Y-122922802D01*
X149803979Y-122891704D01*
X149800703Y-122829198D01*
X153911392Y-122829198D01*
X153911749Y-122836015D01*
X153911749Y-122836019D01*
X153916651Y-122929539D01*
X153920870Y-123010047D01*
X153922681Y-123016620D01*
X153922681Y-123016623D01*
X153945272Y-123098638D01*
X153968961Y-123184641D01*
X154053422Y-123344836D01*
X154057827Y-123350049D01*
X154057830Y-123350053D01*
X154165906Y-123477943D01*
X154165910Y-123477947D01*
X154170313Y-123483157D01*
X154175737Y-123487304D01*
X154175738Y-123487305D01*
X154308757Y-123589006D01*
X154308761Y-123589009D01*
X154314178Y-123593150D01*
X154400872Y-123633576D01*
X154472131Y-123666805D01*
X154472134Y-123666806D01*
X154478308Y-123669685D01*
X154484956Y-123671171D01*
X154484959Y-123671172D01*
X154590921Y-123694857D01*
X154655043Y-123709190D01*
X154660588Y-123709500D01*
X154793744Y-123709500D01*
X154815156Y-123707174D01*
X154881921Y-123699921D01*
X154928537Y-123694857D01*
X155064459Y-123649114D01*
X155093704Y-123639272D01*
X155093706Y-123639271D01*
X155100175Y-123637094D01*
X155252151Y-123545778D01*
X155252154Y-123545777D01*
X155255405Y-123543823D01*
X155255755Y-123544406D01*
X155317417Y-123520935D01*
X155386891Y-123535561D01*
X155424891Y-123566915D01*
X155455897Y-123604933D01*
X155464541Y-123613637D01*
X155607356Y-123731784D01*
X155617527Y-123738644D01*
X155780576Y-123826804D01*
X155791881Y-123831556D01*
X155907192Y-123867250D01*
X155921295Y-123867456D01*
X155924500Y-123860701D01*
X155924500Y-123853924D01*
X156432500Y-123853924D01*
X156436473Y-123867455D01*
X156444268Y-123868575D01*
X156552021Y-123836862D01*
X156563389Y-123832269D01*
X156727654Y-123746393D01*
X156737915Y-123739679D01*
X156882373Y-123623532D01*
X156891132Y-123614954D01*
X157010278Y-123472961D01*
X157017208Y-123462841D01*
X157106502Y-123300415D01*
X157111334Y-123289142D01*
X157167380Y-123112462D01*
X157169930Y-123100468D01*
X157186107Y-122956239D01*
X157186500Y-122949215D01*
X157186500Y-122618115D01*
X157182025Y-122602876D01*
X157180635Y-122601671D01*
X157172952Y-122600000D01*
X156450615Y-122600000D01*
X156435376Y-122604475D01*
X156434171Y-122605865D01*
X156432500Y-122613548D01*
X156432500Y-123853924D01*
X155924500Y-123853924D01*
X155924500Y-122073885D01*
X156432500Y-122073885D01*
X156436975Y-122089124D01*
X156438365Y-122090329D01*
X156446048Y-122092000D01*
X157168385Y-122092000D01*
X157183624Y-122087525D01*
X157184829Y-122086135D01*
X157186500Y-122078452D01*
X157186500Y-121749343D01*
X157186199Y-121743195D01*
X157172688Y-121605397D01*
X157170305Y-121593362D01*
X157116733Y-121415924D01*
X157112059Y-121404584D01*
X157025040Y-121240923D01*
X157018251Y-121230706D01*
X156901103Y-121087067D01*
X156892459Y-121078363D01*
X156749644Y-120960216D01*
X156739473Y-120953356D01*
X156576424Y-120865196D01*
X156565119Y-120860444D01*
X156449808Y-120824750D01*
X156435705Y-120824544D01*
X156432500Y-120831299D01*
X156432500Y-122073885D01*
X155924500Y-122073885D01*
X155924500Y-120838076D01*
X155920527Y-120824545D01*
X155912732Y-120823425D01*
X155804979Y-120855138D01*
X155793611Y-120859731D01*
X155629346Y-120945607D01*
X155619085Y-120952321D01*
X155474627Y-121068468D01*
X155465868Y-121077046D01*
X155346722Y-121219039D01*
X155339792Y-121229159D01*
X155250498Y-121391585D01*
X155245666Y-121402858D01*
X155189620Y-121579538D01*
X155187070Y-121591532D01*
X155170893Y-121735761D01*
X155170500Y-121742785D01*
X155170500Y-121958974D01*
X155150498Y-122027095D01*
X155096842Y-122073588D01*
X155026568Y-122083692D01*
X155017014Y-122081939D01*
X154847006Y-122043938D01*
X154846999Y-122043937D01*
X154841957Y-122042810D01*
X154836412Y-122042500D01*
X154703256Y-122042500D01*
X154568463Y-122057143D01*
X154462835Y-122092691D01*
X154403296Y-122112728D01*
X154403294Y-122112729D01*
X154396825Y-122114906D01*
X154241595Y-122208177D01*
X154236638Y-122212865D01*
X154236635Y-122212867D01*
X154171929Y-122274057D01*
X154110015Y-122332607D01*
X154106183Y-122338245D01*
X154106180Y-122338249D01*
X154040669Y-122434646D01*
X154008223Y-122482388D01*
X153940970Y-122650534D01*
X153939856Y-122657262D01*
X153939855Y-122657266D01*
X153912507Y-122822461D01*
X153911392Y-122829198D01*
X149800703Y-122829198D01*
X149796487Y-122748766D01*
X149796130Y-122741953D01*
X149793120Y-122731023D01*
X149749852Y-122573941D01*
X149748039Y-122567359D01*
X149663578Y-122407164D01*
X149659173Y-122401951D01*
X149659170Y-122401947D01*
X149551094Y-122274057D01*
X149551090Y-122274053D01*
X149546687Y-122268843D01*
X149509823Y-122240658D01*
X149408243Y-122162994D01*
X149408239Y-122162991D01*
X149402822Y-122158850D01*
X149297686Y-122109825D01*
X149244869Y-122085195D01*
X149244866Y-122085194D01*
X149238692Y-122082315D01*
X149232044Y-122080829D01*
X149232041Y-122080828D01*
X149066994Y-122043936D01*
X149066995Y-122043936D01*
X149061957Y-122042810D01*
X149056412Y-122042500D01*
X148923256Y-122042500D01*
X148788463Y-122057143D01*
X148781999Y-122059318D01*
X148781996Y-122059319D01*
X148725145Y-122078452D01*
X148713667Y-122082315D01*
X148712689Y-122082644D01*
X148641747Y-122085414D01*
X148580568Y-122049391D01*
X148548577Y-121986010D01*
X148546500Y-121963225D01*
X148546500Y-121778580D01*
X148566502Y-121710459D01*
X148620158Y-121663966D01*
X148672500Y-121652580D01*
X151517342Y-121652580D01*
X151527894Y-121653078D01*
X151535148Y-121654699D01*
X151600615Y-121652642D01*
X151604572Y-121652580D01*
X151631403Y-121652580D01*
X151635330Y-121652084D01*
X151636236Y-121652027D01*
X151646880Y-121651188D01*
X151689219Y-121649858D01*
X151707606Y-121644516D01*
X151726963Y-121640508D01*
X151738085Y-121639103D01*
X151738086Y-121639103D01*
X151745952Y-121638109D01*
X151756524Y-121633924D01*
X151785338Y-121622516D01*
X151796565Y-121618672D01*
X151829629Y-121609065D01*
X151829631Y-121609064D01*
X151837245Y-121606852D01*
X151853725Y-121597106D01*
X151871465Y-121588415D01*
X151889274Y-121581364D01*
X151923552Y-121556460D01*
X151933472Y-121549944D01*
X151963099Y-121532423D01*
X151963102Y-121532421D01*
X151969926Y-121528385D01*
X151983453Y-121514858D01*
X151998487Y-121502017D01*
X152007567Y-121495420D01*
X152007568Y-121495419D01*
X152013982Y-121490759D01*
X152040994Y-121458107D01*
X152048983Y-121449328D01*
X155051968Y-118446343D01*
X155114280Y-118412317D01*
X155129642Y-118409957D01*
X155134502Y-118409515D01*
X155198071Y-118403729D01*
X155316138Y-118365367D01*
X155387104Y-118363339D01*
X155447902Y-118400002D01*
X155476070Y-118450048D01*
X155485128Y-118481225D01*
X155494874Y-118497705D01*
X155503565Y-118515445D01*
X155510616Y-118533254D01*
X155535058Y-118566896D01*
X155535520Y-118567532D01*
X155542036Y-118577452D01*
X155563595Y-118613906D01*
X155577122Y-118627433D01*
X155589963Y-118642467D01*
X155601221Y-118657962D01*
X155607329Y-118663015D01*
X155633872Y-118684973D01*
X155642652Y-118692963D01*
X156983306Y-120033618D01*
X157017332Y-120095930D01*
X157019610Y-120110417D01*
X157020337Y-120117834D01*
X157026939Y-120185164D01*
X157084533Y-120358299D01*
X157179054Y-120514371D01*
X157305803Y-120645623D01*
X157311695Y-120649478D01*
X157311699Y-120649482D01*
X157452585Y-120741675D01*
X157458481Y-120745533D01*
X157465085Y-120747989D01*
X157465087Y-120747990D01*
X157543991Y-120777334D01*
X157629500Y-120809135D01*
X157810360Y-120833267D01*
X157817371Y-120832629D01*
X157817375Y-120832629D01*
X157957080Y-120819914D01*
X157992071Y-120816729D01*
X157998773Y-120814551D01*
X157998775Y-120814551D01*
X158158905Y-120762522D01*
X158158908Y-120762521D01*
X158165604Y-120760345D01*
X158190452Y-120745533D01*
X158316277Y-120670527D01*
X158316280Y-120670525D01*
X158322332Y-120666917D01*
X158445445Y-120549678D01*
X158449362Y-120545948D01*
X158449364Y-120545945D01*
X158454466Y-120541087D01*
X158555439Y-120389110D01*
X158600951Y-120269300D01*
X158617733Y-120225122D01*
X158617734Y-120225117D01*
X158620233Y-120218539D01*
X158625027Y-120184431D01*
X158645076Y-120041775D01*
X158645076Y-120041770D01*
X158645627Y-120037852D01*
X158645946Y-120015000D01*
X158625607Y-119833675D01*
X158565601Y-119661361D01*
X158468911Y-119506624D01*
X158387448Y-119424591D01*
X158345304Y-119382151D01*
X158345300Y-119382148D01*
X158340341Y-119377154D01*
X158186283Y-119279386D01*
X158014393Y-119218178D01*
X157920446Y-119206976D01*
X157855172Y-119179049D01*
X157846269Y-119170957D01*
X156696505Y-118021193D01*
X156662479Y-117958881D01*
X156659600Y-117932098D01*
X156659600Y-117556514D01*
X156680652Y-117486787D01*
X156773538Y-117346981D01*
X156777439Y-117341110D01*
X156798847Y-117284753D01*
X156839733Y-117177122D01*
X156839734Y-117177117D01*
X156842233Y-117170539D01*
X156867627Y-116989852D01*
X156867946Y-116967000D01*
X156865483Y-116945044D01*
X156877767Y-116875119D01*
X156921907Y-116827560D01*
X156921317Y-116826800D01*
X156925941Y-116823213D01*
X156926562Y-116822544D01*
X156927578Y-116821943D01*
X156927577Y-116821943D01*
X156934406Y-116817905D01*
X156947933Y-116804378D01*
X156962967Y-116791537D01*
X156972047Y-116784940D01*
X156972048Y-116784939D01*
X156978462Y-116780279D01*
X157005474Y-116747627D01*
X157013463Y-116738848D01*
X158459383Y-115292928D01*
X158467201Y-115285812D01*
X158473483Y-115281826D01*
X158518345Y-115234053D01*
X158521100Y-115231211D01*
X158540046Y-115212265D01*
X158542481Y-115209126D01*
X158543054Y-115208476D01*
X158550001Y-115200345D01*
X158573574Y-115175241D01*
X158573576Y-115175238D01*
X158579004Y-115169458D01*
X158584340Y-115159752D01*
X158588228Y-115152680D01*
X158599084Y-115136153D01*
X158605955Y-115127295D01*
X158610812Y-115121034D01*
X158627632Y-115082165D01*
X158632854Y-115071505D01*
X158634690Y-115068165D01*
X158653265Y-115034378D01*
X158658025Y-115015838D01*
X158664429Y-114997133D01*
X158668882Y-114986843D01*
X158672031Y-114979566D01*
X158673271Y-114971734D01*
X158673273Y-114971729D01*
X158678660Y-114937721D01*
X158681066Y-114926099D01*
X158691600Y-114885074D01*
X158691600Y-114865937D01*
X158693151Y-114846226D01*
X158694906Y-114835146D01*
X158694906Y-114835144D01*
X158696146Y-114827316D01*
X158692159Y-114785139D01*
X158691600Y-114773281D01*
X158691600Y-109141106D01*
X158692098Y-109130554D01*
X158693719Y-109123300D01*
X158691662Y-109057833D01*
X158691600Y-109053876D01*
X158691600Y-109027045D01*
X158691104Y-109023118D01*
X158691047Y-109022212D01*
X158690208Y-109011563D01*
X158689127Y-108977156D01*
X158688878Y-108969229D01*
X158683536Y-108950842D01*
X158679528Y-108931485D01*
X158678123Y-108920365D01*
X158677129Y-108912496D01*
X158661535Y-108873108D01*
X158657693Y-108861885D01*
X158648085Y-108828818D01*
X158648084Y-108828816D01*
X158645872Y-108821202D01*
X158636125Y-108804721D01*
X158627433Y-108786979D01*
X158620384Y-108769174D01*
X158595481Y-108734897D01*
X158588965Y-108724977D01*
X158571443Y-108695350D01*
X158567405Y-108688522D01*
X158553878Y-108674995D01*
X158541037Y-108659961D01*
X158534440Y-108650881D01*
X158534439Y-108650880D01*
X158529779Y-108644466D01*
X158497127Y-108617454D01*
X158488348Y-108609465D01*
X153640992Y-103762108D01*
X153633882Y-103754295D01*
X153629898Y-103748017D01*
X153582141Y-103703170D01*
X153579299Y-103700415D01*
X153560337Y-103681453D01*
X153557210Y-103679027D01*
X153556569Y-103678462D01*
X153548409Y-103671493D01*
X153523311Y-103647925D01*
X153517530Y-103642496D01*
X153500753Y-103633272D01*
X153484240Y-103622425D01*
X153475374Y-103615548D01*
X153475369Y-103615545D01*
X153469106Y-103610687D01*
X153430222Y-103593861D01*
X153419577Y-103588646D01*
X153382450Y-103568235D01*
X153382617Y-103567932D01*
X153330384Y-103527176D01*
X153306909Y-103460173D01*
X153323386Y-103391114D01*
X153374582Y-103341927D01*
X153432743Y-103327700D01*
X154852923Y-103327700D01*
X154909733Y-103341234D01*
X154912584Y-103342674D01*
X154918481Y-103346533D01*
X154925085Y-103348989D01*
X154925087Y-103348990D01*
X154998107Y-103376146D01*
X155089500Y-103410135D01*
X155270360Y-103434267D01*
X155277371Y-103433629D01*
X155277375Y-103433629D01*
X155417080Y-103420914D01*
X155452071Y-103417729D01*
X155458773Y-103415551D01*
X155458775Y-103415551D01*
X155618905Y-103363522D01*
X155618908Y-103363521D01*
X155625604Y-103361345D01*
X155650452Y-103346533D01*
X155776277Y-103271527D01*
X155776280Y-103271525D01*
X155782332Y-103267917D01*
X155863275Y-103190836D01*
X155909362Y-103146948D01*
X155909364Y-103146945D01*
X155914466Y-103142087D01*
X156015439Y-102990110D01*
X156030438Y-102950625D01*
X156077733Y-102826122D01*
X156077734Y-102826117D01*
X156080233Y-102819539D01*
X156086767Y-102773050D01*
X156105076Y-102642775D01*
X156105076Y-102642770D01*
X156105627Y-102638852D01*
X156105946Y-102616000D01*
X156085607Y-102434675D01*
X156025601Y-102262361D01*
X155928911Y-102107624D01*
X155833953Y-102012001D01*
X155805304Y-101983151D01*
X155805300Y-101983148D01*
X155800341Y-101978154D01*
X155766693Y-101956800D01*
X155708339Y-101919768D01*
X155646283Y-101880386D01*
X155539590Y-101842394D01*
X155481027Y-101821540D01*
X155481025Y-101821539D01*
X155474393Y-101819178D01*
X155467407Y-101818345D01*
X155467403Y-101818344D01*
X155337826Y-101802894D01*
X155293214Y-101797574D01*
X155286211Y-101798310D01*
X155286210Y-101798310D01*
X155239975Y-101803170D01*
X155111751Y-101816646D01*
X155105083Y-101818916D01*
X154945687Y-101873179D01*
X154945684Y-101873180D01*
X154939023Y-101875448D01*
X154922492Y-101885618D01*
X154856472Y-101904300D01*
X152776530Y-101904300D01*
X152767960Y-101904008D01*
X152717554Y-101900571D01*
X152717550Y-101900571D01*
X152709979Y-101900055D01*
X152702503Y-101901360D01*
X152702500Y-101901360D01*
X152646717Y-101911096D01*
X152640192Y-101912059D01*
X152584033Y-101918855D01*
X152584032Y-101918855D01*
X152576489Y-101919768D01*
X152569381Y-101922454D01*
X152567081Y-101923019D01*
X152550019Y-101927686D01*
X152547764Y-101928367D01*
X152540285Y-101929672D01*
X152533333Y-101932724D01*
X152533332Y-101932724D01*
X152481508Y-101955473D01*
X152475402Y-101957965D01*
X152415351Y-101980657D01*
X152409096Y-101984956D01*
X152407007Y-101986048D01*
X152391531Y-101994662D01*
X152389503Y-101995862D01*
X152382554Y-101998912D01*
X152331630Y-102037987D01*
X152326307Y-102041853D01*
X152279648Y-102073921D01*
X152279640Y-102073928D01*
X152273388Y-102078225D01*
X152268339Y-102083892D01*
X152231739Y-102124971D01*
X152226757Y-102130248D01*
X152086710Y-102270294D01*
X152086693Y-102270312D01*
X144595763Y-109761241D01*
X144533451Y-109795267D01*
X144462636Y-109790202D01*
X144405800Y-109747655D01*
X144380989Y-109681135D01*
X144386110Y-109635517D01*
X144426365Y-109503023D01*
X144426365Y-109503021D01*
X144427870Y-109498069D01*
X144457029Y-109276590D01*
X144458656Y-109210000D01*
X144440352Y-108987361D01*
X144385931Y-108770702D01*
X144296854Y-108565840D01*
X144234421Y-108469333D01*
X144178322Y-108382617D01*
X144178320Y-108382614D01*
X144175514Y-108378277D01*
X144025170Y-108213051D01*
X144021119Y-108209852D01*
X144021115Y-108209848D01*
X143853914Y-108077800D01*
X143853910Y-108077798D01*
X143849859Y-108074598D01*
X143841244Y-108069842D01*
X143808069Y-108051529D01*
X143758098Y-108001097D01*
X143743326Y-107931654D01*
X143768442Y-107865248D01*
X143795794Y-107838641D01*
X143970828Y-107713792D01*
X143978700Y-107707139D01*
X144129552Y-107556812D01*
X144136230Y-107548965D01*
X144260503Y-107376020D01*
X144265813Y-107367183D01*
X144360170Y-107176267D01*
X144363969Y-107166672D01*
X144425877Y-106962910D01*
X144428055Y-106952837D01*
X144429486Y-106941962D01*
X144427275Y-106927778D01*
X144414117Y-106924000D01*
X141778725Y-106924000D01*
X141765194Y-106927973D01*
X141763757Y-106937966D01*
X141794065Y-107072446D01*
X141797145Y-107082275D01*
X141877270Y-107279603D01*
X141881913Y-107288794D01*
X141993194Y-107470388D01*
X141999277Y-107478699D01*
X142138713Y-107639667D01*
X142146080Y-107646883D01*
X142309934Y-107782916D01*
X142318381Y-107788831D01*
X142387469Y-107829203D01*
X142436193Y-107880842D01*
X142449264Y-107950625D01*
X142422533Y-108016396D01*
X142382084Y-108049752D01*
X142369107Y-108056507D01*
X142364974Y-108059610D01*
X142364971Y-108059612D01*
X142228924Y-108161759D01*
X142190465Y-108190635D01*
X142175089Y-108206725D01*
X142042275Y-108345707D01*
X142036129Y-108352138D01*
X142033215Y-108356410D01*
X142033214Y-108356411D01*
X141988693Y-108421676D01*
X141910243Y-108536680D01*
X141874505Y-108613671D01*
X141820465Y-108730092D01*
X141816188Y-108739305D01*
X141756489Y-108954570D01*
X141732751Y-109176695D01*
X141733048Y-109181848D01*
X141733048Y-109181851D01*
X141742371Y-109343547D01*
X141745610Y-109399715D01*
X141746747Y-109404761D01*
X141746748Y-109404767D01*
X141763036Y-109477040D01*
X141794722Y-109617639D01*
X141820505Y-109681135D01*
X141868808Y-109800091D01*
X141878766Y-109824616D01*
X141995487Y-110015088D01*
X142141750Y-110183938D01*
X142313626Y-110326632D01*
X142384095Y-110367811D01*
X142386945Y-110369476D01*
X142435669Y-110421114D01*
X142448740Y-110490897D01*
X142422009Y-110556669D01*
X142381555Y-110590027D01*
X142369107Y-110596507D01*
X142364974Y-110599610D01*
X142364971Y-110599612D01*
X142194600Y-110727530D01*
X142190465Y-110730635D01*
X142036129Y-110892138D01*
X141910243Y-111076680D01*
X141816188Y-111279305D01*
X141756489Y-111494570D01*
X141732751Y-111716695D01*
X141733048Y-111721848D01*
X141733048Y-111721851D01*
X141744384Y-111918458D01*
X141745610Y-111939715D01*
X141746747Y-111944761D01*
X141746748Y-111944767D01*
X141770804Y-112051508D01*
X141794722Y-112157639D01*
X141878766Y-112364616D01*
X141881465Y-112369020D01*
X141991978Y-112549361D01*
X141995487Y-112555088D01*
X142141750Y-112723938D01*
X142145730Y-112727242D01*
X142150481Y-112731187D01*
X142190116Y-112790090D01*
X142191613Y-112861071D01*
X142154497Y-112921593D01*
X142114225Y-112946112D01*
X142103307Y-112950205D01*
X141998795Y-112989385D01*
X141882239Y-113076739D01*
X141794885Y-113193295D01*
X141743755Y-113329684D01*
X141737000Y-113391866D01*
X141737000Y-115188134D01*
X141743755Y-115250316D01*
X141794885Y-115386705D01*
X141882239Y-115503261D01*
X141998795Y-115590615D01*
X142038458Y-115605484D01*
X142048031Y-115609073D01*
X142104795Y-115651716D01*
X142129494Y-115718277D01*
X142129800Y-115727055D01*
X142129800Y-116151813D01*
X142113053Y-116208718D01*
X142115356Y-116209861D01*
X142112226Y-116216165D01*
X142108408Y-116222090D01*
X142105999Y-116228710D01*
X142105997Y-116228713D01*
X142099790Y-116245767D01*
X142046002Y-116393549D01*
X142023134Y-116574573D01*
X142023821Y-116581580D01*
X142023821Y-116581582D01*
X142028126Y-116625484D01*
X142014867Y-116695232D01*
X141966004Y-116746739D01*
X141902727Y-116763780D01*
X138828401Y-116763780D01*
X138760280Y-116743778D01*
X138739306Y-116726875D01*
X137594031Y-115581599D01*
X137586921Y-115573787D01*
X137582935Y-115567506D01*
X137581338Y-115566006D01*
X137554333Y-115503115D01*
X137566037Y-115433090D01*
X137569478Y-115426496D01*
X137600313Y-115371435D01*
X137602169Y-115365968D01*
X137602171Y-115365963D01*
X137668374Y-115170935D01*
X137668375Y-115170930D01*
X137670230Y-115165466D01*
X137701441Y-114950205D01*
X137703070Y-114888000D01*
X137683167Y-114671400D01*
X137660829Y-114592193D01*
X137625695Y-114467619D01*
X137624126Y-114462055D01*
X137527923Y-114266974D01*
X137414600Y-114115215D01*
X137401233Y-114097315D01*
X137401232Y-114097314D01*
X137397780Y-114092691D01*
X137275578Y-113979729D01*
X137239133Y-113918800D01*
X137241414Y-113847840D01*
X137280538Y-113790330D01*
X137350508Y-113732137D01*
X137354946Y-113728446D01*
X137494032Y-113561213D01*
X137575024Y-113416592D01*
X137597489Y-113376478D01*
X137597490Y-113376476D01*
X137600313Y-113371435D01*
X137602169Y-113365968D01*
X137602171Y-113365963D01*
X137668374Y-113170935D01*
X137668375Y-113170930D01*
X137670230Y-113165466D01*
X137701441Y-112950205D01*
X137703070Y-112888000D01*
X137683167Y-112671400D01*
X137674581Y-112640954D01*
X137647063Y-112543384D01*
X137624126Y-112462055D01*
X137527923Y-112266974D01*
X137414600Y-112115215D01*
X137401233Y-112097315D01*
X137401232Y-112097314D01*
X137397780Y-112092691D01*
X137275208Y-111979387D01*
X137238763Y-111918458D01*
X137241044Y-111847499D01*
X137280168Y-111789988D01*
X137350153Y-111731782D01*
X137358282Y-111723653D01*
X137489920Y-111565375D01*
X137496444Y-111555882D01*
X137597031Y-111376272D01*
X137601710Y-111365763D01*
X137667886Y-111170817D01*
X137670517Y-111159857D01*
X137668540Y-111145992D01*
X137654974Y-111142000D01*
X133376481Y-111142000D01*
X133362950Y-111145973D01*
X133361658Y-111154962D01*
X133393156Y-111278985D01*
X133396997Y-111289832D01*
X133483185Y-111476789D01*
X133488936Y-111486750D01*
X133607754Y-111654873D01*
X133615225Y-111663621D01*
X133754618Y-111799411D01*
X133789456Y-111861272D01*
X133785319Y-111932148D01*
X133749774Y-111984396D01*
X133652342Y-112069842D01*
X133648770Y-112074373D01*
X133544310Y-112206880D01*
X133517681Y-112240658D01*
X133416405Y-112433154D01*
X133351903Y-112640882D01*
X133326337Y-112856887D01*
X133340563Y-113073933D01*
X133341984Y-113079529D01*
X133341985Y-113079534D01*
X133373013Y-113201703D01*
X133394105Y-113284753D01*
X133396522Y-113289996D01*
X133461977Y-113431979D01*
X133485168Y-113482285D01*
X133488501Y-113487001D01*
X133599979Y-113644738D01*
X133610704Y-113659914D01*
X133614846Y-113663949D01*
X133754241Y-113799741D01*
X133789079Y-113861602D01*
X133784942Y-113932478D01*
X133749399Y-113984726D01*
X133652342Y-114069842D01*
X133648770Y-114074373D01*
X133607545Y-114126667D01*
X133517681Y-114240658D01*
X133416405Y-114433154D01*
X133414692Y-114438671D01*
X133367022Y-114592193D01*
X133351903Y-114640882D01*
X133326337Y-114856887D01*
X133340563Y-115073933D01*
X133341984Y-115079529D01*
X133341985Y-115079534D01*
X133370429Y-115191531D01*
X133394105Y-115284753D01*
X133485168Y-115482285D01*
X133488501Y-115487001D01*
X133602377Y-115648131D01*
X133610704Y-115659914D01*
X133614846Y-115663949D01*
X133754241Y-115799741D01*
X133789079Y-115861602D01*
X133784942Y-115932478D01*
X133749399Y-115984726D01*
X133652342Y-116069842D01*
X133648770Y-116074373D01*
X133527098Y-116228713D01*
X133517681Y-116240658D01*
X133416405Y-116433154D01*
X133414692Y-116438671D01*
X133360630Y-116612778D01*
X133351903Y-116640882D01*
X133326337Y-116856887D01*
X133340563Y-117073933D01*
X133394105Y-117284753D01*
X133485168Y-117482285D01*
X133610704Y-117659914D01*
X133754602Y-117800093D01*
X133789438Y-117861952D01*
X133785301Y-117932828D01*
X133749756Y-117985077D01*
X133657052Y-118066376D01*
X133649130Y-118074724D01*
X133521680Y-118236394D01*
X133515409Y-118246050D01*
X133419560Y-118428229D01*
X133415155Y-118438863D01*
X133359936Y-118616700D01*
X133359718Y-118630799D01*
X133366450Y-118634000D01*
X134642500Y-118634000D01*
X134710621Y-118654002D01*
X134757114Y-118707658D01*
X134768500Y-118760000D01*
X134768500Y-119016000D01*
X134748498Y-119084121D01*
X134694842Y-119130614D01*
X134642500Y-119142000D01*
X133376481Y-119142000D01*
X133362950Y-119145973D01*
X133361658Y-119154962D01*
X133393156Y-119278985D01*
X133396997Y-119289832D01*
X133483185Y-119476789D01*
X133488936Y-119486750D01*
X133607754Y-119654873D01*
X133615225Y-119663621D01*
X133754618Y-119799411D01*
X133789456Y-119861272D01*
X133785319Y-119932148D01*
X133749774Y-119984396D01*
X133652342Y-120069842D01*
X133648770Y-120074373D01*
X133528171Y-120227352D01*
X133517681Y-120240658D01*
X133514993Y-120245767D01*
X133502614Y-120269296D01*
X133416405Y-120433154D01*
X133414692Y-120438671D01*
X133382891Y-120541087D01*
X133351903Y-120640882D01*
X133326337Y-120856887D01*
X133340563Y-121073933D01*
X133341984Y-121079529D01*
X133341985Y-121079534D01*
X133392684Y-121279158D01*
X133394105Y-121284753D01*
X133485168Y-121482285D01*
X133488501Y-121487001D01*
X133605565Y-121652642D01*
X133610704Y-121659914D01*
X133614846Y-121663949D01*
X133623708Y-121672582D01*
X133732519Y-121778580D01*
X133754241Y-121799741D01*
X133789079Y-121861602D01*
X133784942Y-121932478D01*
X133749399Y-121984726D01*
X133652342Y-122069842D01*
X133648770Y-122074373D01*
X133537624Y-122215361D01*
X133517681Y-122240658D01*
X133416405Y-122433154D01*
X133414692Y-122438671D01*
X133354423Y-122632767D01*
X133351903Y-122640882D01*
X133326337Y-122856887D01*
X133340563Y-123073933D01*
X133341984Y-123079529D01*
X133341985Y-123079534D01*
X133370213Y-123190680D01*
X133394105Y-123284753D01*
X133485168Y-123482285D01*
X133488501Y-123487001D01*
X133596116Y-123639272D01*
X133610704Y-123659914D01*
X133614846Y-123663949D01*
X133670598Y-123718260D01*
X133699478Y-123746393D01*
X133754241Y-123799741D01*
X133789079Y-123861602D01*
X133784942Y-123932478D01*
X133749399Y-123984726D01*
X133652342Y-124069842D01*
X133648770Y-124074373D01*
X133607545Y-124126667D01*
X133517681Y-124240658D01*
X133416405Y-124433154D01*
X133351903Y-124640882D01*
X133326337Y-124856887D01*
X133340563Y-125073933D01*
X133341984Y-125079529D01*
X133341985Y-125079534D01*
X133390618Y-125271023D01*
X133394105Y-125284753D01*
X133485168Y-125482285D01*
X133610704Y-125659914D01*
X133614846Y-125663949D01*
X133754241Y-125799741D01*
X133789079Y-125861602D01*
X133784942Y-125932478D01*
X133749399Y-125984726D01*
X133652342Y-126069842D01*
X133648770Y-126074373D01*
X133590021Y-126148896D01*
X133517681Y-126240658D01*
X133416405Y-126433154D01*
X133414692Y-126438671D01*
X133389993Y-126518215D01*
X133351903Y-126640882D01*
X133326337Y-126856887D01*
X133023000Y-126856887D01*
X133023000Y-108856887D01*
X133326337Y-108856887D01*
X133340563Y-109073933D01*
X133341984Y-109079529D01*
X133341985Y-109079534D01*
X133391181Y-109273240D01*
X133394105Y-109284753D01*
X133396522Y-109289996D01*
X133421209Y-109343547D01*
X133485168Y-109482285D01*
X133488501Y-109487001D01*
X133576230Y-109611134D01*
X133610704Y-109659914D01*
X133754602Y-109800093D01*
X133789438Y-109861952D01*
X133785301Y-109932828D01*
X133749756Y-109985077D01*
X133657052Y-110066376D01*
X133649130Y-110074724D01*
X133521680Y-110236394D01*
X133515409Y-110246050D01*
X133419560Y-110428229D01*
X133415155Y-110438863D01*
X133359936Y-110616700D01*
X133359718Y-110630799D01*
X133366450Y-110634000D01*
X137653985Y-110634000D01*
X137667516Y-110630027D01*
X137668685Y-110621892D01*
X137625225Y-110467794D01*
X137621103Y-110457055D01*
X137530049Y-110272417D01*
X137524035Y-110262603D01*
X137448565Y-110161535D01*
X137423833Y-110094985D01*
X137439008Y-110025629D01*
X137473958Y-109985321D01*
X137545580Y-109931643D01*
X137545581Y-109931642D01*
X137552761Y-109926261D01*
X137640115Y-109809705D01*
X137691245Y-109673316D01*
X137698000Y-109611134D01*
X137698000Y-108763185D01*
X137718002Y-108695064D01*
X137734905Y-108674090D01*
X139895216Y-106513780D01*
X139901482Y-106507926D01*
X139939559Y-106474710D01*
X139939561Y-106474708D01*
X139945281Y-106469718D01*
X139982191Y-106417199D01*
X139986125Y-106411902D01*
X139992178Y-106404183D01*
X141759889Y-106404183D01*
X141761412Y-106412607D01*
X141773792Y-106416000D01*
X142823385Y-106416000D01*
X142838624Y-106411525D01*
X142839829Y-106410135D01*
X142841500Y-106402452D01*
X142841500Y-106397885D01*
X143349500Y-106397885D01*
X143353975Y-106413124D01*
X143355365Y-106414329D01*
X143363048Y-106416000D01*
X144413844Y-106416000D01*
X144427375Y-106412027D01*
X144428680Y-106402947D01*
X144386714Y-106235875D01*
X144383394Y-106226124D01*
X144298472Y-106030814D01*
X144293605Y-106021739D01*
X144177926Y-105842926D01*
X144171636Y-105834757D01*
X144028306Y-105677240D01*
X144020773Y-105670215D01*
X143853639Y-105538222D01*
X143845052Y-105532517D01*
X143658617Y-105429599D01*
X143649205Y-105425369D01*
X143448459Y-105354280D01*
X143438488Y-105351646D01*
X143367337Y-105338972D01*
X143354040Y-105340432D01*
X143349500Y-105354989D01*
X143349500Y-106397885D01*
X142841500Y-106397885D01*
X142841500Y-105353102D01*
X142837582Y-105339758D01*
X142823306Y-105337771D01*
X142784824Y-105343660D01*
X142774788Y-105346051D01*
X142572368Y-105412212D01*
X142562859Y-105416209D01*
X142373963Y-105514542D01*
X142365238Y-105520036D01*
X142194933Y-105647905D01*
X142187226Y-105654748D01*
X142040090Y-105808717D01*
X142033604Y-105816727D01*
X141913598Y-105992649D01*
X141908500Y-106001623D01*
X141818838Y-106194783D01*
X141815275Y-106204470D01*
X141759889Y-106404183D01*
X139992178Y-106404183D01*
X140021046Y-106367366D01*
X140021050Y-106367360D01*
X140025733Y-106361387D01*
X140028858Y-106354466D01*
X140030072Y-106352461D01*
X140038842Y-106337087D01*
X140039960Y-106335001D01*
X140044330Y-106328784D01*
X140067649Y-106268974D01*
X140070205Y-106262892D01*
X140082404Y-106235875D01*
X140096620Y-106204390D01*
X140098004Y-106196921D01*
X140098712Y-106194663D01*
X140103562Y-106177634D01*
X140104143Y-106175370D01*
X140106903Y-106168292D01*
X140115286Y-106104621D01*
X140116312Y-106098146D01*
X140128012Y-106035016D01*
X140127247Y-106021739D01*
X140124409Y-105972530D01*
X140124200Y-105965277D01*
X140124200Y-97992700D01*
X140144202Y-97924579D01*
X140197858Y-97878086D01*
X140250200Y-97866700D01*
X152845470Y-97866700D01*
X152854040Y-97866992D01*
X152904446Y-97870429D01*
X152904450Y-97870429D01*
X152912021Y-97870945D01*
X152919497Y-97869640D01*
X152919500Y-97869640D01*
X152975283Y-97859904D01*
X152981808Y-97858941D01*
X153037967Y-97852145D01*
X153037968Y-97852145D01*
X153045511Y-97851232D01*
X153052619Y-97848546D01*
X153054919Y-97847981D01*
X153071980Y-97843314D01*
X153074234Y-97842634D01*
X153081715Y-97841328D01*
X153140505Y-97815521D01*
X153146602Y-97813033D01*
X153199547Y-97793027D01*
X153199550Y-97793026D01*
X153206649Y-97790343D01*
X153212904Y-97786044D01*
X153214995Y-97784951D01*
X153230457Y-97776345D01*
X153232491Y-97775142D01*
X153239446Y-97772089D01*
X153245471Y-97767466D01*
X153245476Y-97767463D01*
X153290374Y-97733012D01*
X153295709Y-97729136D01*
X153342347Y-97697082D01*
X153342353Y-97697077D01*
X153348612Y-97692775D01*
X153390263Y-97646027D01*
X153395243Y-97640752D01*
X153719697Y-97316298D01*
X153769856Y-97285560D01*
X153838909Y-97263124D01*
X153838912Y-97263123D01*
X153845608Y-97260947D01*
X154001412Y-97168069D01*
X154132766Y-97042982D01*
X154233143Y-96891902D01*
X154281099Y-96765658D01*
X154295055Y-96728920D01*
X154295056Y-96728918D01*
X154297555Y-96722338D01*
X154302488Y-96687239D01*
X154322248Y-96546639D01*
X154322248Y-96546636D01*
X154322799Y-96542717D01*
X154323116Y-96520000D01*
X154302897Y-96339745D01*
X154292543Y-96310011D01*
X154245564Y-96175106D01*
X154245562Y-96175103D01*
X154243245Y-96168448D01*
X154216672Y-96125922D01*
X154150859Y-96020598D01*
X154147126Y-96014624D01*
X154138335Y-96005771D01*
X154024278Y-95890915D01*
X154024274Y-95890912D01*
X154019315Y-95885918D01*
X154008197Y-95878862D01*
X153907301Y-95814832D01*
X153866166Y-95788727D01*
X153836963Y-95778328D01*
X153701925Y-95730243D01*
X153701920Y-95730242D01*
X153695290Y-95727881D01*
X153688302Y-95727048D01*
X153688299Y-95727047D01*
X153565198Y-95712368D01*
X153515180Y-95706404D01*
X153508177Y-95707140D01*
X153508176Y-95707140D01*
X153341788Y-95724628D01*
X153341786Y-95724629D01*
X153334788Y-95725364D01*
X153163079Y-95783818D01*
X153112667Y-95814832D01*
X153014595Y-95875166D01*
X153014592Y-95875168D01*
X153008588Y-95878862D01*
X153003553Y-95883793D01*
X153003550Y-95883795D01*
X152990643Y-95896435D01*
X152878993Y-96005771D01*
X152780735Y-96158238D01*
X152778326Y-96164858D01*
X152778324Y-96164861D01*
X152742201Y-96264109D01*
X152712895Y-96310109D01*
X152616609Y-96406395D01*
X152554297Y-96440421D01*
X152527514Y-96443300D01*
X139759486Y-96443300D01*
X139691365Y-96423298D01*
X139670390Y-96406395D01*
X139145104Y-95881108D01*
X139111079Y-95818796D01*
X139108200Y-95792013D01*
X139108200Y-94863540D01*
X139128202Y-94795419D01*
X139181858Y-94748926D01*
X139252132Y-94738822D01*
X139278114Y-94745440D01*
X139342668Y-94769448D01*
X139426495Y-94780633D01*
X139515480Y-94792507D01*
X139515484Y-94792507D01*
X139522461Y-94793438D01*
X139529472Y-94792800D01*
X139529476Y-94792800D01*
X139671959Y-94779832D01*
X139703100Y-94776998D01*
X139709802Y-94774820D01*
X139709804Y-94774820D01*
X139868909Y-94723124D01*
X139868912Y-94723123D01*
X139875608Y-94720947D01*
X139991142Y-94652075D01*
X140025360Y-94631677D01*
X140025362Y-94631676D01*
X140031412Y-94628069D01*
X140162766Y-94502982D01*
X140263143Y-94351902D01*
X140327555Y-94182338D01*
X140336181Y-94120963D01*
X140352248Y-94006639D01*
X140352248Y-94006636D01*
X140352799Y-94002717D01*
X140353116Y-93980000D01*
X140332897Y-93799745D01*
X140273245Y-93628448D01*
X140258302Y-93604534D01*
X140219546Y-93542510D01*
X140200400Y-93475741D01*
X140200400Y-86050944D01*
X140220402Y-85982823D01*
X140237305Y-85961849D01*
X140406733Y-85792421D01*
X140465375Y-85760844D01*
X140465100Y-85759998D01*
X140489835Y-85751961D01*
X140630909Y-85706124D01*
X140630912Y-85706123D01*
X140637608Y-85703947D01*
X140734013Y-85646478D01*
X140787360Y-85614677D01*
X140787362Y-85614676D01*
X140793412Y-85611069D01*
X140924766Y-85485982D01*
X141025143Y-85334902D01*
X141080474Y-85189243D01*
X141087055Y-85171920D01*
X141087056Y-85171918D01*
X141089555Y-85165338D01*
X141114799Y-84985717D01*
X141115116Y-84963000D01*
X141094897Y-84782745D01*
X141092580Y-84776091D01*
X141037564Y-84618106D01*
X141037562Y-84618103D01*
X141035245Y-84611448D01*
X140939126Y-84457624D01*
X140925441Y-84443843D01*
X140816278Y-84333915D01*
X140816274Y-84333912D01*
X140811315Y-84328918D01*
X140800197Y-84321862D01*
X140727170Y-84275518D01*
X140658166Y-84231727D01*
X140628963Y-84221328D01*
X140493925Y-84173243D01*
X140493920Y-84173242D01*
X140487290Y-84170881D01*
X140480302Y-84170048D01*
X140480299Y-84170047D01*
X140357198Y-84155368D01*
X140307180Y-84149404D01*
X140300177Y-84150140D01*
X140300176Y-84150140D01*
X140133788Y-84167628D01*
X140133786Y-84167629D01*
X140126788Y-84168364D01*
X139955079Y-84226818D01*
X139894719Y-84263952D01*
X139806595Y-84318166D01*
X139806592Y-84318168D01*
X139800588Y-84321862D01*
X139795553Y-84326793D01*
X139795550Y-84326795D01*
X139676025Y-84443843D01*
X139670993Y-84448771D01*
X139572735Y-84601238D01*
X139570326Y-84607858D01*
X139570324Y-84607861D01*
X139565802Y-84620285D01*
X139510697Y-84771685D01*
X139509814Y-84778673D01*
X139509813Y-84778678D01*
X139509241Y-84783210D01*
X139480861Y-84848288D01*
X139473329Y-84856518D01*
X139091461Y-85238386D01*
X139085196Y-85244239D01*
X139067442Y-85259727D01*
X139002960Y-85289436D01*
X138932653Y-85279567D01*
X138917097Y-85271164D01*
X138886111Y-85251499D01*
X138886106Y-85251496D01*
X138880166Y-85247727D01*
X138862465Y-85241424D01*
X138715925Y-85189243D01*
X138715920Y-85189242D01*
X138709290Y-85186881D01*
X138702302Y-85186048D01*
X138702299Y-85186047D01*
X138579198Y-85171368D01*
X138529180Y-85165404D01*
X138522177Y-85166140D01*
X138522176Y-85166140D01*
X138355788Y-85183628D01*
X138355786Y-85183629D01*
X138348788Y-85184364D01*
X138177079Y-85242818D01*
X138117415Y-85279524D01*
X138028595Y-85334166D01*
X138028592Y-85334168D01*
X138022588Y-85337862D01*
X137912156Y-85446005D01*
X137849492Y-85479374D01*
X137778734Y-85473568D01*
X137722347Y-85430429D01*
X137698234Y-85363652D01*
X137698000Y-85355980D01*
X137698000Y-84689866D01*
X137691245Y-84627684D01*
X137640115Y-84491295D01*
X137552761Y-84374739D01*
X137436205Y-84287385D01*
X137299816Y-84236255D01*
X137237634Y-84229500D01*
X135791366Y-84229500D01*
X135729184Y-84236255D01*
X135592795Y-84287385D01*
X135476239Y-84374739D01*
X135420979Y-84448473D01*
X135420038Y-84449728D01*
X135363179Y-84492243D01*
X135292360Y-84497269D01*
X135242512Y-84474129D01*
X135242295Y-84473963D01*
X135238056Y-84470044D01*
X135054099Y-84353976D01*
X134852072Y-84273376D01*
X134638739Y-84230941D01*
X134632964Y-84230865D01*
X134632960Y-84230865D01*
X134523919Y-84229438D01*
X134421246Y-84228094D01*
X134415549Y-84229073D01*
X134415548Y-84229073D01*
X134212565Y-84263952D01*
X134212562Y-84263953D01*
X134206875Y-84264930D01*
X134002807Y-84340214D01*
X133815876Y-84451427D01*
X133652342Y-84594842D01*
X133517681Y-84765658D01*
X133514993Y-84770767D01*
X133505009Y-84789744D01*
X133416405Y-84958154D01*
X133414692Y-84963671D01*
X133354237Y-85158366D01*
X133351903Y-85165882D01*
X133326337Y-85381887D01*
X133340563Y-85598933D01*
X133341984Y-85604529D01*
X133341985Y-85604534D01*
X133388500Y-85787685D01*
X133394105Y-85809753D01*
X133396522Y-85814996D01*
X133473891Y-85982823D01*
X133485168Y-86007285D01*
X133488501Y-86012001D01*
X133576230Y-86136134D01*
X133610704Y-86184914D01*
X133754602Y-86325093D01*
X133789438Y-86386952D01*
X133785301Y-86457828D01*
X133749756Y-86510077D01*
X133657052Y-86591376D01*
X133649130Y-86599724D01*
X133521680Y-86761394D01*
X133515409Y-86771050D01*
X133419560Y-86953229D01*
X133415155Y-86963863D01*
X133359936Y-87141700D01*
X133359718Y-87155799D01*
X133366450Y-87159000D01*
X137653985Y-87159000D01*
X137667516Y-87155027D01*
X137668685Y-87146892D01*
X137625225Y-86992794D01*
X137621103Y-86982055D01*
X137530049Y-86797417D01*
X137524035Y-86787603D01*
X137448565Y-86686535D01*
X137423833Y-86619985D01*
X137439008Y-86550629D01*
X137473958Y-86510321D01*
X137545580Y-86456643D01*
X137545581Y-86456642D01*
X137552761Y-86451261D01*
X137613112Y-86370736D01*
X137669970Y-86328221D01*
X137740789Y-86323195D01*
X137803082Y-86357255D01*
X137821713Y-86381030D01*
X137875232Y-86469401D01*
X137878880Y-86475424D01*
X137883769Y-86480487D01*
X137883770Y-86480488D01*
X137912344Y-86510077D01*
X138004882Y-86605902D01*
X138010774Y-86609757D01*
X138010778Y-86609761D01*
X138115192Y-86678087D01*
X138161241Y-86732124D01*
X138172199Y-86783519D01*
X138172199Y-93018615D01*
X138152197Y-93086736D01*
X138135294Y-93107710D01*
X137913784Y-93329220D01*
X137907531Y-93335063D01*
X137897360Y-93343936D01*
X137832882Y-93373644D01*
X137762575Y-93363778D01*
X137708762Y-93317466D01*
X137689059Y-93260518D01*
X137683696Y-93202156D01*
X137683696Y-93202155D01*
X137683167Y-93196400D01*
X137624126Y-92987055D01*
X137527923Y-92791974D01*
X137414600Y-92640215D01*
X137401233Y-92622315D01*
X137401232Y-92622314D01*
X137397780Y-92617691D01*
X137275578Y-92504729D01*
X137239133Y-92443800D01*
X137241414Y-92372840D01*
X137280538Y-92315330D01*
X137350508Y-92257137D01*
X137354946Y-92253446D01*
X137494032Y-92086213D01*
X137600313Y-91896435D01*
X137602169Y-91890968D01*
X137602171Y-91890963D01*
X137668374Y-91695935D01*
X137668375Y-91695930D01*
X137670230Y-91690466D01*
X137701441Y-91475205D01*
X137703070Y-91413000D01*
X137683167Y-91196400D01*
X137624126Y-90987055D01*
X137527923Y-90791974D01*
X137414600Y-90640215D01*
X137401233Y-90622315D01*
X137401232Y-90622314D01*
X137397780Y-90617691D01*
X137275578Y-90504729D01*
X137239133Y-90443800D01*
X137241414Y-90372840D01*
X137280538Y-90315330D01*
X137350508Y-90257137D01*
X137354946Y-90253446D01*
X137494032Y-90086213D01*
X137600313Y-89896435D01*
X137602169Y-89890968D01*
X137602171Y-89890963D01*
X137668374Y-89695935D01*
X137668375Y-89695930D01*
X137670230Y-89690466D01*
X137701441Y-89475205D01*
X137703070Y-89413000D01*
X137683167Y-89196400D01*
X137624126Y-88987055D01*
X137527923Y-88791974D01*
X137414600Y-88640215D01*
X137401233Y-88622315D01*
X137401232Y-88622314D01*
X137397780Y-88617691D01*
X137275208Y-88504387D01*
X137238763Y-88443458D01*
X137241044Y-88372499D01*
X137280168Y-88314988D01*
X137350153Y-88256782D01*
X137358282Y-88248653D01*
X137489920Y-88090375D01*
X137496444Y-88080882D01*
X137597031Y-87901272D01*
X137601710Y-87890763D01*
X137667886Y-87695817D01*
X137670517Y-87684857D01*
X137668540Y-87670992D01*
X137654974Y-87667000D01*
X133376481Y-87667000D01*
X133362950Y-87670973D01*
X133361658Y-87679962D01*
X133393156Y-87803985D01*
X133396997Y-87814832D01*
X133483185Y-88001789D01*
X133488936Y-88011750D01*
X133607754Y-88179873D01*
X133615225Y-88188621D01*
X133754618Y-88324411D01*
X133789456Y-88386272D01*
X133785319Y-88457148D01*
X133749774Y-88509396D01*
X133652342Y-88594842D01*
X133648770Y-88599373D01*
X133607545Y-88651667D01*
X133517681Y-88765658D01*
X133416405Y-88958154D01*
X133351903Y-89165882D01*
X133326337Y-89381887D01*
X133340563Y-89598933D01*
X133341984Y-89604529D01*
X133341985Y-89604534D01*
X133392684Y-89804158D01*
X133394105Y-89809753D01*
X133485168Y-90007285D01*
X133610704Y-90184914D01*
X133614846Y-90188949D01*
X133754241Y-90324741D01*
X133789079Y-90386602D01*
X133784942Y-90457478D01*
X133749399Y-90509726D01*
X133652342Y-90594842D01*
X133648770Y-90599373D01*
X133607545Y-90651667D01*
X133517681Y-90765658D01*
X133416405Y-90958154D01*
X133351903Y-91165882D01*
X133326337Y-91381887D01*
X133340563Y-91598933D01*
X133341984Y-91604529D01*
X133341985Y-91604534D01*
X133392684Y-91804158D01*
X133394105Y-91809753D01*
X133485168Y-92007285D01*
X133610704Y-92184914D01*
X133614846Y-92188949D01*
X133754241Y-92324741D01*
X133789079Y-92386602D01*
X133784942Y-92457478D01*
X133749399Y-92509726D01*
X133652342Y-92594842D01*
X133648770Y-92599373D01*
X133607545Y-92651667D01*
X133517681Y-92765658D01*
X133416405Y-92958154D01*
X133414692Y-92963671D01*
X133381426Y-93070805D01*
X133351903Y-93165882D01*
X133326337Y-93381887D01*
X133340563Y-93598933D01*
X133341984Y-93604529D01*
X133341985Y-93604534D01*
X133389873Y-93793091D01*
X133394105Y-93809753D01*
X133396522Y-93814996D01*
X133474416Y-93983962D01*
X133485168Y-94007285D01*
X133610704Y-94184914D01*
X133754602Y-94325093D01*
X133789438Y-94386952D01*
X133785301Y-94457828D01*
X133749756Y-94510077D01*
X133657052Y-94591376D01*
X133649130Y-94599724D01*
X133521680Y-94761394D01*
X133515409Y-94771050D01*
X133419560Y-94953229D01*
X133415155Y-94963863D01*
X133359936Y-95141700D01*
X133359718Y-95155799D01*
X133366450Y-95159000D01*
X134642500Y-95159000D01*
X134710621Y-95179002D01*
X134757114Y-95232658D01*
X134768500Y-95285000D01*
X134768500Y-95541000D01*
X134748498Y-95609121D01*
X134694842Y-95655614D01*
X134642500Y-95667000D01*
X133376481Y-95667000D01*
X133362950Y-95670973D01*
X133361658Y-95679962D01*
X133393156Y-95803985D01*
X133396997Y-95814832D01*
X133483185Y-96001789D01*
X133488936Y-96011750D01*
X133607754Y-96179873D01*
X133615225Y-96188621D01*
X133754618Y-96324411D01*
X133789456Y-96386272D01*
X133785319Y-96457148D01*
X133749774Y-96509396D01*
X133652342Y-96594842D01*
X133648770Y-96599373D01*
X133607545Y-96651667D01*
X133517681Y-96765658D01*
X133416405Y-96958154D01*
X133351903Y-97165882D01*
X133326337Y-97381887D01*
X133340563Y-97598933D01*
X133341984Y-97604529D01*
X133341985Y-97604534D01*
X133384539Y-97772089D01*
X133394105Y-97809753D01*
X133485168Y-98007285D01*
X133610704Y-98184914D01*
X133614846Y-98188949D01*
X133754241Y-98324741D01*
X133789079Y-98386602D01*
X133784942Y-98457478D01*
X133749399Y-98509726D01*
X133652342Y-98594842D01*
X133648770Y-98599373D01*
X133607545Y-98651667D01*
X133517681Y-98765658D01*
X133416405Y-98958154D01*
X133351903Y-99165882D01*
X133326337Y-99381887D01*
X133340563Y-99598933D01*
X133341984Y-99604529D01*
X133341985Y-99604534D01*
X133392684Y-99804158D01*
X133394105Y-99809753D01*
X133485168Y-100007285D01*
X133610704Y-100184914D01*
X133614846Y-100188949D01*
X133754241Y-100324741D01*
X133789079Y-100386602D01*
X133784942Y-100457478D01*
X133749399Y-100509726D01*
X133652342Y-100594842D01*
X133648770Y-100599373D01*
X133607545Y-100651667D01*
X133517681Y-100765658D01*
X133416405Y-100958154D01*
X133351903Y-101165882D01*
X133326337Y-101381887D01*
X133340563Y-101598933D01*
X133341984Y-101604529D01*
X133341985Y-101604534D01*
X133391012Y-101797574D01*
X133394105Y-101809753D01*
X133396522Y-101814996D01*
X133471738Y-101978154D01*
X133485168Y-102007285D01*
X133488501Y-102012001D01*
X133535304Y-102078225D01*
X133610704Y-102184914D01*
X133614846Y-102188949D01*
X133754241Y-102324741D01*
X133789079Y-102386602D01*
X133784942Y-102457478D01*
X133749399Y-102509726D01*
X133652342Y-102594842D01*
X133648770Y-102599373D01*
X133607545Y-102651667D01*
X133517681Y-102765658D01*
X133416405Y-102958154D01*
X133414692Y-102963671D01*
X133359292Y-103142087D01*
X133351903Y-103165882D01*
X133351224Y-103171619D01*
X133328511Y-103363522D01*
X133326337Y-103381887D01*
X133340563Y-103598933D01*
X133341984Y-103604529D01*
X133341985Y-103604534D01*
X133392684Y-103804158D01*
X133394105Y-103809753D01*
X133485168Y-104007285D01*
X133610704Y-104184914D01*
X133766509Y-104336692D01*
X133947363Y-104457536D01*
X133952671Y-104459817D01*
X133952672Y-104459817D01*
X134141909Y-104541119D01*
X134141912Y-104541120D01*
X134147212Y-104543397D01*
X134152842Y-104544671D01*
X134250964Y-104566874D01*
X134359360Y-104591402D01*
X134365131Y-104591629D01*
X134365133Y-104591629D01*
X134438120Y-104594496D01*
X134576705Y-104599941D01*
X134791966Y-104568730D01*
X134797430Y-104566875D01*
X134797435Y-104566874D01*
X134992463Y-104500671D01*
X134992468Y-104500669D01*
X134997935Y-104498813D01*
X135187713Y-104392532D01*
X135354946Y-104253446D01*
X135414752Y-104181537D01*
X135473689Y-104141953D01*
X135544671Y-104140517D01*
X135607413Y-104180258D01*
X135610704Y-104184914D01*
X135614846Y-104188949D01*
X135614848Y-104188951D01*
X135681054Y-104253446D01*
X135766509Y-104336692D01*
X135947363Y-104457536D01*
X135952671Y-104459817D01*
X135952672Y-104459817D01*
X136141909Y-104541119D01*
X136141912Y-104541120D01*
X136147212Y-104543397D01*
X136152842Y-104544671D01*
X136250964Y-104566874D01*
X136359360Y-104591402D01*
X136365131Y-104591629D01*
X136365133Y-104591629D01*
X136438120Y-104594496D01*
X136576705Y-104599941D01*
X136791966Y-104568730D01*
X136797430Y-104566875D01*
X136797435Y-104566874D01*
X136992463Y-104500671D01*
X136992468Y-104500669D01*
X136997935Y-104498813D01*
X137187713Y-104392532D01*
X137354946Y-104253446D01*
X137494032Y-104086213D01*
X137600313Y-103896435D01*
X137602169Y-103890968D01*
X137602171Y-103890963D01*
X137668374Y-103695935D01*
X137668375Y-103695930D01*
X137670230Y-103690466D01*
X137701441Y-103475205D01*
X137703070Y-103413000D01*
X137683167Y-103196400D01*
X137624126Y-102987055D01*
X137527923Y-102791974D01*
X137414600Y-102640215D01*
X137401233Y-102622315D01*
X137401232Y-102622314D01*
X137397780Y-102617691D01*
X137275578Y-102504729D01*
X137239133Y-102443800D01*
X137241414Y-102372840D01*
X137280538Y-102315330D01*
X137350508Y-102257137D01*
X137354946Y-102253446D01*
X137494032Y-102086213D01*
X137582812Y-101927686D01*
X137597489Y-101901478D01*
X137597490Y-101901476D01*
X137600313Y-101896435D01*
X137602169Y-101890968D01*
X137602171Y-101890963D01*
X137668374Y-101695935D01*
X137668375Y-101695930D01*
X137670230Y-101690466D01*
X137701441Y-101475205D01*
X137703070Y-101413000D01*
X137683167Y-101196400D01*
X137624126Y-100987055D01*
X137527923Y-100791974D01*
X137414600Y-100640215D01*
X137401233Y-100622315D01*
X137401232Y-100622314D01*
X137397780Y-100617691D01*
X137275578Y-100504729D01*
X137239133Y-100443800D01*
X137241414Y-100372840D01*
X137280538Y-100315330D01*
X137350508Y-100257137D01*
X137354946Y-100253446D01*
X137494032Y-100086213D01*
X137600313Y-99896435D01*
X137602169Y-99890968D01*
X137602171Y-99890963D01*
X137668374Y-99695935D01*
X137668375Y-99695930D01*
X137670230Y-99690466D01*
X137701441Y-99475205D01*
X137703070Y-99413000D01*
X137683167Y-99196400D01*
X137624126Y-98987055D01*
X137527923Y-98791974D01*
X137414600Y-98640215D01*
X137401233Y-98622315D01*
X137401232Y-98622314D01*
X137397780Y-98617691D01*
X137275578Y-98504729D01*
X137239133Y-98443800D01*
X137241414Y-98372840D01*
X137280538Y-98315330D01*
X137350508Y-98257137D01*
X137354946Y-98253446D01*
X137494032Y-98086213D01*
X137600313Y-97896435D01*
X137602169Y-97890968D01*
X137602171Y-97890963D01*
X137668374Y-97695935D01*
X137668375Y-97695930D01*
X137670230Y-97690466D01*
X137701441Y-97475205D01*
X137703070Y-97413000D01*
X137683167Y-97196400D01*
X137676195Y-97171677D01*
X137625695Y-96992619D01*
X137624126Y-96987055D01*
X137527923Y-96791974D01*
X137480839Y-96728920D01*
X137401233Y-96622315D01*
X137401232Y-96622314D01*
X137397780Y-96617691D01*
X137392827Y-96613112D01*
X137275578Y-96504729D01*
X137239133Y-96443800D01*
X137241414Y-96372840D01*
X137280538Y-96315330D01*
X137280950Y-96314988D01*
X137354946Y-96253446D01*
X137408588Y-96188949D01*
X137461007Y-96125922D01*
X137519945Y-96086338D01*
X137590927Y-96084902D01*
X137651417Y-96122069D01*
X137682005Y-96184828D01*
X137691596Y-96239783D01*
X137692559Y-96246308D01*
X137699355Y-96302467D01*
X137700268Y-96310011D01*
X137702954Y-96317119D01*
X137703519Y-96319419D01*
X137708186Y-96336480D01*
X137708866Y-96338734D01*
X137710172Y-96346215D01*
X137713224Y-96353167D01*
X137735975Y-96404995D01*
X137738467Y-96411102D01*
X137753705Y-96451427D01*
X137761157Y-96471149D01*
X137765456Y-96477404D01*
X137766549Y-96479495D01*
X137775155Y-96494957D01*
X137776358Y-96496991D01*
X137779411Y-96503946D01*
X137784034Y-96509971D01*
X137784037Y-96509976D01*
X137818488Y-96554874D01*
X137822364Y-96560209D01*
X137854418Y-96606847D01*
X137854423Y-96606853D01*
X137858725Y-96613112D01*
X137901997Y-96651667D01*
X137905472Y-96654763D01*
X137910747Y-96659743D01*
X138663895Y-97412891D01*
X138697921Y-97475203D01*
X138700800Y-97501986D01*
X138700800Y-105643015D01*
X138680798Y-105711136D01*
X138663895Y-105732110D01*
X136728409Y-107667595D01*
X136666097Y-107701621D01*
X136639314Y-107704500D01*
X135791366Y-107704500D01*
X135729184Y-107711255D01*
X135592795Y-107762385D01*
X135476239Y-107849739D01*
X135420979Y-107923473D01*
X135420038Y-107924728D01*
X135363179Y-107967243D01*
X135292360Y-107972269D01*
X135242512Y-107949129D01*
X135242295Y-107948963D01*
X135238056Y-107945044D01*
X135054099Y-107828976D01*
X134852072Y-107748376D01*
X134638739Y-107705941D01*
X134632964Y-107705865D01*
X134632960Y-107705865D01*
X134523919Y-107704438D01*
X134421246Y-107703094D01*
X134415549Y-107704073D01*
X134415548Y-107704073D01*
X134212565Y-107738952D01*
X134212562Y-107738953D01*
X134206875Y-107739930D01*
X134002807Y-107815214D01*
X133815876Y-107926427D01*
X133652342Y-108069842D01*
X133648770Y-108074373D01*
X133539445Y-108213051D01*
X133517681Y-108240658D01*
X133416405Y-108433154D01*
X133414692Y-108438671D01*
X133376422Y-108561920D01*
X133351903Y-108640882D01*
X133326337Y-108856887D01*
X133023000Y-108856887D01*
X133023000Y-79906887D01*
X133326337Y-79906887D01*
X133340563Y-80123933D01*
X133341984Y-80129529D01*
X133341985Y-80129534D01*
X133370613Y-80242254D01*
X133394105Y-80334753D01*
X133485168Y-80532285D01*
X133610704Y-80709914D01*
X133766509Y-80861692D01*
X133947363Y-80982536D01*
X133952671Y-80984817D01*
X133952672Y-80984817D01*
X134141909Y-81066119D01*
X134141912Y-81066120D01*
X134147212Y-81068397D01*
X134152842Y-81069671D01*
X134250964Y-81091874D01*
X134359360Y-81116402D01*
X134365131Y-81116629D01*
X134365133Y-81116629D01*
X134438120Y-81119496D01*
X134576705Y-81124941D01*
X134791966Y-81093730D01*
X134797430Y-81091875D01*
X134797435Y-81091874D01*
X134992463Y-81025671D01*
X134992468Y-81025669D01*
X134997935Y-81023813D01*
X135187713Y-80917532D01*
X135354946Y-80778446D01*
X135414752Y-80706537D01*
X135473689Y-80666953D01*
X135544671Y-80665517D01*
X135607413Y-80705258D01*
X135610704Y-80709914D01*
X135614846Y-80713949D01*
X135614848Y-80713951D01*
X135681054Y-80778446D01*
X135766509Y-80861692D01*
X135947363Y-80982536D01*
X135952671Y-80984817D01*
X135952672Y-80984817D01*
X136141909Y-81066119D01*
X136141912Y-81066120D01*
X136147212Y-81068397D01*
X136152842Y-81069671D01*
X136250964Y-81091874D01*
X136359360Y-81116402D01*
X136365131Y-81116629D01*
X136365133Y-81116629D01*
X136438120Y-81119496D01*
X136576705Y-81124941D01*
X136791966Y-81093730D01*
X136797430Y-81091875D01*
X136797435Y-81091874D01*
X136992463Y-81025671D01*
X136992468Y-81025669D01*
X136997935Y-81023813D01*
X137187713Y-80917532D01*
X137354946Y-80778446D01*
X137494032Y-80611213D01*
X137600313Y-80421435D01*
X137602169Y-80415968D01*
X137602171Y-80415963D01*
X137668374Y-80220935D01*
X137668375Y-80220930D01*
X137670230Y-80215466D01*
X137701441Y-80000205D01*
X137703070Y-79938000D01*
X137683167Y-79721400D01*
X137624126Y-79512055D01*
X137527923Y-79316974D01*
X137471024Y-79240776D01*
X137401233Y-79147315D01*
X137401232Y-79147314D01*
X137397780Y-79142691D01*
X137275578Y-79029729D01*
X137239133Y-78968800D01*
X137241414Y-78897840D01*
X137280538Y-78840330D01*
X137350508Y-78782137D01*
X137354946Y-78778446D01*
X137494032Y-78611213D01*
X137600313Y-78421435D01*
X137602169Y-78415968D01*
X137602171Y-78415963D01*
X137668374Y-78220935D01*
X137668375Y-78220930D01*
X137670230Y-78215466D01*
X137701441Y-78000205D01*
X137703070Y-77938000D01*
X137683167Y-77721400D01*
X137624126Y-77512055D01*
X137527923Y-77316974D01*
X137414600Y-77165215D01*
X137401233Y-77147315D01*
X137401232Y-77147314D01*
X137397780Y-77142691D01*
X137275578Y-77029729D01*
X137239133Y-76968800D01*
X137241414Y-76897840D01*
X137280538Y-76840330D01*
X137350508Y-76782137D01*
X137354946Y-76778446D01*
X137494032Y-76611213D01*
X137600313Y-76421435D01*
X137602169Y-76415968D01*
X137602171Y-76415963D01*
X137668374Y-76220935D01*
X137668375Y-76220930D01*
X137670230Y-76215466D01*
X137701441Y-76000205D01*
X137703070Y-75938000D01*
X137683167Y-75721400D01*
X137676913Y-75699223D01*
X137625695Y-75517619D01*
X137624126Y-75512055D01*
X137527923Y-75316974D01*
X137414600Y-75165215D01*
X137401233Y-75147315D01*
X137401232Y-75147314D01*
X137397780Y-75142691D01*
X137275578Y-75029729D01*
X137239133Y-74968800D01*
X137241414Y-74897840D01*
X137280538Y-74840330D01*
X137350508Y-74782137D01*
X137354946Y-74778446D01*
X137466488Y-74644331D01*
X137525425Y-74604747D01*
X137563362Y-74598900D01*
X137586556Y-74598900D01*
X137654677Y-74618902D01*
X137675651Y-74635805D01*
X139222695Y-76182848D01*
X139256720Y-76245160D01*
X139259600Y-76271943D01*
X139259600Y-78966737D01*
X139259308Y-78975308D01*
X139255658Y-79028843D01*
X139256963Y-79036320D01*
X139256963Y-79036321D01*
X139265868Y-79087343D01*
X139266830Y-79093865D01*
X139273963Y-79152805D01*
X139276649Y-79159913D01*
X139278360Y-79166879D01*
X139279779Y-79172068D01*
X139281856Y-79178947D01*
X139283161Y-79186424D01*
X139307029Y-79240795D01*
X139309514Y-79246886D01*
X139326054Y-79290658D01*
X139330506Y-79302441D01*
X139334809Y-79308702D01*
X139338115Y-79315026D01*
X139340771Y-79319798D01*
X139344406Y-79325944D01*
X139347458Y-79332896D01*
X139358469Y-79347246D01*
X139383602Y-79380001D01*
X139387473Y-79385328D01*
X139421111Y-79434271D01*
X139426787Y-79439328D01*
X139464319Y-79472768D01*
X139469595Y-79477749D01*
X140234100Y-80242254D01*
X140267413Y-80303606D01*
X140267663Y-80306160D01*
X140324918Y-80478273D01*
X140328565Y-80484295D01*
X140328566Y-80484297D01*
X140405429Y-80611213D01*
X140418880Y-80633424D01*
X140544882Y-80763902D01*
X140550778Y-80767760D01*
X140688158Y-80857659D01*
X140696659Y-80863222D01*
X140703263Y-80865678D01*
X140703265Y-80865679D01*
X140860058Y-80923990D01*
X140860060Y-80923990D01*
X140866668Y-80926448D01*
X140950495Y-80937633D01*
X141039480Y-80949507D01*
X141039484Y-80949507D01*
X141046461Y-80950438D01*
X141053472Y-80949800D01*
X141053476Y-80949800D01*
X141195959Y-80936832D01*
X141227100Y-80933998D01*
X141233802Y-80931820D01*
X141233804Y-80931820D01*
X141392909Y-80880124D01*
X141392912Y-80880123D01*
X141399608Y-80877947D01*
X141555412Y-80785069D01*
X141686766Y-80659982D01*
X141787143Y-80508902D01*
X141851555Y-80339338D01*
X141865199Y-80242254D01*
X141876248Y-80163639D01*
X141876248Y-80163636D01*
X141876799Y-80159717D01*
X141877116Y-80137000D01*
X141856897Y-79956745D01*
X141839535Y-79906887D01*
X141799564Y-79792106D01*
X141799562Y-79792103D01*
X141797245Y-79785448D01*
X141701126Y-79631624D01*
X141587914Y-79517619D01*
X141578278Y-79507915D01*
X141578274Y-79507912D01*
X141573315Y-79502918D01*
X141550866Y-79488671D01*
X141465144Y-79434271D01*
X141420166Y-79405727D01*
X141249290Y-79344881D01*
X141242291Y-79344046D01*
X141235434Y-79342438D01*
X141235796Y-79340893D01*
X141178231Y-79316266D01*
X141169325Y-79308172D01*
X140618305Y-78757152D01*
X140584279Y-78694840D01*
X140581400Y-78668057D01*
X140581400Y-75973263D01*
X140581692Y-75964692D01*
X140583512Y-75938000D01*
X140585342Y-75911157D01*
X140575130Y-75852647D01*
X140574173Y-75846167D01*
X140567037Y-75787195D01*
X140564351Y-75780087D01*
X140562635Y-75773101D01*
X140561233Y-75767975D01*
X140559147Y-75761065D01*
X140557840Y-75753577D01*
X140533980Y-75699223D01*
X140531487Y-75693115D01*
X140513178Y-75644662D01*
X140510494Y-75637559D01*
X140506193Y-75631301D01*
X140502885Y-75624973D01*
X140500232Y-75620208D01*
X140496595Y-75614059D01*
X140493542Y-75607104D01*
X140457389Y-75559989D01*
X140453536Y-75554685D01*
X140424194Y-75511992D01*
X140424192Y-75511989D01*
X140419889Y-75505729D01*
X140376671Y-75467223D01*
X140371396Y-75462243D01*
X138399114Y-73489961D01*
X138393260Y-73483695D01*
X138362970Y-73448973D01*
X138357976Y-73443248D01*
X138309398Y-73409107D01*
X138304104Y-73405175D01*
X138263355Y-73373223D01*
X138263356Y-73373223D01*
X138257379Y-73368537D01*
X138250455Y-73365411D01*
X138244324Y-73361698D01*
X138239704Y-73359062D01*
X138233322Y-73355640D01*
X138227103Y-73351269D01*
X138171786Y-73329701D01*
X138165707Y-73327146D01*
X138111588Y-73302711D01*
X138104112Y-73301325D01*
X138097234Y-73299170D01*
X138092109Y-73297710D01*
X138085145Y-73295922D01*
X138078066Y-73293162D01*
X138070534Y-73292170D01*
X138070532Y-73292170D01*
X138045304Y-73288849D01*
X138019200Y-73285413D01*
X138012702Y-73284384D01*
X137954303Y-73273560D01*
X137946723Y-73273997D01*
X137946722Y-73273997D01*
X137896533Y-73276891D01*
X137889280Y-73277100D01*
X137561313Y-73277100D01*
X137493192Y-73257098D01*
X137460355Y-73226489D01*
X137401233Y-73147315D01*
X137401232Y-73147314D01*
X137397780Y-73142691D01*
X137275578Y-73029729D01*
X137239133Y-72968800D01*
X137241414Y-72897840D01*
X137280538Y-72840330D01*
X137280950Y-72839988D01*
X137354946Y-72778446D01*
X137494032Y-72611213D01*
X137600313Y-72421435D01*
X137602169Y-72415968D01*
X137602171Y-72415963D01*
X137668374Y-72220935D01*
X137668375Y-72220930D01*
X137670230Y-72215466D01*
X137701441Y-72000205D01*
X137703070Y-71938000D01*
X137683167Y-71721400D01*
X137671717Y-71680799D01*
X137625695Y-71517619D01*
X137624126Y-71512055D01*
X137527923Y-71316974D01*
X137397780Y-71142691D01*
X137378344Y-71124724D01*
X137306070Y-71057915D01*
X137275578Y-71029729D01*
X137239133Y-70968800D01*
X137241414Y-70897840D01*
X137280538Y-70840330D01*
X137350508Y-70782137D01*
X137354946Y-70778446D01*
X137494032Y-70611213D01*
X137600313Y-70421435D01*
X137602169Y-70415968D01*
X137602171Y-70415963D01*
X137668374Y-70220935D01*
X137668375Y-70220930D01*
X137670230Y-70215466D01*
X137701441Y-70000205D01*
X137703070Y-69938000D01*
X137683167Y-69721400D01*
X137624126Y-69512055D01*
X137527923Y-69316974D01*
X137414600Y-69165215D01*
X137401233Y-69147315D01*
X137401232Y-69147314D01*
X137397780Y-69142691D01*
X137275578Y-69029729D01*
X137239133Y-68968800D01*
X137241414Y-68897840D01*
X137280538Y-68840330D01*
X137293248Y-68829760D01*
X137354946Y-68778446D01*
X137494032Y-68611213D01*
X137600313Y-68421435D01*
X137602169Y-68415968D01*
X137602171Y-68415963D01*
X137668374Y-68220935D01*
X137668375Y-68220930D01*
X137670230Y-68215466D01*
X137701441Y-68000205D01*
X137703070Y-67938000D01*
X137683167Y-67721400D01*
X137675334Y-67693624D01*
X137625695Y-67517619D01*
X137624126Y-67512055D01*
X137527923Y-67316974D01*
X137414600Y-67165215D01*
X137401233Y-67147315D01*
X137401232Y-67147314D01*
X137397780Y-67142691D01*
X137275578Y-67029729D01*
X137239133Y-66968800D01*
X137241414Y-66897840D01*
X137280538Y-66840330D01*
X137350508Y-66782137D01*
X137354946Y-66778446D01*
X137466488Y-66644331D01*
X137525425Y-66604747D01*
X137563362Y-66598900D01*
X138349556Y-66598900D01*
X138417677Y-66618902D01*
X138438651Y-66635805D01*
X140295019Y-68492172D01*
X140320303Y-68528414D01*
X140322695Y-68533591D01*
X140324918Y-68540273D01*
X140418880Y-68695424D01*
X140423769Y-68700487D01*
X140423770Y-68700488D01*
X140436771Y-68713951D01*
X140544882Y-68825902D01*
X140696659Y-68925222D01*
X140703263Y-68927678D01*
X140703265Y-68927679D01*
X140860058Y-68985990D01*
X140860060Y-68985990D01*
X140866668Y-68988448D01*
X140950495Y-68999633D01*
X141039480Y-69011507D01*
X141039484Y-69011507D01*
X141046461Y-69012438D01*
X141053472Y-69011800D01*
X141053476Y-69011800D01*
X141195959Y-68998832D01*
X141227100Y-68995998D01*
X141233802Y-68993820D01*
X141233804Y-68993820D01*
X141392909Y-68942124D01*
X141392912Y-68942123D01*
X141399608Y-68939947D01*
X141555412Y-68847069D01*
X141686766Y-68721982D01*
X141787143Y-68570902D01*
X141843921Y-68421435D01*
X141849055Y-68407920D01*
X141849056Y-68407918D01*
X141851555Y-68401338D01*
X141876799Y-68221717D01*
X141877116Y-68199000D01*
X141856897Y-68018745D01*
X141850441Y-68000205D01*
X141799564Y-67854106D01*
X141799562Y-67854103D01*
X141797245Y-67847448D01*
X141718482Y-67721400D01*
X141704859Y-67699598D01*
X141701126Y-67693624D01*
X141696164Y-67688627D01*
X141578278Y-67569915D01*
X141578274Y-67569912D01*
X141573315Y-67564918D01*
X141420166Y-67467727D01*
X141390963Y-67457328D01*
X141255925Y-67409243D01*
X141255920Y-67409242D01*
X141249290Y-67406881D01*
X141242302Y-67406048D01*
X141242299Y-67406047D01*
X141099306Y-67388996D01*
X141034033Y-67361068D01*
X141025130Y-67352977D01*
X139162114Y-65489961D01*
X139156260Y-65483695D01*
X139125970Y-65448973D01*
X139120976Y-65443248D01*
X139072398Y-65409107D01*
X139067104Y-65405175D01*
X139026355Y-65373223D01*
X139026356Y-65373223D01*
X139020379Y-65368537D01*
X139013455Y-65365411D01*
X139007324Y-65361698D01*
X139002704Y-65359062D01*
X138996322Y-65355640D01*
X138990103Y-65351269D01*
X138934786Y-65329701D01*
X138928707Y-65327146D01*
X138874588Y-65302711D01*
X138867112Y-65301325D01*
X138860234Y-65299170D01*
X138855109Y-65297710D01*
X138848145Y-65295922D01*
X138841066Y-65293162D01*
X138833534Y-65292170D01*
X138833532Y-65292170D01*
X138808304Y-65288849D01*
X138782200Y-65285413D01*
X138775702Y-65284384D01*
X138717303Y-65273560D01*
X138709723Y-65273997D01*
X138709722Y-65273997D01*
X138659533Y-65276891D01*
X138652280Y-65277100D01*
X137561313Y-65277100D01*
X137493192Y-65257098D01*
X137460355Y-65226489D01*
X137401233Y-65147315D01*
X137401232Y-65147314D01*
X137397780Y-65142691D01*
X137275208Y-65029387D01*
X137238763Y-64968458D01*
X137241044Y-64897499D01*
X137280168Y-64839988D01*
X137350153Y-64781782D01*
X137358282Y-64773653D01*
X137489920Y-64615375D01*
X137496444Y-64605882D01*
X137597031Y-64426272D01*
X137601710Y-64415763D01*
X137667886Y-64220817D01*
X137670517Y-64209857D01*
X137668540Y-64195992D01*
X137654974Y-64192000D01*
X133376481Y-64192000D01*
X133362950Y-64195973D01*
X133361658Y-64204962D01*
X133393156Y-64328985D01*
X133396997Y-64339832D01*
X133483185Y-64526789D01*
X133488936Y-64536750D01*
X133607754Y-64704873D01*
X133615225Y-64713621D01*
X133754618Y-64849411D01*
X133789456Y-64911272D01*
X133785319Y-64982148D01*
X133749774Y-65034396D01*
X133652342Y-65119842D01*
X133648770Y-65124373D01*
X133522156Y-65284982D01*
X133517681Y-65290658D01*
X133416405Y-65483154D01*
X133351903Y-65690882D01*
X133326337Y-65906887D01*
X133340563Y-66123933D01*
X133394105Y-66334753D01*
X133485168Y-66532285D01*
X133610704Y-66709914D01*
X133614846Y-66713949D01*
X133754241Y-66849741D01*
X133789079Y-66911602D01*
X133784942Y-66982478D01*
X133749399Y-67034726D01*
X133652342Y-67119842D01*
X133648770Y-67124373D01*
X133607545Y-67176667D01*
X133517681Y-67290658D01*
X133416405Y-67483154D01*
X133351903Y-67690882D01*
X133326337Y-67906887D01*
X133340563Y-68123933D01*
X133341984Y-68129529D01*
X133341985Y-68129534D01*
X133365397Y-68221717D01*
X133394105Y-68334753D01*
X133485168Y-68532285D01*
X133610704Y-68709914D01*
X133614846Y-68713949D01*
X133754241Y-68849741D01*
X133789079Y-68911602D01*
X133784942Y-68982478D01*
X133749399Y-69034726D01*
X133652342Y-69119842D01*
X133648770Y-69124373D01*
X133607545Y-69176667D01*
X133517681Y-69290658D01*
X133416405Y-69483154D01*
X133351903Y-69690882D01*
X133326337Y-69906887D01*
X133340563Y-70123933D01*
X133341984Y-70129529D01*
X133341985Y-70129534D01*
X133392684Y-70329158D01*
X133394105Y-70334753D01*
X133485168Y-70532285D01*
X133610704Y-70709914D01*
X133754602Y-70850093D01*
X133789438Y-70911952D01*
X133785301Y-70982828D01*
X133749756Y-71035077D01*
X133657052Y-71116376D01*
X133649130Y-71124724D01*
X133521680Y-71286394D01*
X133515409Y-71296050D01*
X133419560Y-71478229D01*
X133415155Y-71488863D01*
X133359936Y-71666700D01*
X133359718Y-71680799D01*
X133366450Y-71684000D01*
X134642500Y-71684000D01*
X134710621Y-71704002D01*
X134757114Y-71757658D01*
X134768500Y-71810000D01*
X134768500Y-72066000D01*
X134748498Y-72134121D01*
X134694842Y-72180614D01*
X134642500Y-72192000D01*
X133376481Y-72192000D01*
X133362950Y-72195973D01*
X133361658Y-72204962D01*
X133393156Y-72328985D01*
X133396997Y-72339832D01*
X133483185Y-72526789D01*
X133488936Y-72536750D01*
X133607754Y-72704873D01*
X133615225Y-72713621D01*
X133754618Y-72849411D01*
X133789456Y-72911272D01*
X133785319Y-72982148D01*
X133749774Y-73034396D01*
X133652342Y-73119842D01*
X133648770Y-73124373D01*
X133522156Y-73284982D01*
X133517681Y-73290658D01*
X133416405Y-73483154D01*
X133351903Y-73690882D01*
X133326337Y-73906887D01*
X133340563Y-74123933D01*
X133394105Y-74334753D01*
X133485168Y-74532285D01*
X133610704Y-74709914D01*
X133614846Y-74713949D01*
X133754241Y-74849741D01*
X133789079Y-74911602D01*
X133784942Y-74982478D01*
X133749399Y-75034726D01*
X133652342Y-75119842D01*
X133648770Y-75124373D01*
X133607545Y-75176667D01*
X133517681Y-75290658D01*
X133416405Y-75483154D01*
X133407431Y-75512055D01*
X133372369Y-75624973D01*
X133351903Y-75690882D01*
X133326337Y-75906887D01*
X133340563Y-76123933D01*
X133341984Y-76129529D01*
X133341985Y-76129534D01*
X133371351Y-76245160D01*
X133394105Y-76334753D01*
X133485168Y-76532285D01*
X133610704Y-76709914D01*
X133614846Y-76713949D01*
X133754241Y-76849741D01*
X133789079Y-76911602D01*
X133784942Y-76982478D01*
X133749399Y-77034726D01*
X133652342Y-77119842D01*
X133648770Y-77124373D01*
X133607545Y-77176667D01*
X133517681Y-77290658D01*
X133416405Y-77483154D01*
X133351903Y-77690882D01*
X133326337Y-77906887D01*
X133340563Y-78123933D01*
X133341984Y-78129529D01*
X133341985Y-78129534D01*
X133392684Y-78329158D01*
X133394105Y-78334753D01*
X133485168Y-78532285D01*
X133610704Y-78709914D01*
X133614846Y-78713949D01*
X133754241Y-78849741D01*
X133789079Y-78911602D01*
X133784942Y-78982478D01*
X133749399Y-79034726D01*
X133652342Y-79119842D01*
X133648770Y-79124373D01*
X133554623Y-79243798D01*
X133517681Y-79290658D01*
X133514993Y-79295767D01*
X133489153Y-79344881D01*
X133416405Y-79483154D01*
X133351903Y-79690882D01*
X133326337Y-79906887D01*
X133023000Y-79906887D01*
X133023000Y-61906887D01*
X133326337Y-61906887D01*
X133340563Y-62123933D01*
X133394105Y-62334753D01*
X133485168Y-62532285D01*
X133488501Y-62537001D01*
X133576230Y-62661134D01*
X133610704Y-62709914D01*
X133754602Y-62850093D01*
X133789438Y-62911952D01*
X133785301Y-62982828D01*
X133749756Y-63035077D01*
X133657052Y-63116376D01*
X133649130Y-63124724D01*
X133521680Y-63286394D01*
X133515409Y-63296050D01*
X133419560Y-63478229D01*
X133415155Y-63488863D01*
X133359936Y-63666700D01*
X133359718Y-63680799D01*
X133366450Y-63684000D01*
X137653985Y-63684000D01*
X137667516Y-63680027D01*
X137668685Y-63671892D01*
X137625225Y-63517794D01*
X137621103Y-63507055D01*
X137530049Y-63322417D01*
X137524035Y-63312603D01*
X137448565Y-63211535D01*
X137423833Y-63144985D01*
X137439008Y-63075629D01*
X137473958Y-63035321D01*
X137545580Y-62981643D01*
X137545581Y-62981642D01*
X137552761Y-62976261D01*
X137640115Y-62859705D01*
X137691245Y-62723316D01*
X137698000Y-62661134D01*
X137698000Y-61214866D01*
X137691245Y-61152684D01*
X137640115Y-61016295D01*
X137552761Y-60899739D01*
X137436205Y-60812385D01*
X137299816Y-60761255D01*
X137237634Y-60754500D01*
X135791366Y-60754500D01*
X135729184Y-60761255D01*
X135592795Y-60812385D01*
X135476239Y-60899739D01*
X135420979Y-60973473D01*
X135420038Y-60974728D01*
X135363179Y-61017243D01*
X135292360Y-61022269D01*
X135242512Y-60999129D01*
X135242295Y-60998963D01*
X135238056Y-60995044D01*
X135054099Y-60878976D01*
X134852072Y-60798376D01*
X134638739Y-60755941D01*
X134632964Y-60755865D01*
X134632960Y-60755865D01*
X134523919Y-60754438D01*
X134421246Y-60753094D01*
X134415549Y-60754073D01*
X134415548Y-60754073D01*
X134212565Y-60788952D01*
X134212562Y-60788953D01*
X134206875Y-60789930D01*
X134002807Y-60865214D01*
X133815876Y-60976427D01*
X133652342Y-61119842D01*
X133517681Y-61290658D01*
X133416405Y-61483154D01*
X133351903Y-61690882D01*
X133326337Y-61906887D01*
X133023000Y-61906887D01*
X133023000Y-60072500D01*
X133043002Y-60004379D01*
X133096658Y-59957886D01*
X133149000Y-59946500D01*
X164880000Y-59946500D01*
X164948121Y-59966502D01*
G37*
%TD.AperFunction*%
%TA.AperFunction,Conductor*%
G36*
X155090112Y-106937305D02*
G01*
X155096694Y-106943433D01*
X156268485Y-108115225D01*
X157434495Y-109281235D01*
X157468521Y-109343547D01*
X157471400Y-109370330D01*
X157471400Y-114503098D01*
X157451398Y-114571219D01*
X157434495Y-114592193D01*
X156341693Y-115684995D01*
X156279381Y-115719021D01*
X156252598Y-115721900D01*
X154573605Y-115721900D01*
X154563053Y-115721402D01*
X154555799Y-115719781D01*
X154493379Y-115721742D01*
X154490333Y-115721838D01*
X154486376Y-115721900D01*
X154459545Y-115721900D01*
X154455618Y-115722396D01*
X154454712Y-115722453D01*
X154444068Y-115723292D01*
X154401729Y-115724622D01*
X154383342Y-115729964D01*
X154363985Y-115733972D01*
X154344996Y-115736371D01*
X154305608Y-115751965D01*
X154294385Y-115755807D01*
X154261318Y-115765415D01*
X154261316Y-115765416D01*
X154253702Y-115767628D01*
X154237221Y-115777375D01*
X154219479Y-115786067D01*
X154201674Y-115793116D01*
X154195260Y-115797776D01*
X154167400Y-115818017D01*
X154157480Y-115824533D01*
X154127848Y-115842057D01*
X154127845Y-115842059D01*
X154121021Y-115846095D01*
X154107490Y-115859626D01*
X154092458Y-115872465D01*
X154076966Y-115883721D01*
X154071913Y-115889829D01*
X154049959Y-115916367D01*
X154041969Y-115925147D01*
X151819632Y-118147484D01*
X151757320Y-118181510D01*
X151730537Y-118184389D01*
X146347112Y-118184389D01*
X146278991Y-118164387D01*
X146232498Y-118110731D01*
X146222394Y-118040457D01*
X146251888Y-117975877D01*
X146258017Y-117969294D01*
X148294834Y-115932478D01*
X150479969Y-113747343D01*
X150542281Y-113713317D01*
X150557643Y-113710957D01*
X150566136Y-113710184D01*
X150626071Y-113704729D01*
X150642411Y-113699420D01*
X150792905Y-113650522D01*
X150792908Y-113650521D01*
X150799604Y-113648345D01*
X150875982Y-113602815D01*
X150950277Y-113558527D01*
X150950280Y-113558525D01*
X150956332Y-113554917D01*
X151059914Y-113456277D01*
X151083362Y-113433948D01*
X151083364Y-113433945D01*
X151088466Y-113429087D01*
X151189439Y-113277110D01*
X151220150Y-113196264D01*
X151251733Y-113113122D01*
X151251734Y-113113117D01*
X151254233Y-113106539D01*
X151258421Y-113076739D01*
X151279076Y-112929775D01*
X151279076Y-112929770D01*
X151279627Y-112925852D01*
X151279946Y-112903000D01*
X151259607Y-112721675D01*
X151199601Y-112549361D01*
X151102911Y-112394624D01*
X151048772Y-112340106D01*
X151014965Y-112277678D01*
X151020276Y-112206880D01*
X151049083Y-112162228D01*
X152830416Y-110380896D01*
X154649392Y-108561920D01*
X154657205Y-108554810D01*
X154663483Y-108550826D01*
X154708330Y-108503069D01*
X154711085Y-108500227D01*
X154730047Y-108481265D01*
X154732476Y-108478133D01*
X154733029Y-108477506D01*
X154740010Y-108469333D01*
X154763577Y-108444237D01*
X154769004Y-108438458D01*
X154774729Y-108428045D01*
X154778231Y-108421676D01*
X154789082Y-108405157D01*
X154795954Y-108396297D01*
X154800812Y-108390034D01*
X154817644Y-108351140D01*
X154822848Y-108340517D01*
X154843265Y-108303378D01*
X154848025Y-108284840D01*
X154854425Y-108266146D01*
X154862032Y-108248566D01*
X154868659Y-108206723D01*
X154871067Y-108195101D01*
X154879628Y-108161759D01*
X154879629Y-108161750D01*
X154881600Y-108154074D01*
X154881600Y-108134936D01*
X154883151Y-108115225D01*
X154884906Y-108104144D01*
X154886146Y-108096316D01*
X154882158Y-108054124D01*
X154881600Y-108042281D01*
X154881600Y-107032529D01*
X154901602Y-106964408D01*
X154955258Y-106917915D01*
X155025532Y-106907811D01*
X155090112Y-106937305D01*
G37*
%TD.AperFunction*%
%TA.AperFunction,Conductor*%
G36*
X151830193Y-104643969D02*
G01*
X151876797Y-104674498D01*
X151908303Y-104707123D01*
X151914195Y-104710978D01*
X151914199Y-104710982D01*
X152042224Y-104794759D01*
X152060981Y-104807033D01*
X152067585Y-104809489D01*
X152067587Y-104809490D01*
X152146491Y-104838834D01*
X152232000Y-104870635D01*
X152412860Y-104894767D01*
X152419871Y-104894129D01*
X152419875Y-104894129D01*
X152559580Y-104881414D01*
X152594571Y-104878229D01*
X152601273Y-104876051D01*
X152601275Y-104876051D01*
X152761405Y-104824022D01*
X152761408Y-104824021D01*
X152768104Y-104821845D01*
X152813543Y-104794758D01*
X152882295Y-104777059D01*
X152949705Y-104799341D01*
X152967154Y-104813893D01*
X153582497Y-105429237D01*
X153616522Y-105491549D01*
X153611457Y-105562365D01*
X153599317Y-105586579D01*
X153538408Y-105681090D01*
X153535999Y-105687710D01*
X153535997Y-105687713D01*
X153481256Y-105838113D01*
X153476002Y-105852549D01*
X153453134Y-106033573D01*
X153453821Y-106040580D01*
X153453821Y-106040583D01*
X153461254Y-106116386D01*
X153470939Y-106215164D01*
X153528533Y-106388299D01*
X153623054Y-106544371D01*
X153627952Y-106549443D01*
X153632244Y-106555016D01*
X153630641Y-106556251D01*
X153658969Y-106610357D01*
X153661400Y-106634986D01*
X153661400Y-107772098D01*
X153641398Y-107840219D01*
X153624495Y-107861193D01*
X148873695Y-112611993D01*
X148811383Y-112646019D01*
X148740568Y-112640954D01*
X148683732Y-112598407D01*
X148658921Y-112531887D01*
X148658600Y-112522898D01*
X148658600Y-111968514D01*
X148679652Y-111898787D01*
X148772538Y-111758981D01*
X148776439Y-111753110D01*
X148795438Y-111703094D01*
X148838733Y-111589122D01*
X148838734Y-111589117D01*
X148841233Y-111582539D01*
X148843645Y-111565375D01*
X148866076Y-111405775D01*
X148866076Y-111405770D01*
X148866627Y-111401852D01*
X148866946Y-111379000D01*
X148846607Y-111197675D01*
X148828603Y-111145973D01*
X148788919Y-111032018D01*
X148786601Y-111025361D01*
X148689911Y-110870624D01*
X148625347Y-110805608D01*
X148566304Y-110746151D01*
X148566300Y-110746148D01*
X148561341Y-110741154D01*
X148550157Y-110734056D01*
X148501951Y-110703464D01*
X148407283Y-110643386D01*
X148268924Y-110594118D01*
X148242027Y-110584540D01*
X148242025Y-110584539D01*
X148235393Y-110582178D01*
X148228407Y-110581345D01*
X148228403Y-110581344D01*
X148098826Y-110565894D01*
X148054214Y-110560574D01*
X148047211Y-110561310D01*
X148047210Y-110561310D01*
X148000975Y-110566170D01*
X147872751Y-110579646D01*
X147866083Y-110581916D01*
X147706690Y-110636178D01*
X147706687Y-110636179D01*
X147700023Y-110638448D01*
X147544614Y-110734056D01*
X147414250Y-110861718D01*
X147315408Y-111015090D01*
X147312999Y-111021710D01*
X147312997Y-111021713D01*
X147262717Y-111159857D01*
X147253002Y-111186549D01*
X147230134Y-111367573D01*
X147230821Y-111374580D01*
X147230821Y-111374583D01*
X147240467Y-111472957D01*
X147247939Y-111549164D01*
X147305533Y-111722299D01*
X147400054Y-111878371D01*
X147404952Y-111883443D01*
X147409244Y-111889016D01*
X147407641Y-111890251D01*
X147435969Y-111944357D01*
X147438400Y-111968986D01*
X147438400Y-113492882D01*
X147418398Y-113561003D01*
X147401495Y-113581977D01*
X144256597Y-116726875D01*
X144194285Y-116760901D01*
X144167502Y-116763780D01*
X143782800Y-116763780D01*
X143714679Y-116743778D01*
X143668186Y-116690122D01*
X143658026Y-116620245D01*
X143659075Y-116612778D01*
X143659627Y-116608852D01*
X143659946Y-116586000D01*
X143639607Y-116404675D01*
X143633428Y-116386932D01*
X143581920Y-116239019D01*
X143581918Y-116239016D01*
X143579601Y-116232361D01*
X143572344Y-116220747D01*
X143553200Y-116153981D01*
X143553200Y-115774500D01*
X143573202Y-115706379D01*
X143626858Y-115659886D01*
X143679200Y-115648500D01*
X143993634Y-115648500D01*
X144055816Y-115641745D01*
X144192205Y-115590615D01*
X144308761Y-115503261D01*
X144396115Y-115386705D01*
X144447245Y-115250316D01*
X144454000Y-115188134D01*
X144454000Y-113990186D01*
X144474002Y-113922065D01*
X144490905Y-113901091D01*
X144783327Y-113608669D01*
X144789593Y-113602815D01*
X144827665Y-113569603D01*
X144833392Y-113564607D01*
X144870297Y-113512096D01*
X144874230Y-113506800D01*
X144909155Y-113462258D01*
X144909157Y-113462254D01*
X144913844Y-113456277D01*
X144916969Y-113449355D01*
X144918198Y-113447326D01*
X144926951Y-113431979D01*
X144928070Y-113429891D01*
X144932441Y-113423673D01*
X144955757Y-113363870D01*
X144958311Y-113357794D01*
X144981603Y-113306208D01*
X144981603Y-113306207D01*
X144984731Y-113299280D01*
X144986115Y-113291810D01*
X144986822Y-113289555D01*
X144991660Y-113272571D01*
X144992253Y-113270262D01*
X144995014Y-113263181D01*
X145003394Y-113199533D01*
X145004426Y-113193019D01*
X145014739Y-113137374D01*
X145014739Y-113137373D01*
X145016123Y-113129906D01*
X145012520Y-113067418D01*
X145012311Y-113060166D01*
X145012311Y-111409874D01*
X145032313Y-111341753D01*
X145049216Y-111320779D01*
X151697066Y-104672930D01*
X151759378Y-104638904D01*
X151830193Y-104643969D01*
G37*
%TD.AperFunction*%
%TD*%
M02*
